<svg preserveAspectRatio="none" width="100%" height="100%" overflow="visible" style="display: block;" viewBox="0 0 231 109.334" fill="none" xmlns="http://www.w3.org/2000/svg">
<g id="Layer-1">
<g id="Vector">
<path d="M231 56.4987C231 61.9214 229.308 66.947 226.419 71.08C225.91 71.8128 225.364 72.5163 224.781 73.1878C220.107 78.5838 213.202 82 205.501 82C197.8 82 190.896 78.5838 186.219 73.1878C185.636 72.5163 185.09 71.8128 184.581 71.08C181.692 66.947 180 61.9214 180 56.4987C180 51.076 181.692 46.0503 184.581 41.9173C185.09 41.1845 185.639 40.4811 186.222 39.8096C190.896 34.4135 197.8 31 205.501 31C213.202 31 220.104 34.4135 224.778 39.8096C225.361 40.4811 225.91 41.1845 226.419 41.9173C229.308 46.0503 231 51.076 231 56.4987Z" fill="#C7F900"/>
<path d="M198.448 56.4987C198.448 61.7935 196.204 66.057 191.589 69.5291C191 69.9715 190.352 70.3605 189.668 70.7709C188.58 71.4184 187.405 72.1219 186.219 73.1878C185.636 72.5163 185.09 71.8128 184.581 71.08C185.9 69.9182 187.181 69.1534 188.298 68.4846C188.951 68.0928 189.513 67.7571 189.987 67.4C193.942 64.4235 195.783 60.9594 195.783 56.4987C195.783 52.0379 193.942 48.5738 189.987 45.5973C189.513 45.2402 188.951 44.9045 188.298 44.5154C187.181 43.8466 185.9 43.0818 184.581 41.9173C185.09 41.1845 185.639 40.4811 186.222 39.8096C187.408 40.8781 188.583 41.5789 189.668 42.2291C190.352 42.6395 191 43.0259 191.589 43.4682C196.204 46.943 198.448 51.2039 198.448 56.4987Z" fill="var(--fill-0, white)"/>
<path d="M224.778 39.8096C223.595 40.8781 222.42 41.5789 221.335 42.2291C220.648 42.6395 220 43.0259 219.411 43.4682C214.796 46.943 212.552 51.2039 212.552 56.4987C212.552 61.7935 214.796 66.057 219.411 69.5291C220 69.9715 220.648 70.3605 221.335 70.7709C222.42 71.4184 223.597 72.1219 224.781 73.1878C225.364 72.5163 225.91 71.8128 226.419 71.08C225.1 69.9182 223.819 69.1534 222.702 68.4846C222.049 68.0928 221.49 67.7571 221.013 67.4C217.058 64.4235 215.217 60.9594 215.217 56.4987C215.217 52.0379 217.058 48.5738 221.013 45.5973C221.49 45.2402 222.052 44.9045 222.702 44.5154C223.819 43.8466 225.1 43.0818 226.419 41.9173L224.778 39.8096Z" fill="var(--fill-0, white)"/>
</g>
<g id="Vector_2">
<path d="M148 25.4987C148 30.9214 146.308 35.947 143.419 40.08C142.91 40.8128 142.364 41.5163 141.781 42.1878C137.107 47.5838 130.202 51 122.501 51C114.8 51 107.896 47.5838 103.219 42.1878C102.636 41.5163 102.09 40.8128 101.581 40.08C98.6921 35.947 97 30.9214 97 25.4987C97 20.076 98.6921 15.0503 101.581 10.9173C102.09 10.1845 102.639 9.48106 103.222 8.80955C107.896 3.4135 114.8 0 122.501 0C130.202 0 137.104 3.4135 141.778 8.80955C142.361 9.48106 142.91 10.1845 143.419 10.9173C146.308 15.0503 148 20.076 148 25.4987Z" fill="#C7F900"/>
<path d="M115.448 25.4987C115.448 30.7935 113.204 35.057 108.589 38.5291C108 38.9715 107.352 39.3605 106.668 39.7709C105.58 40.4184 104.405 41.1219 103.219 42.1878C102.636 41.5163 102.09 40.8128 101.581 40.08C102.9 38.9182 104.181 38.1534 105.298 37.4846C105.951 37.0928 106.513 36.7571 106.987 36.4C110.942 33.4235 112.783 29.9594 112.783 25.4987C112.783 21.0379 110.942 17.5738 106.987 14.5973C106.513 14.2402 105.951 13.9045 105.298 13.5154C104.181 12.8466 102.9 12.0818 101.581 10.9173C102.09 10.1845 102.639 9.48106 103.222 8.80955C104.408 9.8781 105.583 10.5789 106.668 11.2291C107.352 11.6395 108 12.0259 108.589 12.4682C113.204 15.943 115.448 20.2039 115.448 25.4987Z" fill="var(--fill-0, white)"/>
<path d="M141.778 8.80955C140.595 9.8781 139.42 10.5789 138.335 11.2291C137.648 11.6395 137 12.0259 136.411 12.4682C131.796 15.943 129.552 20.2039 129.552 25.4987C129.552 30.7935 131.796 35.057 136.411 38.5291C137 38.9715 137.648 39.3605 138.335 39.7709C139.42 40.4184 140.597 41.1219 141.781 42.1878C142.364 41.5163 142.91 40.8128 143.419 40.08C142.1 38.9182 140.819 38.1534 139.702 37.4846C139.049 37.0928 138.49 36.7571 138.013 36.4C134.058 33.4235 132.217 29.9594 132.217 25.4987C132.217 21.0379 134.058 17.5738 138.013 14.5973C138.49 14.2402 139.052 13.9045 139.702 13.5154C140.819 12.8466 142.1 12.0818 143.419 10.9173L141.778 8.80955Z" fill="var(--fill-0, white)"/>
</g>
<g id="Vector_3">
<path d="M51 56.4987C51 61.9214 49.3079 66.947 46.4194 71.08C45.9104 71.8128 45.3641 72.5163 44.7806 73.1878C40.1066 78.5838 33.2024 82 25.5013 82C17.8003 82 10.896 78.5838 6.21945 73.1878C5.63587 72.5163 5.08961 71.8128 4.58065 71.08C1.69209 66.947 0 61.9214 0 56.4987C0 51.076 1.69209 46.0503 4.58065 41.9173C5.08961 41.1845 5.63854 40.4811 6.22211 39.8096C10.896 34.4135 17.8003 31 25.5013 31C33.2024 31 40.104 34.4135 44.7779 39.8096C45.3615 40.4811 45.9104 41.1845 46.4194 41.9173C49.3079 46.0503 51 51.076 51 56.4987Z" fill="#C7F900"/>
<path d="M18.4478 56.4987C18.4478 61.7935 16.2041 66.057 11.5889 69.5291C10.9999 69.9715 10.3524 70.3605 9.66759 70.7709C8.58039 71.4184 7.40525 72.1219 6.21945 73.1878C5.63587 72.5163 5.08961 71.8128 4.58065 71.08C5.89968 69.9182 7.18141 69.1534 8.29793 68.4846C8.95078 68.0928 9.51304 67.7571 9.98736 67.4C13.9418 64.4235 15.7831 60.9594 15.7831 56.4987C15.7831 52.0379 13.9418 48.5738 9.98736 45.5973C9.51304 45.2402 8.95078 44.9045 8.29793 44.5154C7.18141 43.8466 5.89968 43.0818 4.58065 41.9173C5.08961 41.1845 5.63854 40.4811 6.22211 39.8096C7.40791 40.8781 8.58305 41.5789 9.66759 42.2291C10.3524 42.6395 10.9999 43.0259 11.5889 43.4682C16.2041 46.943 18.4478 51.2039 18.4478 56.4987Z" fill="var(--fill-0, white)"/>
<path d="M44.7779 39.8096C43.5948 40.8781 42.4196 41.5789 41.3351 42.2291C40.6476 42.6395 40 43.0259 39.4111 43.4682C34.7959 46.943 32.5522 51.2039 32.5522 56.4987C32.5522 61.7935 34.7959 66.057 39.4111 69.5291C40 69.9715 40.6476 70.3605 41.3351 70.7709C42.4196 71.4184 43.5974 72.1219 44.7806 73.1878C45.3641 72.5163 45.9104 71.8128 46.4194 71.08C45.1003 69.9182 43.8186 69.1534 42.7021 68.4846C42.0492 68.0928 41.4896 67.7571 41.0126 67.4C37.0582 64.4235 35.2169 60.9594 35.2169 56.4987C35.2169 52.0379 37.0582 48.5738 41.0126 45.5973C41.4896 45.2402 42.0519 44.9045 42.7021 44.5154C43.8186 43.8466 45.1003 43.0818 46.4194 41.9173L44.7779 39.8096Z" fill="var(--fill-0, white)"/>
</g>
<g id="Vector_4">
<path d="M109.251 52.4171C116.696 56.7153 121.152 64.2019 121.892 72.1556C121.979 73.0824 122.016 74.0146 121.998 74.946C121.929 79.137 120.825 83.3674 118.583 87.2512C116.341 91.1351 113.229 94.2063 109.635 96.3592C108.836 96.8425 108.01 97.2765 107.166 97.6627C99.9062 101.001 91.1959 100.883 83.7512 96.5844C71.5549 89.5429 67.3742 73.9475 74.4157 61.7512C81.4572 49.555 97.0549 45.3756 109.251 52.4171Z" fill="#C7F900"/>
<path d="M121.892 72.1556C121.979 73.0824 122.016 74.0146 121.998 74.946C116.903 76.3891 112.082 72.024 108.428 68.7174C106.936 67.3635 105.523 66.086 104.366 65.4185C98.1055 61.8038 92.9472 63.4103 89.0328 70.1904C85.1183 76.9705 86.3075 82.2386 92.5683 85.8533C93.7245 86.5208 95.5374 87.106 97.4547 87.7237C102.147 89.2326 108.335 91.2241 109.635 96.3592C108.836 96.8425 108.01 97.2765 107.166 97.6627C106.656 93.8023 102.261 92.0676 96.6399 90.2594C94.5821 89.5975 92.6391 88.9711 91.236 88.161C86.849 85.6282 80.4337 79.7551 86.725 68.858C93.0164 57.961 101.312 60.578 105.699 63.1108C107.102 63.9209 108.616 65.2904 110.218 66.7416C114.594 70.7051 118.294 73.6444 121.892 72.1556Z" fill="var(--fill-0, white)"/>
</g>
</g>
</svg>
