<svg preserveAspectRatio="none" width="100%" height="100%" overflow="visible" style="display: block;" viewBox="0 0 285.562 126.23" fill="none" xmlns="http://www.w3.org/2000/svg">
<g id="Layer-3">
<g id="Vector">
<path d="M156.251 65.1455C151.555 67.8568 146.357 68.9042 141.333 68.4692C140.444 68.3948 139.562 68.2735 138.688 68.1038C131.678 66.7541 125.267 62.4829 121.417 55.8136C117.566 49.1443 117.073 41.457 119.408 34.7089C119.697 33.8678 120.034 33.043 120.414 32.2358C122.549 27.6677 126.055 23.6895 130.751 20.9782C135.447 18.2668 140.646 17.2194 145.669 17.6545C146.558 17.7288 147.442 17.8525 148.315 18.0221C155.325 19.3718 161.734 23.6443 165.584 30.3136C169.435 36.9829 169.929 44.6666 167.593 51.4124C167.304 52.2535 166.969 53.0807 166.589 53.8878C164.454 58.4559 160.947 62.4341 156.251 65.1455Z" fill="#88AA01"/>
<path d="M139.975 36.9545C135.39 39.6018 130.575 39.7905 125.261 37.5296C124.583 37.2408 123.923 36.8745 123.225 36.4866C122.12 35.8689 120.924 35.2029 119.408 34.7089C119.697 33.8678 120.034 33.043 120.414 32.2358C122.079 32.7972 123.383 33.5248 124.52 34.1573C125.186 34.5269 125.758 34.8459 126.304 35.0781C130.859 37.0145 134.78 36.8771 138.643 34.6467C142.506 32.4164 144.585 29.0897 145.186 24.1768C145.258 23.5875 145.267 22.9327 145.278 22.1728C145.299 20.8714 145.32 19.379 145.669 17.6545C146.558 17.7288 147.442 17.8525 148.315 18.0221C147.983 19.5833 147.964 20.9514 147.943 22.2158C147.93 23.014 147.919 23.768 147.83 24.4992C147.129 30.2335 144.56 34.3071 139.975 36.9545Z" fill="var(--fill-0, #DDDDDD)"/>
<path d="M167.593 51.4124C166.076 50.922 164.882 50.2548 163.776 49.6406C163.077 49.2504 162.419 48.8828 161.741 48.594C156.425 46.3344 151.613 46.5218 147.027 49.1692C142.442 51.8166 139.871 55.8914 139.172 61.6244C139.083 62.3556 139.07 63.1109 139.059 63.9115C139.04 65.1745 139.02 66.5462 138.688 68.1038C139.562 68.2735 140.444 68.3948 141.333 68.4692C141.68 66.7459 141.701 65.2535 141.722 63.9522C141.735 63.1909 141.746 62.5384 141.817 61.9468C142.417 57.0339 144.496 53.7072 148.36 51.4769C152.223 49.2465 156.143 49.1091 160.698 51.0455C161.246 51.28 161.818 51.5991 162.48 51.9676C163.617 52.6001 164.921 53.3278 166.589 53.8878L167.593 51.4124Z" fill="var(--fill-0, #DDDDDD)"/>
</g>
<g id="Vector_2">
<path d="M204 66.0611C204 71.4838 202.308 76.5095 199.419 80.6424C198.91 81.3752 198.364 82.0787 197.781 82.7502C193.107 88.1463 186.202 91.5624 178.501 91.5624C170.8 91.5624 163.896 88.1463 159.219 82.7502C158.636 82.0787 158.09 81.3752 157.581 80.6424C154.692 76.5095 153 71.4838 153 66.0611C153 60.6384 154.692 55.6128 157.581 51.4798C158.09 50.747 158.639 50.0435 159.222 49.372C163.896 43.9759 170.8 40.5624 178.501 40.5624C186.202 40.5624 193.104 43.9759 197.778 49.372C198.361 50.0435 198.91 50.747 199.419 51.4798C202.308 55.6128 204 60.6384 204 66.0611Z" fill="#88AA01"/>
<path d="M171.448 66.0611C171.448 71.3559 169.204 75.6194 164.589 79.0916C164 79.5339 163.352 79.923 162.668 80.3333C161.58 80.9809 160.405 81.6843 159.219 82.7502C158.636 82.0787 158.09 81.3752 157.581 80.6424C158.9 79.4806 160.181 78.7158 161.298 78.047C161.951 77.6553 162.513 77.3195 162.987 76.9625C166.942 73.986 168.783 70.5218 168.783 66.0611C168.783 61.6004 166.942 58.1362 162.987 55.1598C162.513 54.8027 161.951 54.4669 161.298 54.0779C160.181 53.409 158.9 52.6443 157.581 51.4798C158.09 50.747 158.639 50.0435 159.222 49.372C160.408 50.4405 161.583 51.1414 162.668 51.7916C163.352 52.2019 164 52.5883 164.589 53.0307C169.204 56.5054 171.448 60.7663 171.448 66.0611Z" fill="var(--fill-0, #DDDDDD)"/>
<path d="M197.778 49.372C196.595 50.4405 195.42 51.1414 194.335 51.7916C193.648 52.2019 193 52.5883 192.411 53.0307C187.796 56.5054 185.552 60.7663 185.552 66.0611C185.552 71.3559 187.796 75.6194 192.411 79.0916C193 79.5339 193.648 79.923 194.335 80.3333C195.42 80.9809 196.597 81.6843 197.781 82.7502C198.364 82.0787 198.91 81.3752 199.419 80.6424C198.1 79.4806 196.819 78.7158 195.702 78.047C195.049 77.6553 194.49 77.3195 194.013 76.9625C190.058 73.986 188.217 70.5218 188.217 66.0611C188.217 61.6004 190.058 58.1362 194.013 55.1598C194.49 54.8027 195.052 54.4669 195.702 54.0779C196.819 53.409 198.1 52.6443 199.419 51.4798L197.778 49.372Z" fill="var(--fill-0, #DDDDDD)"/>
</g>
<g id="Vector_3">
<path d="M260 86.0611C260 91.4838 258.308 96.5095 255.419 100.642C254.91 101.375 254.364 102.079 253.781 102.75C249.107 108.146 242.202 111.562 234.501 111.562C226.8 111.562 219.896 108.146 215.219 102.75C214.636 102.079 214.09 101.375 213.581 100.642C210.692 96.5095 209 91.4838 209 86.0611C209 80.6384 210.692 75.6128 213.581 71.4798C214.09 70.747 214.639 70.0435 215.222 69.372C219.896 63.9759 226.8 60.5624 234.501 60.5624C242.202 60.5624 249.104 63.9759 253.778 69.372C254.361 70.0435 254.91 70.747 255.419 71.4798C258.308 75.6128 260 80.6384 260 86.0611Z" fill="#88AA01"/>
<path d="M227.448 86.0611C227.448 91.3559 225.204 95.6194 220.589 99.0916C220 99.5339 219.352 99.923 218.668 100.333C217.58 100.981 216.405 101.684 215.219 102.75C214.636 102.079 214.09 101.375 213.581 100.642C214.9 99.4806 216.181 98.7158 217.298 98.047C217.951 97.6553 218.513 97.3195 218.987 96.9625C222.942 93.986 224.783 90.5218 224.783 86.0611C224.783 81.6004 222.942 78.1362 218.987 75.1598C218.513 74.8027 217.951 74.4669 217.298 74.0779C216.181 73.409 214.9 72.6443 213.581 71.4798C214.09 70.747 214.639 70.0435 215.222 69.372C216.408 70.4405 217.583 71.1414 218.668 71.7916C219.352 72.2019 220 72.5883 220.589 73.0307C225.204 76.5054 227.448 80.7663 227.448 86.0611Z" fill="var(--fill-0, #DDDDDD)"/>
<path d="M253.778 69.372C252.595 70.4405 251.42 71.1414 250.335 71.7916C249.648 72.2019 249 72.5883 248.411 73.0307C243.796 76.5054 241.552 80.7663 241.552 86.0611C241.552 91.3559 243.796 95.6194 248.411 99.0916C249 99.5339 249.648 99.923 250.335 100.333C251.42 100.981 252.597 101.684 253.781 102.75C254.364 102.079 254.91 101.375 255.419 100.642C254.1 99.4806 252.819 98.7158 251.702 98.047C251.049 97.6553 250.49 97.3195 250.013 96.9625C246.058 93.986 244.217 90.5218 244.217 86.0611C244.217 81.6004 246.058 78.1362 250.013 75.1598C250.49 74.8027 251.052 74.4669 251.702 74.0779C252.819 73.409 254.1 72.6443 255.419 71.4798L253.778 69.372Z" fill="var(--fill-0, #DDDDDD)"/>
</g>
<g id="Vector_4">
<path d="M267.53 18.0303C271.365 21.8647 273.722 26.6149 274.602 31.5798C274.76 32.4579 274.871 33.3416 274.933 34.2291C275.444 41.3496 272.978 48.6473 267.532 54.0927C262.087 59.5382 254.789 62.0046 247.667 61.4959C246.779 61.4337 245.895 61.3226 245.017 61.1643C240.052 60.2843 235.302 57.9272 231.468 54.0927C227.633 50.2583 225.276 45.5081 224.396 40.5432C224.238 39.6651 224.129 38.7795 224.067 37.892C223.556 30.7715 226.024 23.4757 231.47 18.0303C236.915 12.5848 244.209 10.1184 251.33 10.629C252.217 10.6912 253.103 10.8005 253.981 10.9587C258.946 11.8387 263.696 14.1959 267.53 18.0303Z" fill="#88AA01"/>
<path d="M244.512 41.0481C248.256 44.7921 249.685 49.3934 248.876 55.1121C248.773 55.8413 248.59 56.5743 248.396 57.3487C248.085 58.5753 247.751 59.9037 247.667 61.4959C246.779 61.4337 245.895 61.3226 245.017 61.1643C245.129 59.41 245.494 57.963 245.811 56.7005C245.995 55.9619 246.155 55.3269 246.238 54.739C246.93 49.8381 245.782 46.0866 242.628 42.9324C239.474 39.7782 235.722 38.6307 230.822 39.3222C230.234 39.4051 229.599 39.5652 228.862 39.7518C227.599 40.0683 226.152 40.4339 224.396 40.5432C224.238 39.6651 224.129 38.7795 224.067 37.892C225.661 37.8091 226.987 37.4737 228.214 37.1666C228.988 36.9725 229.719 36.7879 230.448 36.6842C236.169 35.8778 240.768 37.3042 244.512 41.0481Z" fill="var(--fill-0, #DDDDDD)"/>
<path d="M251.33 10.629C251.249 12.2212 250.913 13.5477 250.606 14.7743C250.41 15.5506 250.225 16.2817 250.122 17.0109C249.315 22.7315 250.742 27.3309 254.486 31.0749C258.23 34.8188 262.831 36.2471 268.55 35.4388C269.279 35.3351 270.012 35.1524 270.788 34.9564C272.013 34.6474 273.343 34.312 274.933 34.2291C274.871 33.3416 274.76 32.4579 274.602 31.5798C272.848 31.691 271.401 32.0566 270.138 32.3731C269.399 32.5578 268.766 32.716 268.177 32.8008C263.276 33.4923 259.524 32.3448 256.37 29.1906C253.216 26.0364 252.068 22.2849 252.76 17.384C252.845 16.7942 253.005 16.1592 253.189 15.4244C253.506 14.1619 253.871 12.7148 253.981 10.9587L251.33 10.629Z" fill="var(--fill-0, #DDDDDD)"/>
</g>
<g id="Vector_5">
<path d="M47.5848 53.3131C55.0295 57.6112 59.4856 65.0979 60.2259 73.0515C60.3124 73.9783 60.3495 74.9106 60.3318 75.8419C60.2629 80.0329 59.159 84.2633 56.9166 88.1472C54.6743 92.0311 51.5626 95.1023 47.9689 97.2552C47.1698 97.7385 46.3439 98.1724 45.4994 98.5586C38.2398 101.897 29.5295 101.779 22.0848 97.4803C9.88854 90.4388 5.70782 74.8434 12.7493 62.6472C19.7908 50.4509 35.3885 46.2715 47.5848 53.3131Z" fill="#88AA01"/>
<path d="M60.2259 73.0515C60.3124 73.9783 60.3495 74.9106 60.3318 75.8419C55.237 77.2851 50.4157 72.9199 46.7616 69.6133C45.2694 68.2595 43.8562 66.982 42.7 66.3145C36.4392 62.6998 31.2808 64.3063 27.3664 71.0863C23.4519 77.8664 24.6411 83.1346 30.902 86.7493C32.0581 87.4168 33.8711 88.0019 35.7883 88.6196C40.4803 90.1285 46.669 92.12 47.9689 97.2552C47.1698 97.7385 46.3439 98.1724 45.4994 98.5586C44.9897 94.6982 40.5942 92.9636 34.9735 91.1554C32.9157 90.4934 30.9727 89.867 29.5696 89.057C25.1826 86.5242 18.7673 80.651 25.0587 69.754C31.3501 58.857 39.6454 61.474 44.0323 64.0068C45.4354 64.8168 46.9494 66.1863 48.5516 67.6375C52.9279 71.6011 56.6279 74.5403 60.2259 73.0515Z" fill="var(--fill-0, #DDDDDD)"/>
</g>
<g id="Vector_6">
<path d="M96.5848 69.3131C104.029 73.6112 108.486 81.0979 109.226 89.0515C109.312 89.9783 109.35 90.9106 109.332 91.8419C109.263 96.0329 108.159 100.263 105.917 104.147C103.674 108.031 100.563 111.102 96.9689 113.255C96.1698 113.738 95.3439 114.172 94.4994 114.559C87.2398 117.897 78.5295 117.779 71.0848 113.48C58.8885 106.439 54.7078 90.8434 61.7493 78.6472C68.7908 66.4509 84.3885 62.2715 96.5848 69.3131Z" fill="#88AA01"/>
<path d="M109.226 89.0515C109.312 89.9783 109.35 90.9106 109.332 91.8419C104.237 93.2851 99.4157 88.9199 95.7616 85.6133C94.2694 84.2595 92.8562 82.982 91.7 82.3145C85.4392 78.6998 80.2808 80.3063 76.3664 87.0863C72.4519 93.8664 73.6411 99.1346 79.902 102.749C81.0581 103.417 82.8711 104.002 84.7883 104.62C89.4803 106.129 95.669 108.12 96.9689 113.255C96.1698 113.738 95.3439 114.172 94.4994 114.559C93.9897 110.698 89.5942 108.964 83.9735 107.155C81.9157 106.493 79.9727 105.867 78.5696 105.057C74.1826 102.524 67.7673 96.651 74.0587 85.754C80.3501 74.857 88.6454 77.474 93.0323 80.0068C94.4354 80.8168 95.9494 82.1863 97.5516 83.6375C101.928 87.6011 105.628 90.5403 109.226 89.0515Z" fill="var(--fill-0, #DDDDDD)"/>
</g>
</g>
</svg>
