<svg preserveAspectRatio="none" width="100%" height="100%" overflow="visible" style="display: block;" viewBox="0 0 240.458 161.731" fill="none" xmlns="http://www.w3.org/2000/svg">
<g id="Layer-2">
<g id="Vector">
<path d="M102.435 155.131C97.1969 156.534 91.9045 156.201 87.1648 154.48C86.3252 154.178 85.5043 153.833 84.7047 153.443C78.2828 150.325 73.1961 144.54 71.2029 137.101C69.2097 129.663 70.7225 122.109 74.7243 116.196C75.2219 115.458 75.76 114.748 76.3361 114.067C79.5807 110.207 83.9971 107.272 89.235 105.869C94.473 104.465 99.7653 104.799 104.505 106.519C105.345 106.821 106.166 107.169 106.966 107.559C113.388 110.677 118.472 116.463 120.465 123.901C122.458 131.34 120.947 138.89 116.945 144.801C116.447 145.539 115.91 146.251 115.334 146.932C112.089 150.792 107.673 153.727 102.435 155.131Z" fill="#BDEC00"/>
<path d="M94.0097 123.688C88.8953 125.058 84.1963 123.994 79.648 120.435C79.0683 119.981 78.5249 119.456 77.9513 118.901C77.0444 118.018 76.0608 117.065 74.7243 116.196C75.2219 115.458 75.76 114.748 76.3361 114.067C77.7997 115.04 78.8702 116.081 79.8052 116.986C80.3526 117.515 80.8224 117.971 81.2901 118.337C85.1886 121.386 89.0113 122.268 93.32 121.114C97.6288 119.959 100.498 117.284 102.35 112.694C102.572 112.144 102.751 111.514 102.958 110.782C103.315 109.531 103.722 108.095 104.505 106.519C105.345 106.821 106.166 107.169 106.966 107.559C106.241 108.981 105.868 110.298 105.521 111.514C105.301 112.281 105.096 113.007 104.821 113.69C102.659 119.047 99.1241 122.317 94.0097 123.688Z" fill="var(--fill-0, white)"/>
<path d="M116.945 144.801C115.607 143.935 114.625 142.981 113.717 142.102C113.142 141.544 112.602 141.019 112.022 140.564C107.471 137.006 102.775 135.941 97.6602 137.312C92.5458 138.682 89.0082 141.953 86.8489 147.309C86.5741 147.993 86.3659 148.719 86.1474 149.489C85.8027 150.704 85.428 152.024 84.7047 153.443C85.5043 153.833 86.3252 154.178 87.1648 154.48C87.9456 152.905 88.3526 151.469 88.7097 150.218C88.9191 149.486 89.0985 148.858 89.32 148.305C91.1716 143.715 94.0411 141.04 98.3498 139.885C102.659 138.731 106.481 139.613 110.38 142.662C110.848 143.031 111.318 143.487 111.862 144.014C112.797 144.919 113.868 145.96 115.334 146.932L116.945 144.801Z" fill="var(--fill-0, white)"/>
</g>
<g id="Vector_2">
<path d="M56.9166 75.7489C59.628 80.4451 60.6754 85.6435 60.2403 90.667C60.166 91.5561 60.0446 92.4385 59.875 93.3118C58.5253 100.322 54.2541 106.732 47.5848 110.583C40.9155 114.434 33.2282 114.927 26.4801 112.592C25.6389 112.303 24.8141 111.966 24.007 111.586C19.4389 109.451 15.4607 105.945 12.7493 101.249C10.038 96.5527 8.99056 91.3543 9.42563 86.3308C9.5 85.4417 9.62365 84.558 9.79328 83.6846C11.143 76.6745 15.4155 70.2662 22.0848 66.4157C28.7541 62.5652 36.4378 62.0706 43.1836 64.4067C44.0247 64.6965 44.8518 65.0313 45.659 65.4114C50.2271 67.5464 54.2053 71.0527 56.9166 75.7489Z" fill="#BDEC00"/>
<path d="M28.7256 92.025C31.373 96.6104 31.5617 101.425 29.3008 106.739C29.012 107.417 28.6457 108.077 28.2578 108.775C27.64 109.88 26.9741 111.076 26.4801 112.592C25.6389 112.303 24.8141 111.966 24.007 111.586C24.5684 109.921 25.296 108.617 25.9285 107.48C26.298 106.814 26.6171 106.242 26.8493 105.696C28.7857 101.141 28.6483 97.2204 26.4179 93.3573C24.1875 89.4942 20.8608 87.4148 15.948 86.8143C15.3587 86.7423 14.7038 86.7326 13.9439 86.7221C12.6426 86.7012 11.1502 86.6797 9.42563 86.3308C9.5 85.4417 9.62365 84.558 9.79328 83.6846C11.3545 84.0171 12.7226 84.0365 13.9869 84.0573C14.7852 84.0703 15.5392 84.0811 16.2703 84.1697C22.0047 84.8714 26.0782 87.4395 28.7256 92.025Z" fill="var(--fill-0, white)"/>
<path d="M43.1836 64.4067C42.6932 65.9237 42.0259 67.1182 41.4118 68.2235C41.0216 68.9227 40.654 69.5811 40.3652 70.2586C38.1056 75.5755 38.2929 80.3874 40.9403 84.9728C43.5877 89.5582 47.6626 92.1287 53.3956 92.828C54.1268 92.9166 54.8821 92.9298 55.6827 92.9414C56.9457 92.9599 58.3174 92.9803 59.875 93.3118C60.0446 92.4385 60.166 91.5561 60.2403 90.667C58.5171 90.3204 57.0247 90.2989 55.7234 90.2779C54.9621 90.2651 54.3096 90.2541 53.718 90.1834C48.8051 89.5829 45.4784 87.5035 43.2481 83.6404C41.0177 79.7773 40.8802 75.8566 42.8166 71.3017C43.0512 70.754 43.3702 70.1821 43.7388 69.5201C44.3713 68.3826 45.0989 67.0794 45.659 65.4114L43.1836 64.4067Z" fill="var(--fill-0, white)"/>
</g>
<g id="Vector_3">
<path d="M140.334 25.5013C140.334 34.0977 136.078 41.7001 129.56 46.3181C128.801 46.8564 128.012 47.3547 127.197 47.805C123.533 49.8408 119.317 51 114.832 51C110.348 51 106.132 49.8408 102.471 47.805C101.653 47.3547 100.864 46.8564 100.107 46.3181C93.5865 41.7001 89.3336 34.0977 89.3336 25.5013C89.3336 11.4183 100.749 0 114.832 0C128.915 0 140.334 11.4183 140.334 25.5013Z" fill="#BDEC00"/>
<path d="M129.56 46.3181C128.801 46.8564 128.012 47.3547 127.197 47.805C123.399 44.1144 124.769 37.7564 125.806 32.9386C126.232 30.9693 126.632 29.1067 126.632 27.7717C126.632 20.5423 122.661 16.8783 114.832 16.8783C107.003 16.8783 103.036 20.5423 103.036 27.7717C103.036 29.1067 103.435 30.9693 103.859 32.9386C104.898 37.7564 106.268 44.1117 102.471 47.805C101.653 47.3547 100.864 46.8564 100.107 46.3181C103.195 43.9465 102.5 39.2726 101.256 33.5008C100.8 31.3877 100.371 29.3918 100.371 27.7717C100.371 22.706 102.249 14.2136 114.832 14.2136C127.415 14.2136 129.296 22.706 129.296 27.7717C129.296 29.3918 128.867 31.3877 128.412 33.5008C127.167 39.2726 126.472 43.9465 129.56 46.3181Z" fill="var(--fill-0, white)"/>
</g>
<g id="Vector_4">
<path d="M222.428 131.093C218.594 134.927 213.844 137.284 208.879 138.164C208.001 138.323 207.117 138.434 206.229 138.496C199.109 139.007 191.811 136.54 186.366 131.095C180.92 125.649 178.454 118.352 178.963 111.229C179.025 110.342 179.136 109.458 179.294 108.58C180.174 103.615 182.531 98.8647 186.366 95.0303C190.2 91.1959 194.95 88.8387 199.915 87.9587C200.793 87.8005 201.679 87.6912 202.566 87.629C209.687 87.1184 216.983 89.5867 222.428 95.0322C227.874 100.478 230.34 107.772 229.83 114.892C229.767 115.78 229.658 116.665 229.5 117.543C228.62 122.508 226.263 127.258 222.428 131.093Z" fill="#BDEC00"/>
<path d="M199.41 108.075C195.666 111.819 191.065 113.247 185.346 112.439C184.617 112.335 183.884 112.152 183.11 111.958C181.883 111.647 180.555 111.314 178.963 111.229C179.025 110.342 179.136 109.458 179.294 108.58C181.048 108.691 182.496 109.057 183.758 109.373C184.497 109.558 185.132 109.718 185.719 109.801C190.62 110.492 194.372 109.345 197.526 106.191C200.68 103.036 201.828 99.2849 201.136 94.384C201.053 93.7961 200.893 93.1611 200.707 92.4244C200.39 91.1619 200.025 89.7148 199.915 87.9587C200.793 87.8005 201.679 87.6912 202.566 87.629C202.649 89.2231 202.985 90.5496 203.292 91.7762C203.486 92.5506 203.671 93.2817 203.774 94.0109C204.581 99.7315 203.154 104.331 199.41 108.075Z" fill="var(--fill-0, white)"/>
<path d="M229.83 114.892C228.237 114.811 226.911 114.476 225.684 114.168C224.908 113.973 224.177 113.788 223.448 113.684C217.727 112.878 213.128 114.304 209.384 118.048C205.64 121.792 204.211 126.393 205.02 132.112C205.123 132.841 205.306 133.574 205.502 134.351C205.811 135.575 206.147 136.906 206.229 138.496C207.117 138.434 208.001 138.323 208.879 138.164C208.767 136.41 208.402 134.963 208.085 133.701C207.901 132.962 207.742 132.329 207.658 131.739C206.966 126.838 208.114 123.087 211.268 119.932C214.422 116.778 218.174 115.631 223.075 116.322C223.664 116.407 224.299 116.567 225.034 116.752C226.297 117.068 227.744 117.434 229.5 117.543L229.83 114.892Z" fill="var(--fill-0, white)"/>
</g>
</g>
</svg>
