<svg preserveAspectRatio="none" width="100%" height="100%" overflow="visible" style="display: block;" viewBox="0 0 259.562 440.125" fill="none" xmlns="http://www.w3.org/2000/svg">
<g id="Balls in air">
<g id="Vector">
<path d="M151 378.499C151 383.921 149.308 388.947 146.419 393.08C145.91 393.813 145.364 394.516 144.781 395.188C140.107 400.584 133.202 404 125.501 404C117.8 404 110.896 400.584 106.219 395.188C105.636 394.516 105.09 393.813 104.581 393.08C101.692 388.947 100 383.921 100 378.499C100 373.076 101.692 368.05 104.581 363.917C105.09 363.185 105.639 362.481 106.222 361.81C110.896 356.414 117.8 353 125.501 353C133.202 353 140.104 356.414 144.778 361.81C145.361 362.481 145.91 363.185 146.419 363.917C149.308 368.05 151 373.076 151 378.499Z" fill="#C7F900"/>
<path d="M118.448 378.499C118.448 383.793 116.204 388.057 111.589 391.529C111 391.971 110.352 392.361 109.668 392.771C108.58 393.418 107.405 394.122 106.219 395.188C105.636 394.516 105.09 393.813 104.581 393.08C105.9 391.918 107.181 391.153 108.298 390.485C108.951 390.093 109.513 389.757 109.987 389.4C113.942 386.424 115.783 382.959 115.783 378.499C115.783 374.038 113.942 370.574 109.987 367.597C109.513 367.24 108.951 366.904 108.298 366.515C107.181 365.847 105.9 365.082 104.581 363.917C105.09 363.185 105.639 362.481 106.222 361.81C107.408 362.878 108.583 363.579 109.668 364.229C110.352 364.639 111 365.026 111.589 365.468C116.204 368.943 118.448 373.204 118.448 378.499Z" fill="var(--fill-0, white)"/>
<path d="M144.778 361.81C143.595 362.878 142.42 363.579 141.335 364.229C140.648 364.639 140 365.026 139.411 365.468C134.796 368.943 132.552 373.204 132.552 378.499C132.552 383.793 134.796 388.057 139.411 391.529C140 391.971 140.648 392.361 141.335 392.771C142.42 393.418 143.597 394.122 144.781 395.188C145.364 394.516 145.91 393.813 146.419 393.08C145.1 391.918 143.819 391.153 142.702 390.485C142.049 390.093 141.49 389.757 141.013 389.4C137.058 386.424 135.217 382.959 135.217 378.499C135.217 374.038 137.058 370.574 141.013 367.597C141.49 367.24 142.052 366.904 142.702 366.515C143.819 365.847 145.1 365.082 146.419 363.917L144.778 361.81Z" fill="var(--fill-0, white)"/>
</g>
<g id="Vector_2">
<path d="M47.5825 158.749C52.2787 161.461 55.785 165.439 57.92 170.007C58.3001 170.814 58.6362 171.639 58.926 172.48C61.2621 179.226 60.7685 186.913 56.918 193.582C53.0674 200.252 46.6568 204.523 39.6454 205.875C38.7721 206.045 37.8897 206.166 37.0006 206.24C31.9771 206.675 26.7787 205.628 22.0825 202.917C17.3863 200.205 13.88 196.227 11.745 191.659C11.3649 190.852 11.0301 190.025 10.7404 189.184C8.40419 182.438 8.90015 174.752 12.7507 168.082C16.6012 161.413 23.0082 157.143 30.0182 155.793C30.8916 155.624 31.7753 155.5 32.6644 155.426C37.6879 154.991 42.8863 156.038 47.5825 158.749Z" fill="#C7F900"/>
<path d="M31.3064 186.94C35.8918 189.588 38.4623 193.663 39.1616 199.396C39.2503 200.127 39.2634 200.882 39.2764 201.68C39.2936 202.946 39.3152 204.315 39.6454 205.875C38.7721 206.045 37.8897 206.166 37.0006 206.24C36.654 204.517 36.6325 203.025 36.6115 201.723C36.5987 200.962 36.5891 200.307 36.517 199.718C35.9165 194.805 33.8372 191.478 29.9741 189.248C26.1109 187.018 22.1903 186.88 17.6353 188.817C17.0889 189.049 16.517 189.368 15.8537 189.739C14.7162 190.371 13.413 191.099 11.745 191.659C11.3649 190.852 11.0301 190.025 10.7404 189.184C12.2586 188.691 13.4531 188.024 14.5585 187.409C15.2563 187.022 15.9147 186.654 16.5922 186.365C21.9091 184.106 26.721 184.293 31.3064 186.94Z" fill="var(--fill-0, white)"/>
<path d="M30.0182 155.793C30.3521 157.352 30.3714 158.72 30.3922 159.985C30.4039 160.785 30.4147 161.539 30.5034 162.27C31.205 168.005 33.7732 172.078 38.3586 174.726C42.944 177.373 47.7582 177.562 53.0728 175.301C53.7503 175.012 54.411 174.646 55.1101 174.256C56.2132 173.64 57.4113 172.972 58.926 172.48C58.6362 171.639 58.3001 170.814 57.92 170.007C56.2543 170.568 54.9511 171.296 53.8136 171.928C53.148 172.298 52.5774 172.615 52.0297 172.849C47.4747 174.786 43.554 174.648 39.6909 172.418C35.8278 170.188 33.7485 166.861 33.148 161.948C33.0772 161.356 33.0676 160.702 33.0557 159.944C33.0348 158.643 33.0133 157.15 32.6644 155.426L30.0182 155.793Z" fill="var(--fill-0, white)"/>
</g>
<g id="Vector_3">
<path d="M241.532 113.53C237.698 117.365 232.948 119.722 227.983 120.602C227.105 120.76 226.221 120.871 225.333 120.933C218.213 121.444 210.915 118.978 205.47 113.532C200.024 108.087 197.558 100.789 198.067 93.6666C198.129 92.7792 198.24 91.8955 198.398 91.0174C199.278 86.0524 201.635 81.3023 205.47 77.4678C209.304 73.6334 214.054 71.2762 219.019 70.3963C219.897 70.238 220.783 70.1287 221.67 70.0666C228.791 69.5559 236.087 72.0243 241.532 77.4697C246.978 82.9152 249.444 90.2091 248.933 97.3296C248.871 98.2171 248.762 99.1027 248.604 99.9807C247.724 104.946 245.367 109.696 241.532 113.53Z" fill="#C7F900"/>
<path d="M218.514 90.5124C214.77 94.2564 210.169 95.6847 204.45 94.8763C203.721 94.7727 202.988 94.5899 202.214 94.3958C200.987 94.0849 199.659 93.7514 198.067 93.6666C198.129 92.7792 198.24 91.8955 198.398 91.0174C200.152 91.1286 201.599 91.4941 202.862 91.8107C203.601 91.9953 204.236 92.1555 204.823 92.2384C209.724 92.9299 213.476 91.7824 216.63 88.6282C219.784 85.474 220.932 81.7225 220.24 76.8215C220.157 76.2337 219.997 75.5987 219.811 74.8619C219.494 73.5995 219.129 72.1524 219.019 70.3963C219.897 70.238 220.783 70.1287 221.67 70.0666C221.753 71.6606 222.089 72.9871 222.396 74.2138C222.59 74.9882 222.775 75.7193 222.878 76.4485C223.685 82.169 222.258 86.7684 218.514 90.5124Z" fill="var(--fill-0, white)"/>
<path d="M248.933 97.3296C247.341 97.2486 246.015 96.9132 244.788 96.6061C244.012 96.4101 243.281 96.2254 242.552 96.1218C236.831 95.3153 232.232 96.7417 228.488 100.486C224.744 104.23 223.315 108.831 224.124 114.55C224.227 115.279 224.41 116.012 224.606 116.788C224.915 118.013 225.25 119.343 225.333 120.933C226.221 120.871 227.105 120.76 227.983 120.602C227.871 118.848 227.506 117.401 227.189 116.138C227.005 115.399 226.846 114.766 226.762 114.177C226.07 109.276 227.218 105.524 230.372 102.37C233.526 99.2157 237.278 98.0682 242.178 98.7597C242.768 98.8445 243.403 99.0047 244.138 99.1893C245.401 99.5059 246.848 99.8714 248.604 99.9807L248.933 97.3296Z" fill="var(--fill-0, white)"/>
</g>
<g id="Vector_4">
<path d="M239.095 422.093C235.26 425.927 230.51 428.284 225.545 429.164C224.667 429.323 223.783 429.434 222.896 429.496C215.775 430.007 208.478 427.54 203.032 422.095C197.587 416.649 195.12 409.352 195.629 402.229C195.691 401.342 195.802 400.458 195.961 399.58C196.841 394.615 199.198 389.865 203.032 386.03C206.867 382.196 211.617 379.839 216.582 378.959C217.46 378.8 218.345 378.691 219.233 378.629C226.353 378.118 233.649 380.587 239.095 386.032C244.54 391.478 247.007 398.772 246.496 405.892C246.434 406.78 246.324 407.665 246.166 408.543C245.286 413.508 242.929 418.258 239.095 422.093Z" fill="#C7F900"/>
<path d="M216.077 399.075C212.333 402.819 207.731 404.247 202.013 403.439C201.284 403.335 200.551 403.152 199.776 402.958C198.55 402.647 197.221 402.314 195.629 402.229C195.691 401.342 195.802 400.458 195.961 399.58C197.715 399.691 199.162 400.057 200.424 400.373C201.163 400.558 201.798 400.718 202.386 400.801C207.287 401.492 211.038 400.345 214.193 397.191C217.347 394.036 218.494 390.285 217.803 385.384C217.72 384.796 217.56 384.161 217.373 383.424C217.057 382.162 216.691 380.715 216.582 378.959C217.46 378.8 218.345 378.691 219.233 378.629C219.316 380.223 219.651 381.55 219.958 382.776C220.152 383.551 220.337 384.282 220.441 385.011C221.247 390.731 219.821 395.331 216.077 399.075Z" fill="var(--fill-0, white)"/>
<path d="M246.496 405.892C244.904 405.811 243.577 405.476 242.351 405.168C241.574 404.973 240.843 404.788 240.114 404.684C234.393 403.878 229.794 405.304 226.05 409.048C222.306 412.792 220.878 417.393 221.686 423.112C221.79 423.841 221.973 424.574 222.168 425.351C222.478 426.575 222.813 427.906 222.896 429.496C223.783 429.434 224.667 429.323 225.545 429.164C225.434 427.41 225.068 425.963 224.752 424.701C224.567 423.962 224.409 423.329 224.324 422.739C223.633 417.838 224.78 414.087 227.934 410.932C231.088 407.778 234.84 406.631 239.741 407.322C240.331 407.407 240.966 407.567 241.701 407.752C242.963 408.068 244.41 408.434 246.166 408.543L246.496 405.892Z" fill="var(--fill-0, white)"/>
</g>
<g id="Vector_5">
<path d="M153.095 54.0927C149.26 57.9272 144.51 60.2843 139.545 61.1643C138.667 61.3225 137.783 61.4337 136.896 61.4959C129.775 62.0065 122.478 59.5401 117.032 54.0946C111.587 48.6492 109.12 41.3515 109.629 34.2291C109.691 33.3416 109.802 32.4579 109.961 31.5798C110.841 26.6149 113.198 21.8647 117.032 18.0303C120.867 14.1959 125.617 11.8387 130.582 10.9587C131.46 10.8005 132.345 10.6912 133.233 10.629C140.353 10.1184 147.649 12.5867 153.095 18.0322C158.54 23.4776 161.007 30.7715 160.496 37.892C160.434 38.7795 160.324 39.6651 160.166 40.5432C159.286 45.5081 156.929 50.2583 153.095 54.0927Z" fill="#C7F900"/>
<path d="M130.077 31.0749C126.333 34.8188 121.731 36.2471 116.013 35.4388C115.284 35.3351 114.551 35.1524 113.776 34.9583C112.55 34.6474 111.221 34.3139 109.629 34.2291C109.691 33.3416 109.802 32.4579 109.961 31.5798C111.715 31.691 113.162 32.0566 114.424 32.3731C115.163 32.5578 115.798 32.7179 116.386 32.8008C121.287 33.4923 125.038 32.3448 128.193 29.1906C131.347 26.0364 132.494 22.2849 131.803 17.384C131.72 16.7961 131.56 16.1611 131.373 15.4244C131.057 14.1619 130.691 12.7148 130.582 10.9587C131.46 10.8005 132.345 10.6912 133.233 10.629C133.316 12.2231 133.651 13.5496 133.958 14.7762C134.152 15.5506 134.337 16.2817 134.441 17.0109C135.247 22.7315 133.821 27.3309 130.077 31.0749Z" fill="var(--fill-0, white)"/>
<path d="M160.496 37.892C158.904 37.811 157.577 37.4756 156.351 37.1685C155.574 36.9725 154.843 36.7879 154.114 36.6842C148.393 35.8778 143.794 37.3042 140.05 41.0481C136.306 44.7921 134.878 49.3934 135.686 55.1121C135.79 55.8413 135.973 56.5743 136.168 57.3506C136.478 58.5753 136.813 59.9056 136.896 61.4959C137.783 61.4337 138.667 61.3225 139.545 61.1643C139.434 59.41 139.068 57.963 138.752 56.7005C138.567 55.9619 138.409 55.3288 138.324 54.739C137.633 49.8381 138.78 46.0866 141.934 42.9324C145.088 39.7782 148.84 38.6307 153.741 39.3222C154.331 39.407 154.966 39.5671 155.701 39.7518C156.963 40.0683 158.41 40.4339 160.166 40.5432L160.496 37.892Z" fill="var(--fill-0, white)"/>
</g>
</g>
</svg>
