<svg viewBox="0 0 89.647 89.647" fill="none" xmlns="http://www.w3.org/2000/svg">
  <path d="M89.6474 44.8214C89.6474 54.3533 86.6731 63.1874 81.5956 70.4523C80.7009 71.7404 79.7407 72.977 78.7149 74.1574C70.4991 83.6425 58.3629 89.6474 44.826 89.6474C31.2892 89.6474 19.1529 83.6425 10.9325 74.1574C9.9067 72.977 8.94647 71.7404 8.05183 70.4523C2.97435 63.1874 0 54.3533 0 44.8214C0 35.2894 2.97435 26.4553 8.05183 19.1904C8.94647 17.9023 9.91138 16.6657 10.9372 15.4854C19.1529 6.00023 31.2892 0 44.826 0C58.3629 0 70.4945 6.00023 78.7102 15.4854C79.736 16.6657 80.7009 17.9023 81.5956 19.1904C86.6731 26.4553 89.6474 35.2894 89.6474 44.8214Z" fill="#C7F900"/>
  <path d="M32.4275 44.8214C32.4275 54.1285 28.4835 61.6229 20.3708 67.7262C19.3356 68.5038 18.1974 69.1876 16.9936 69.909C15.0825 71.0472 13.0169 72.2838 10.9325 74.1574C9.9067 72.977 8.94647 71.7404 8.05183 70.4523C10.3704 68.4101 12.6234 67.0658 14.586 65.8901C15.7336 65.2015 16.7219 64.6113 17.5557 63.9837C24.5068 58.7516 27.7434 52.6624 27.7434 44.8214C27.7434 36.9803 24.5068 30.8911 17.5557 25.659C16.7219 25.0314 15.7336 24.4412 14.586 23.7573C12.6234 22.5816 10.3704 21.2373 8.05183 19.1904C8.94647 17.9023 9.91138 16.6657 10.9372 15.4854C13.0216 17.3637 15.0872 18.5955 16.9936 19.7384C18.1974 20.4598 19.3356 21.139 20.3708 21.9165C28.4835 28.0245 32.4275 35.5142 32.4275 44.8214Z" fill="#fff"/>
  <path d="M78.7102 15.4854C76.6305 17.3637 74.5649 18.5955 72.6585 19.7384C71.45 20.4598 70.3118 21.139 69.2766 21.9165C61.1639 28.0245 57.22 35.5142 57.22 44.8214C57.22 54.1285 61.1639 61.6229 69.2766 67.7262C70.3118 68.5038 71.45 69.1876 72.6585 69.909C74.5649 71.0472 76.6352 72.2838 78.7149 74.1574C79.7407 72.977 80.7009 71.7404 81.5956 70.4523C79.277 68.4101 77.024 67.0658 75.0614 65.8901C73.9138 65.2015 72.9302 64.6113 72.0917 63.9837C65.1406 58.7516 61.904 52.6624 61.904 44.8214C61.904 36.9803 65.1406 30.8911 72.0917 25.659C72.9302 25.0314 73.9185 24.4412 75.0614 23.7573C77.024 22.5816 79.277 21.2373 81.5956 19.1904L78.7102 15.4854Z" fill="#fff"/>
</svg>
