<svg preserveAspectRatio="none" width="100%" height="100%" overflow="visible" style="display: block;" viewBox="0 0 347.326 276.25" fill="none" xmlns="http://www.w3.org/2000/svg">
<g id="Basket-back">
<g id="Group">
<path id="Vector" d="M112.529 54.2636L96.5221 49.9909V222.941L112.529 227.214V54.2636Z" fill="var(--fill-0, black)"/>
<path id="Vector_2" d="M121.619 49.0001L112.529 54.2545V227.214L121.619 221.959V49.0001Z" fill="var(--fill-0, #58687E)"/>
</g>
<path id="Vector_3" d="M125.941 43.5718L0.5 116.043V275.384L125.941 202.913V43.5718Z" fill="var(--fill-0, #064420)" stroke="var(--stroke-0, black)"/>
<path id="Vector_4" d="M346.826 102.543L125.941 43.5718V202.777L346.826 261.748V102.543Z" fill="var(--fill-0, #064420)" stroke="var(--stroke-0, black)"/>
<path id="Vector 7" d="M125.522 171.5V82.5001L158.522 52.5001L81.5221 41.0001L105.022 56.0001L4.02209 114.5L125.522 171.5Z" fill="var(--fill-0, black)" fill-opacity="0.5"/>
<path id="Vector_5" d="M128.28 32.0356L74.5221 17.6814V49.5443L128.28 63.8984V32.0356Z" fill="var(--fill-0, #2CA867)"/>
<path id="Vector_6" d="M158.813 14.3906L128.28 32.0265V63.9257L158.813 46.2898V14.3906Z" fill="var(--fill-0, #6FE9A9)"/>
<path id="Vector_7" d="M74.5221 17.636L105.055 6.4373e-05L158.813 14.3542V14.3815L128.28 32.0174V32.0538L74.5221 17.6996V17.636Z" fill="var(--fill-0, #6FE9A9)"/>
</g>
</svg>
