<svg viewBox="0 0 419.502 344.502" fill="none" xmlns="http://www.w3.org/2000/svg" aria-hidden="true">
  <path d="M84.7001 7.56884C90.493 -0.0152473 101.243 -1.77316 109.163 3.64501L192.887 60.9184L229.907 50.3335L237.259 25.8296L237.382 25.437C240.039 17.2554 248.137 12.0765 256.712 13.1382C265.423 14.2168 272.086 21.4212 272.481 30.1899L272.836 38.0591L358.052 13.6948C367.61 10.962 377.574 16.4951 380.307 26.0532C383.039 35.6113 377.506 45.5752 367.948 48.3081L274.504 75.0249L275.084 87.8979L304.312 72.9712L304.75 72.7554C309.291 70.5887 314.541 70.4194 319.223 72.3042C324.055 74.2499 327.807 78.1936 329.511 83.1167L371.778 205.298L400.19 204.02C408.84 203.631 416.541 209.455 418.522 217.883C420.503 226.312 416.202 234.957 408.284 238.461L386.575 248.068L393.511 268.117C396.223 275.958 393.225 284.637 386.251 289.131C379.277 293.626 370.134 292.772 364.114 287.063L343.224 267.253L173.284 342.461C166.857 345.305 159.363 344.149 154.093 339.5C148.822 334.852 146.74 327.561 148.759 320.83L169.881 250.421L146.309 251.483C137.383 251.885 129.513 245.677 127.824 236.903L121.976 206.519L87.6874 224.032C78.8342 228.553 67.9913 225.042 63.4696 216.189C58.948 207.336 62.4593 196.493 71.3124 191.971L114.892 169.712L105.945 123.22L23.4481 146.808C16.0669 148.919 8.15945 146.115 3.75574 139.827C-0.647967 133.538 -0.578493 125.149 3.92859 118.934L84.4286 7.93407L84.7001 7.56884ZM207.98 248.707L194.478 293.714L306.163 244.288L207.98 248.707ZM155.356 189.47L160.234 214.82L180.839 213.892L194.102 169.682L155.356 189.47ZM218.939 212.177L282.144 209.333L248.114 177.063C244.734 173.858 242.728 169.466 242.518 164.813L242.173 157.153L236.012 155.27L218.939 212.177ZM317.724 159.158C317.442 160.735 316.945 162.297 316.222 163.802C312.697 171.131 304.762 175.101 296.927 173.737L332.093 207.084L334.269 206.987L317.724 159.158ZM148.272 152.665L177.924 137.521L143.323 126.949L148.272 152.665ZM284.436 123.545L310.163 141.145C310.808 141.586 311.415 142.064 311.985 142.572L302.255 114.445L284.436 123.545ZM182.591 101.305L192.662 104.382L186.521 100.181L182.591 101.305ZM63.6805 97.8618L147.92 73.7749L103.29 43.2446L63.6805 97.8618Z" fill="#fff" stroke="#000" stroke-linecap="round" stroke-linejoin="round"/>
</svg>
