<svg width="188" height="142" viewBox="0 0 188 142" fill="none" xmlns="http://www.w3.org/2000/svg" aria-hidden="true">
<path d="M44.4885 142C32.0509 142 21.5267 137.735 12.916 129.203C4.30534 120.672 0 108.014 0 91.2267C0 75.5407 3.82697 61.2306 11.4809 48.2965C19.1349 35.3624 29.4996 24.7674 42.5751 16.5116C55.9695 7.98062 70.799 2.47675 87.0636 0V30.1337C58.9991 36.188 43.5318 50.2229 40.6616 72.2384C41.2994 71.9632 42.0967 71.8256 43.0534 71.8256C54.2154 71.8256 63.464 75.2655 70.799 82.1454C78.4529 89.0252 82.2799 97.281 82.2799 106.913C82.2799 116.82 78.6124 125.213 71.2774 132.093C64.2612 138.698 55.3316 142 44.4885 142ZM145.425 142C132.987 142 122.463 137.735 113.852 129.203C105.242 120.672 100.936 108.014 100.936 91.2267C100.936 75.5407 104.763 61.2306 112.417 48.2965C120.071 35.3624 130.436 24.7674 143.511 16.5116C156.906 7.98062 171.735 2.47675 188 0V30.1337C159.936 36.188 144.468 50.2229 141.598 72.2384C142.236 71.9632 143.033 71.8256 143.99 71.8256C155.152 71.8256 164.4 75.2655 171.735 82.1454C179.389 89.0252 183.216 97.281 183.216 106.913C183.216 116.82 179.549 125.213 172.214 132.093C165.198 138.698 156.268 142 145.425 142Z" fill="#0073D1"/>
</svg>
