<svg preserveAspectRatio="none" width="100%" height="100%" overflow="visible" style="display: block;" viewBox="0 0 567.211 891.026" fill="none" xmlns="http://www.w3.org/2000/svg">
<path id="Vector 53 (Stroke)" d="M2.61533 77.3976C15.1108 23.6012 68.8512 -9.88007 122.648 2.61533C163.993 12.2188 232.648 33.922 303.965 72.922C374.945 111.737 454.826 171.13 509.795 258.978C584.313 378.067 575.664 513.571 543.46 618.839C511.759 722.464 450.822 818.628 388.156 868.978C345.103 903.569 282.159 896.71 247.567 853.656C212.976 810.603 219.836 747.659 262.889 713.068C286.724 693.917 329.036 636.081 352.21 560.331C374.881 486.225 372.733 416.978 340.251 365.067C309.62 316.115 261.084 277.424 208.005 248.398C155.264 219.556 104.219 203.66 77.3976 197.43C23.6012 184.934 -9.88007 131.194 2.61533 77.3976Z" fill="url(#paint0_linear_0_14)"/>
<defs>
<linearGradient id="paint0_linear_0_14" x1="283.605" y1="1.24984e-07" x2="283.605" y2="891.026" gradientUnits="userSpaceOnUse">
<stop stop-color="#001C62"/>
<stop offset="1" stop-color="#006BC3"/>
</linearGradient>
</defs>
</svg>
