<svg preserveAspectRatio="none" width="100%" height="100%" overflow="visible" style="display: block;" viewBox="0 0 211.054 160.913" fill="none" xmlns="http://www.w3.org/2000/svg">
<path id="Vector" d="M3.44946 45.4626L11.571 32.486L30.9681 13.878L41.6003 8.81763L68.1004 2.6328L101.114 0L104.33 13.2086L161.494 14.1903L179.033 18.5634L199.01 26.7653L211.054 34.0835L208.758 47.9883L198.966 72.799L188.87 87.15L164.219 105.794L136.951 117.601L131.983 117.869L116.106 112.871L110.263 113.924L80.7429 120.314L62.5698 121.412L53.1438 120.859L54.0551 121.992L52.8668 157.441L41.5645 159.806L23.9723 160.913L10.1504 158.628L7.5 157.598V149.598L6.0137 130.721L3.5 113.098L2.5 101.098L3 93.5984L0 88.5984L5.90461 86.8466L9.5 86.5984L22.8912 90.0148L17.995 86.9894L13 83.5984L3.44946 45.4626Z" fill="var(--fill-0, white)"/>
</svg>
