<svg preserveAspectRatio="none" width="100%" height="100%" overflow="visible" style="display: block;" viewBox="0 0 108.18 171.107" fill="none" xmlns="http://www.w3.org/2000/svg">
<path id="Vector" d="M101.824 64.7745C101.171 51.4677 99.6346 24.4079 105.978 9.48575C112.322 -5.4364 95.489 2.72974 95.489 2.72974C95.489 2.72974 90.1729 16.4827 77.995 27.3531C65.8171 38.2323 57.1684 43.8817 47.3493 48.6832C37.5301 53.4758 22.6093 60.3835 10.1187 81.2674C-2.36294 102.151 -6.25843 146.882 20.5812 163.723C47.4118 180.555 82.373 165.142 99.2773 132.21C116.173 99.2775 102.476 78.0813 101.824 64.7745ZM80.2912 33.6718C85.0087 29.7895 93.1213 16.0454 96.0787 17.7768C98.08 18.946 94.801 30.0394 94.667 39.2051C94.5687 46.0325 95.3907 59.0448 94.0952 59.5089C92.1743 60.205 89.5385 55.1268 81.8726 51.2178C71.5442 45.9433 66.0316 48.2637 65.4508 46.4966C64.8611 44.7295 75.5827 37.554 80.2912 33.6718ZM93.9612 130.121C78.8795 157.824 48.8056 170.586 26.7818 158.627C4.76689 146.668 -0.861925 114.512 14.2197 86.8096C29.3013 59.1073 59.3753 46.3449 81.3902 58.304C103.414 70.2721 109.043 102.419 93.9612 130.121Z" fill="var(--fill-0, #97D7FF)" stroke="var(--stroke-0, black)" stroke-miterlimit="10"/>
</svg>
