<svg preserveAspectRatio="none" width="100%" height="100%" overflow="visible" style="display: block;" viewBox="0 0 169.724 212.055" fill="none" xmlns="http://www.w3.org/2000/svg">
<g id="Group">
<path id="Vector" d="M33.3405 33.1614L169.522 93.3052" stroke="var(--stroke-0, white)" stroke-miterlimit="10"/>
<path id="Vector_2" d="M30.9728 38.5073L167.154 98.6511" stroke="var(--stroke-0, white)" stroke-miterlimit="10"/>
<path id="Vector_3" d="M28.6052 43.8622L164.787 104.006" stroke="var(--stroke-0, white)" stroke-miterlimit="10"/>
<path id="Vector_4" d="M26.2375 49.2081L162.419 109.352" stroke="var(--stroke-0, white)" stroke-miterlimit="10"/>
<path id="Vector_5" d="M23.8698 54.554L160.051 114.698" stroke="var(--stroke-0, white)" stroke-miterlimit="10"/>
<path id="Vector_6" d="M21.5021 59.9088L157.684 120.053" stroke="var(--stroke-0, white)" stroke-miterlimit="10"/>
<path id="Vector_7" d="M19.1345 65.2547L155.316 125.398" stroke="var(--stroke-0, white)" stroke-miterlimit="10"/>
<path id="Vector_8" d="M16.7668 70.6007L152.948 130.744" stroke="var(--stroke-0, white)" stroke-miterlimit="10"/>
<path id="Vector_9" d="M14.3991 75.9555L150.581 136.099" stroke="var(--stroke-0, white)" stroke-miterlimit="10"/>
<path id="Vector_10" d="M12.0314 81.3014L148.213 141.445" stroke="var(--stroke-0, white)" stroke-miterlimit="10"/>
<path id="Vector_11" d="M9.66377 86.6473L145.845 146.791" stroke="var(--stroke-0, white)" stroke-miterlimit="10"/>
<path id="Vector_12" d="M7.30504 92.0022L143.478 152.146" stroke="var(--stroke-0, white)" stroke-miterlimit="10"/>
<path id="Vector_13" d="M4.93735 97.3481L141.11 157.492" stroke="var(--stroke-0, white)" stroke-miterlimit="10"/>
<path id="Vector_14" d="M2.56969 102.694L138.742 162.838" stroke="var(--stroke-0, white)" stroke-miterlimit="10"/>
<path id="Vector_15" d="M0.20201 108.049L136.375 168.193" stroke="var(--stroke-0, white)" stroke-miterlimit="10"/>
<path id="Vector_16" d="M153.029 26.209L70.857 211.852" stroke="var(--stroke-0, white)" stroke-miterlimit="10"/>
<path id="Vector_17" d="M147.677 23.844L65.5051 209.487" stroke="var(--stroke-0, white)" stroke-miterlimit="10"/>
<path id="Vector_18" d="M142.316 21.4879L60.1533 207.122" stroke="var(--stroke-0, white)" stroke-miterlimit="10"/>
<path id="Vector_19" d="M136.964 19.1228L54.7925 204.757" stroke="var(--stroke-0, white)" stroke-miterlimit="10"/>
<path id="Vector_20" d="M131.612 16.7577L49.4407 202.392" stroke="var(--stroke-0, white)" stroke-miterlimit="10"/>
<path id="Vector_21" d="M126.252 14.3927L44.0889 200.027" stroke="var(--stroke-0, white)" stroke-miterlimit="10"/>
<path id="Vector_22" d="M120.9 12.0276L38.7281 197.662" stroke="var(--stroke-0, white)" stroke-miterlimit="10"/>
<path id="Vector_23" d="M115.548 9.66259L33.3762 195.297" stroke="var(--stroke-0, white)" stroke-miterlimit="10"/>
<path id="Vector_24" d="M110.187 7.29754L28.0244 192.932" stroke="var(--stroke-0, white)" stroke-miterlimit="10"/>
<path id="Vector_25" d="M104.835 4.93248L22.6636 190.567" stroke="var(--stroke-0, white)" stroke-miterlimit="10"/>
<path id="Vector_26" d="M99.4835 2.56743L17.3118 188.202" stroke="var(--stroke-0, white)" stroke-miterlimit="10"/>
<path id="Vector_27" d="M94.1227 0.202367L11.96 185.837" stroke="var(--stroke-0, white)" stroke-miterlimit="10"/>
</g>
</svg>
