<svg preserveAspectRatio="none" width="100%" height="100%" overflow="visible" style="display: block;" viewBox="0 0 99.061 73.7292" fill="none" xmlns="http://www.w3.org/2000/svg">
<path id="Vector" d="M0.868958 52.1264C0.868958 52.1264 7.69501 60.4978 16.7815 59.3733C20.5877 64.1569 27.8336 73.0192 28.9594 73.2244C30.0852 73.4297 35.9999 66.8968 35.9999 66.8968C35.9999 66.8968 53.5296 70.3417 58.8814 69.5028C64.2333 68.6639 66.181 62.015 67.6999 49.0741C68.3611 44.4868 79.1184 41.7291 82.5135 41.4167C85.9087 41.1043 95.3883 44.7545 95.3883 44.7545L87.0255 38.9267L77.385 0.532499L67.4497 1.33572L36.7861 18.9085L32.5332 30.2251L6.63179 26.1465L0.860025 52.1353L0.868958 52.1264Z" fill="var(--fill-0, #FFBFBA)" stroke="var(--stroke-0, black)" stroke-miterlimit="10"/>
</svg>
