<svg preserveAspectRatio="none" width="100%" height="100%" overflow="visible" style="display: block;" viewBox="0 0 157.495 166.16" fill="none" xmlns="http://www.w3.org/2000/svg">
<g id="Vector">
<path d="M77.0788 134.936L64.5078 165.173L0.616363 151.089L21.6127 71.5164L92.9288 0.689796C92.9288 0.689796 128.866 33.4043 132.413 51.9767C135.96 70.549 156.913 140.977 156.913 140.977C156.913 140.977 129.972 159.675 91.0704 165.61C83.1901 149.028 66.1071 110.214 66.1071 110.214" fill="var(--fill-0, white)"/>
<path d="M77.0788 134.936L64.5078 165.173L0.616363 151.089L21.6127 71.5164L92.9288 0.689796C92.9288 0.689796 128.866 33.4043 132.413 51.9767C135.96 70.549 156.913 140.977 156.913 140.977C156.913 140.977 129.972 159.675 91.0704 165.61C83.1901 149.028 66.1071 110.214 66.1071 110.214" stroke="var(--stroke-0, black)" stroke-miterlimit="10"/>
</g>
</svg>
