<svg preserveAspectRatio="none" width="100%" height="100%" overflow="visible" style="display: block;" viewBox="0 0 83.0115 175.657" fill="none" xmlns="http://www.w3.org/2000/svg">
<path id="Vector" d="M60.4159 175.657L64.7045 174.068L68.6447 170.061V166.321L72.5759 163.769L74.1037 158.2L76.114 156.513L78.9552 152.381V148.784L81.5195 145.125L83.0115 140.779L82.0466 134.398L73.514 112.826L71.8879 92.7815L69.6007 50.2105L66.7059 28.5502L60.9698 9.49591L56.0647 3.67699L43.5295 1.23161L19.406 0H0L4.34222 43.276L20.3888 41.0895L31.843 38.5995L33.8086 52.4149L39.4195 68.2831L44.3783 82.9018L49.4442 102.197L51.8297 116.37L51.2043 122.492L47.4071 134.38L44.5659 142.269L44.9769 149.516L47.4786 159.146L52.9108 149.837L61.6667 170.061L60.4159 175.657Z" fill="var(--fill-0, #FFBFBA)"/>
</svg>
