<svg preserveAspectRatio="none" width="100%" height="100%" overflow="visible" style="display: block;" viewBox="0 0 40.9205 40.8842" fill="none" xmlns="http://www.w3.org/2000/svg">
<g id="&#231;&#144;&#131;">
<path id="Vector" d="M40.9205 20.4376C40.9205 24.784 39.5625 28.818 37.2484 32.129C36.8374 32.7181 36.3996 33.2803 35.935 33.8158C32.1825 38.1443 26.643 40.8842 20.4603 40.8842C14.2775 40.8842 8.73805 38.1443 4.98551 33.8158C4.52091 33.2803 4.08312 32.7091 3.67213 32.129C1.35806 28.818 0 24.784 0 20.4376C0 16.0913 1.35806 12.0573 3.67213 8.74623C4.08312 8.15719 4.52091 7.59495 4.98551 7.05947C8.73805 2.73097 14.2775 0 20.4603 0C26.643 0 32.1825 2.7399 35.935 7.05947C36.3996 7.59495 36.8464 8.16612 37.2484 8.74623C39.5625 12.0573 40.9205 16.0913 40.9205 20.4376Z" fill="var(--fill-0, #DEF900)"/>
<path id="Vector_2" d="M14.7957 20.4376C14.7957 24.6858 12.9909 28.104 9.292 30.8885C8.81847 31.2455 8.30026 31.5578 7.74632 31.8881C6.87072 32.4057 5.93259 32.968 4.97659 33.8247C4.51199 33.2893 4.07419 32.7181 3.6632 32.138C4.71748 31.2098 5.75389 30.594 6.64736 30.0585C7.1745 29.7461 7.62123 29.4784 8.00542 29.1928C11.1772 26.8099 12.6604 24.0254 12.6604 20.4555C12.6604 16.8856 11.1861 14.1011 8.00542 11.7182C7.62123 11.4326 7.1745 11.1649 6.64736 10.8525C5.75389 10.317 4.72642 9.70118 3.6632 8.77301C4.07419 8.18398 4.51199 7.62173 4.97659 7.08625C5.93259 7.94302 6.87072 8.50526 7.73738 9.0229C8.29133 9.35311 8.80954 9.66549 9.28307 10.0136C12.9909 12.7981 14.7868 16.2162 14.7868 20.4644L14.7957 20.4376Z" fill="var(--fill-0, white)"/>
<path id="Vector_3" d="M35.9261 7.05947C34.979 7.91625 34.032 8.47849 33.1653 8.99613C32.6114 9.32634 32.0931 9.63872 31.6196 9.98679C27.9117 12.7713 26.1159 16.1895 26.1159 20.4376C26.1159 24.6858 27.9207 28.104 31.6196 30.8885C32.0931 31.2455 32.6114 31.5578 33.1653 31.8881C34.032 32.4057 34.979 32.968 35.935 33.8247C36.3996 33.2893 36.8374 32.7181 37.2484 32.138C36.1941 31.2098 35.1577 30.594 34.2643 30.0585C33.7371 29.7461 33.2904 29.4784 32.9062 29.1928C29.7344 26.8099 28.2513 24.0254 28.2513 20.4555C28.2513 16.8856 29.7255 14.1011 32.9062 11.7182C33.2904 11.4326 33.7371 11.1649 34.2643 10.8525C35.1577 10.317 36.1852 9.70118 37.2484 8.77301L35.935 7.08625L35.9261 7.05947Z" fill="var(--fill-0, white)"/>
</g>
</svg>
