<svg preserveAspectRatio="none" width="100%" height="100%" overflow="visible" style="display: block;" viewBox="0 0 58.4605 186.258" fill="none" xmlns="http://www.w3.org/2000/svg">
<g id="Group">
<g id="Vector">
<path d="M52.0732 171.795C52.0732 171.795 51.2244 168.529 50.5007 162.853C49.777 157.176 50.3042 88.1258 50.3488 80.9949C50.3935 73.864 40.628 49.9458 42.9421 44.8765C45.2561 39.8073 57.7556 11.2928 57.7556 11.2928L6.93553 0.583076C6.93553 0.583076 -2.88361 32.1141 1.73558 52.6767C6.35478 73.2393 22.1333 169.939 22.1333 169.939L29.1202 183.103L47.3468 185.727L53.2615 179.658L52.0643 171.777" fill="var(--fill-0, #FFBFBA)"/>
<path d="M52.0732 171.795C52.0732 171.795 51.2244 168.529 50.5007 162.853C49.777 157.176 50.3042 88.1258 50.3488 80.9949C50.3935 73.864 40.628 49.9458 42.9421 44.8765C45.2561 39.8073 57.7556 11.2928 57.7556 11.2928L6.93553 0.583076C6.93553 0.583076 -2.88361 32.1141 1.73558 52.6767C6.35478 73.2393 22.1333 169.939 22.1333 169.939L29.1202 183.103L47.3468 185.727L53.2615 179.658L52.0643 171.777" stroke="var(--stroke-0, black)" stroke-miterlimit="10"/>
</g>
<path id="Vector_2" d="M16.4509 133.606L27.101 135.409L40.5297 134.508L50.1165 132.339V161.71L52.6093 174.999L43.9516 181.461L28.2893 180.675L22.1601 174.383L22.2495 168.19L19.4082 153.357L16.4509 133.606Z" fill="var(--fill-0, white)"/>
<path id="Vector_3" d="M16.0667 133.249C16.0667 133.249 32.0329 137.863 50.1255 131.857" stroke="var(--stroke-0, black)" stroke-miterlimit="10"/>
<path id="Vector_4" d="M52.0732 171.795C52.0732 171.795 51.2244 168.529 50.5007 162.853C49.777 157.176 50.3042 88.1258 50.3488 80.9949C50.3935 73.864 40.628 49.9458 42.9421 44.8765C45.2561 39.8073 57.7556 11.2928 57.7556 11.2928L6.93553 0.583076C6.93553 0.583076 -2.88361 32.1141 1.73558 52.6767C6.35478 73.2393 22.1333 169.939 22.1333 169.939L29.1202 183.103L47.3468 185.727L53.2615 179.658L52.0643 171.777" stroke="var(--stroke-0, black)" stroke-miterlimit="10"/>
</g>
</svg>
