<svg preserveAspectRatio="none" width="100%" height="100%" overflow="visible" style="display: block;" viewBox="0 0 100.421 76.8212" fill="none" xmlns="http://www.w3.org/2000/svg">
<path id="Vector" d="M99.5991 30.6709C99.5991 30.6709 77.1196 12.3395 71.9375 7.02925C66.7554 1.71904 53.7198 -4.52827 43.6147 7.02925C29.784 5.96721 17.1504 16.0611 13.6927 34.6602C10.235 53.2594 0.523079 54.7141 0.523079 54.7141C0.523079 54.7141 1.05916 64.9418 9.83295 63.612C8.90375 67.8602 2.2564 69.0561 2.2564 69.0561C2.2564 69.0561 4.41857 80.8725 21.6266 74.3663C38.8347 67.8602 48.1089 60.5419 55.0153 59.3371C61.9218 58.1323 64.2001 61.6129 64.2001 61.6129C64.2001 61.6129 67.8454 52.2062 76.0474 49.859C84.2494 47.5118 91.0844 45.3074 92.2995 44.0223C93.5146 42.7371 99.608 30.6709 99.608 30.6709H99.5991Z" fill="var(--fill-0, black)" stroke="var(--stroke-0, black)" stroke-miterlimit="10"/>
</svg>
