<svg preserveAspectRatio="none" width="100%" height="100%" overflow="visible" style="display: block;" viewBox="0 0 73.4377 201.536" fill="none" xmlns="http://www.w3.org/2000/svg">
<path id="Vector" d="M35.2872 4.64475C35.2872 4.64475 38.1284 38.3356 37.7263 41.3789C37.3243 44.4223 31.8295 61.6738 30.6144 73.2492C29.3993 84.8245 24.923 136.374 24.923 136.374C24.923 136.374 11.0744 154.375 8.05447 158.32C5.03457 162.264 0.504717 179.9 0.504717 179.9C0.504717 179.9 1.78237 197.071 2.36312 199.507C2.94387 201.944 8.51907 201.596 8.75137 197.535C8.98367 193.474 8.40292 180.48 8.40292 180.48C8.40292 180.48 15.6042 168.762 17.6949 167.253C19.7856 165.745 24.3155 165.629 25.9416 166.557C27.5677 167.485 29.0776 177.347 27.6838 181.292C26.29 185.237 28.3807 189.762 31.2845 189.994C34.1882 190.226 36.9758 185.701 36.2789 181.292C35.582 176.883 36.5112 170.502 38.2535 167.137C39.9957 163.773 43.0156 160.06 43.2479 155.535C43.4802 151.01 41.9703 142.309 41.9703 142.309C41.9703 142.309 61.3763 95.0255 67.157 69.0635C72.9377 43.1014 72.9377 0.557221 72.9377 0.557221L35.2872 4.64475Z" fill="var(--fill-0, #FFBFBA)" stroke="var(--stroke-0, black)" stroke-miterlimit="10"/>
</svg>
