<svg viewBox="428.963 26.962 36 36" fill="none" xmlns="http://www.w3.org/2000/svg">
  <path d="M446.964 26.9621C453.032 26.9621 458.398 29.9661 461.658 34.5669C462.038 35.103 462.39 35.6598 462.708 36.2353C464.145 38.8217 464.963 41.7974 464.963 44.9631C464.963 48.1288 464.145 51.1045 462.708 53.6889C462.39 54.2664 462.038 54.8232 461.658 55.3574C458.398 59.9601 453.032 62.9621 446.964 62.9621C437.023 62.9621 428.963 54.904 428.963 44.9631C428.963 35.0221 437.023 26.9621 446.964 26.9621Z" fill="#C7F900"/>
  <path d="M461.658 34.5669C462.038 35.103 462.39 35.6598 462.708 36.2353C460.103 38.9157 455.615 37.9489 452.214 37.2172C450.824 36.9163 449.509 36.6341 448.567 36.6341C443.463 36.6341 440.877 39.4368 440.877 44.9631C440.877 50.4894 443.463 53.2902 448.567 53.2902C449.509 53.2902 450.824 53.008 452.214 52.7089C455.615 51.9754 460.101 51.0085 462.708 53.6889C462.39 54.2664 462.038 54.8232 461.658 55.3574C459.984 53.1773 456.685 53.6682 452.611 54.5466C451.119 54.8683 449.71 55.1711 448.567 55.1711C444.991 55.1711 438.996 53.845 438.996 44.9631C438.996 36.0811 444.991 34.7531 448.567 34.7531C449.71 34.7531 451.119 35.056 452.611 35.3776C456.685 36.256 459.984 36.747 461.658 34.5669Z" fill="#fff"/>
</svg>
