<svg viewBox="0 0 209.818 209.818" fill="none" xmlns="http://www.w3.org/2000/svg">
  <path d="M209.818 104.904C209.818 127.213 202.857 147.889 190.973 164.892C188.879 167.907 186.632 170.801 184.231 173.564C165.002 195.764 136.597 209.818 104.915 209.818C73.232 209.818 44.8272 195.764 25.5873 173.564C23.1865 170.801 20.9391 167.907 18.8452 164.892C6.96142 147.889 0 127.213 0 104.904C0 82.5942 6.96142 61.9183 18.8452 44.9149C20.9391 41.9001 23.1974 39.0059 25.5983 36.2432C44.8272 14.0434 73.232 0 104.915 0C136.597 0 164.991 14.0434 184.22 36.2432C186.621 39.0059 188.879 41.9001 190.973 44.9149C202.857 61.9183 209.818 82.5942 209.818 104.904Z" fill="#C7F900"/>
  <path d="M75.8959 104.904C75.8959 126.687 66.6652 144.227 47.6775 158.512C45.2547 160.332 42.5907 161.933 39.7733 163.621C35.3004 166.285 30.4658 169.179 25.5873 173.564C23.1865 170.801 20.9391 167.907 18.8452 164.892C24.2718 160.113 29.5449 156.966 34.1384 154.215C36.8243 152.603 39.1374 151.222 41.0888 149.753C57.3577 137.507 64.9331 123.256 64.9331 104.904C64.9331 86.5518 57.3577 72.3001 41.0888 60.0546C39.1374 58.5856 36.8243 57.2042 34.1384 55.6037C29.5449 52.852 24.2718 49.7056 18.8452 44.9149C20.9391 41.9001 23.1974 39.0059 25.5983 36.2432C30.4768 40.6394 35.3114 43.5226 39.7733 46.1975C42.5907 47.8858 45.2547 49.4754 47.6775 51.2953C66.6652 65.5908 75.8959 83.1205 75.8959 104.904Z" fill="#fff"/>
  <path d="M184.22 36.2432C179.353 40.6394 174.518 43.5226 170.056 46.1975C167.228 47.8858 164.564 49.4754 162.141 51.2953C143.153 65.5908 133.922 83.1205 133.922 104.904C133.922 126.687 143.153 144.227 162.141 158.512C164.564 160.332 167.228 161.933 170.056 163.621C174.518 166.285 179.363 169.179 184.231 173.564C186.632 170.801 188.879 167.907 190.973 164.892C185.547 160.113 180.273 156.966 175.68 154.215C172.994 152.603 170.692 151.222 168.73 149.753C152.461 137.507 144.885 123.256 144.885 104.904C144.885 86.5518 152.461 72.3001 168.73 60.0546C170.692 58.5856 173.005 57.2042 175.68 55.6037C180.273 52.852 185.547 49.7056 190.973 44.9149L184.22 36.2432Z" fill="#fff"/>
</svg>
