<svg preserveAspectRatio="xMidYMid meet" width="100%" height="100%" overflow="visible" style="display: block;" viewBox="0 0 365 432.177" fill="none" xmlns="http://www.w3.org/2000/svg">
<g id="Group 39">
<g id="Vector">
<path d="M36 353.588C36 357.415 34.8056 360.963 32.7666 363.88C32.4073 364.398 32.0217 364.894 31.6098 365.368C28.3106 369.177 23.437 371.588 18.0009 371.588C12.5649 371.588 7.69131 369.177 4.3902 365.368C3.97826 364.894 3.59266 364.398 3.2334 363.88C1.19442 360.963 0 357.415 0 353.588C0 349.76 1.19442 346.212 3.2334 343.295C3.59266 342.778 3.98015 342.281 4.39208 341.807C7.69131 337.998 12.5649 335.589 18.0009 335.589C23.437 335.589 28.3087 337.998 31.6079 341.807C32.0199 342.281 32.4073 342.778 32.7666 343.295C34.8056 346.212 36 349.76 36 353.588Z" fill="#C7F900"/>
<path d="M13.022 353.588C13.022 357.325 11.4382 360.335 8.18036 362.786C7.76467 363.098 7.30759 363.372 6.82418 363.662C6.05674 364.119 5.22723 364.616 4.3902 365.368C3.97826 364.894 3.59266 364.398 3.2334 363.88C4.16448 363.06 5.06923 362.52 5.85736 362.048C6.3182 361.772 6.71508 361.535 7.0499 361.283C9.84127 359.182 11.141 356.736 11.141 353.588C11.141 350.439 9.84127 347.994 7.0499 345.892C6.71508 345.64 6.3182 345.403 5.85736 345.129C5.06923 344.657 4.16448 344.117 3.2334 343.295C3.59266 342.778 3.98015 342.281 4.39208 341.807C5.22911 342.561 6.05862 343.056 6.82418 343.515C7.30759 343.805 7.76467 344.077 8.18036 344.39C11.4382 346.842 13.022 349.85 13.022 353.588Z" fill="var(--fill-0, white)"/>
<path d="M31.6079 341.807C30.7728 342.561 29.9433 343.056 29.1777 343.515C28.6924 343.805 28.2353 344.077 27.8196 344.39C24.5618 346.842 22.978 349.85 22.978 353.588C22.978 357.325 24.5618 360.335 27.8196 362.786C28.2353 363.098 28.6924 363.372 29.1777 363.662C29.9433 364.119 30.7746 364.616 31.6098 365.368C32.0217 364.894 32.4073 364.398 32.7666 363.88C31.8355 363.06 30.9308 362.52 30.1426 362.048C29.6818 361.772 29.2868 361.535 28.9501 361.283C26.1587 359.182 24.859 356.736 24.859 353.588C24.859 350.439 26.1587 347.994 28.9501 345.892C29.2868 345.64 29.6837 345.403 30.1426 345.129C30.9308 344.657 31.8355 344.117 32.7666 343.295L31.6079 341.807Z" fill="var(--fill-0, white)"/>
</g>
<g id="Vector_2">
<path d="M139.729 308.316C137.022 311.022 133.669 312.686 130.164 313.307C129.544 313.419 128.921 313.498 128.294 313.542C123.268 313.902 118.117 312.161 114.273 308.317C110.429 304.473 108.688 299.322 109.047 294.294C109.091 293.668 109.169 293.044 109.281 292.424C109.902 288.92 111.566 285.567 114.273 282.86C116.979 280.153 120.332 278.489 123.837 277.868C124.457 277.757 125.082 277.679 125.709 277.636C130.735 277.275 135.885 279.017 139.729 282.861C143.572 286.705 145.313 291.854 144.953 296.88C144.909 297.506 144.832 298.132 144.72 298.751C144.099 302.256 142.435 305.609 139.729 308.316Z" fill="#C7F900"/>
<path d="M123.481 292.068C120.838 294.711 117.59 295.719 113.553 295.148C113.038 295.075 112.521 294.946 111.974 294.809C111.109 294.59 110.171 294.354 109.047 294.294C109.091 293.668 109.169 293.044 109.281 292.424C110.519 292.503 111.541 292.761 112.432 292.984C112.953 293.115 113.402 293.228 113.817 293.286C117.276 293.774 119.924 292.964 122.151 290.738C124.377 288.511 125.187 285.863 124.699 282.404C124.64 281.989 124.527 281.541 124.396 281.02C124.172 280.129 123.914 279.108 123.837 277.868C124.457 277.757 125.082 277.679 125.709 277.636C125.767 278.761 126.004 279.697 126.221 280.563C126.358 281.11 126.488 281.626 126.561 282.14C127.13 286.178 126.123 289.425 123.481 292.068Z" fill="var(--fill-0, white)"/>
<path d="M144.953 296.88C143.829 296.823 142.893 296.586 142.027 296.369C141.479 296.231 140.963 296.101 140.448 296.027C136.41 295.458 133.163 296.465 130.521 299.108C127.878 301.751 126.87 304.999 127.44 309.035C127.513 309.55 127.642 310.067 127.781 310.615C127.999 311.48 128.236 312.419 128.294 313.542C128.921 313.498 129.544 313.419 130.164 313.307C130.086 312.069 129.828 311.048 129.604 310.157C129.474 309.635 129.362 309.188 129.302 308.772C128.814 305.313 129.624 302.664 131.851 300.438C134.077 298.211 136.725 297.401 140.185 297.89C140.601 297.949 141.049 298.062 141.568 298.193C142.459 298.416 143.481 298.674 144.72 298.751L144.953 296.88Z" fill="var(--fill-0, white)"/>
</g>
<g id="Vector_3">
<path d="M160.588 344.588C162.502 347.903 163.241 351.572 162.934 355.118C162.882 355.746 162.796 356.369 162.676 356.985C161.723 361.933 158.709 366.459 154.001 369.177C149.293 371.895 143.867 372.243 139.103 370.595C138.51 370.39 137.927 370.153 137.358 369.885C134.133 368.378 131.325 365.903 129.411 362.588C127.497 359.273 126.758 355.603 127.065 352.057C127.117 351.43 127.205 350.806 127.324 350.189C128.277 345.241 131.293 340.718 136.001 338C140.709 335.282 146.132 334.932 150.894 336.582C151.488 336.786 152.072 337.022 152.641 337.291C155.866 338.798 158.674 341.273 160.588 344.588Z" fill="#C7F900"/>
<path d="M140.688 356.077C142.557 359.314 142.69 362.712 141.094 366.463C140.891 366.942 140.632 367.408 140.358 367.9C139.922 368.68 139.452 369.525 139.103 370.595C138.51 370.39 137.927 370.153 137.358 369.885C137.754 368.709 138.267 367.789 138.714 366.986C138.975 366.516 139.2 366.113 139.364 365.727C140.731 362.512 140.634 359.744 139.059 357.017C137.485 354.29 135.137 352.823 131.669 352.399C131.253 352.348 130.791 352.341 130.254 352.334C129.336 352.319 128.282 352.304 127.065 352.057C127.117 351.43 127.205 350.806 127.324 350.189C128.426 350.424 129.392 350.438 130.285 350.453C130.848 350.462 131.38 350.469 131.896 350.532C135.944 351.027 138.82 352.84 140.688 356.077Z" fill="var(--fill-0, white)"/>
<path d="M150.894 336.582C150.548 337.652 150.077 338.496 149.643 339.276C149.368 339.769 149.108 340.234 148.905 340.712C147.31 344.465 147.442 347.862 149.311 351.099C151.179 354.336 154.056 356.15 158.103 356.644C158.619 356.706 159.152 356.715 159.717 356.724C160.608 356.737 161.577 356.751 162.676 356.985C162.796 356.369 162.882 355.746 162.934 355.118C161.718 354.874 160.664 354.858 159.746 354.844C159.208 354.835 158.748 354.827 158.33 354.777C154.862 354.353 152.514 352.885 150.94 350.158C149.365 347.431 149.268 344.664 150.635 341.449C150.801 341.062 151.026 340.658 151.286 340.191C151.732 339.388 152.246 338.468 152.641 337.291L150.894 336.582Z" fill="var(--fill-0, white)"/>
</g>
<g id="Vector_4">
<path d="M55.7273 150.86C58.4339 153.567 60.0978 156.92 60.719 160.424C60.8307 161.044 60.9092 161.668 60.9531 162.294C61.3135 167.321 59.5725 172.472 55.7286 176.316C51.8848 180.16 46.7335 181.901 41.7059 181.542C41.0794 181.498 40.4556 181.419 39.8358 181.307C36.3312 180.686 32.9781 179.022 30.2714 176.316C27.5648 173.609 25.9009 170.256 25.2798 166.751C25.168 166.132 25.0909 165.506 25.047 164.88C24.6866 159.854 26.4289 154.704 30.2728 150.86C34.1166 147.016 39.2652 145.275 44.2915 145.635C44.918 145.679 45.5431 145.757 46.1629 145.868C49.6676 146.489 53.0206 148.153 55.7273 150.86Z" fill="#C7F900"/>
<path d="M39.4794 167.108C42.1222 169.751 43.1304 172.999 42.5598 177.035C42.4866 177.55 42.3576 178.067 42.2206 178.614C42.0012 179.48 41.7657 180.418 41.7059 181.542C41.0794 181.498 40.4556 181.419 39.8358 181.307C39.9143 180.069 40.1723 179.048 40.3958 178.157C40.5261 177.635 40.6392 177.187 40.6977 176.772C41.1858 173.313 40.3758 170.664 38.1493 168.438C35.9228 166.211 33.2747 165.401 29.8152 165.889C29.4003 165.948 28.952 166.061 28.432 166.193C27.5409 166.416 26.5194 166.674 25.2798 166.751C25.168 166.132 25.0909 165.506 25.047 164.88C26.1722 164.821 27.1086 164.585 27.9744 164.368C28.5211 164.231 29.0372 164.101 29.5519 164.027C33.5899 163.458 36.8366 164.465 39.4794 167.108Z" fill="var(--fill-0, white)"/>
<path d="M44.2915 145.635C44.2343 146.759 43.9976 147.696 43.7808 148.562C43.6424 149.11 43.5121 149.626 43.4389 150.14C42.8697 154.178 43.8765 157.425 46.5193 160.068C49.1622 162.711 52.4101 163.719 56.4468 163.148C56.9616 163.075 57.479 162.946 58.0269 162.808C58.8915 162.59 59.8305 162.353 60.9531 162.294C60.9092 161.668 60.8307 161.044 60.719 160.424C59.4807 160.503 58.4592 160.761 57.5681 160.984C57.0467 161.115 56.5998 161.226 56.1835 161.286C52.724 161.774 50.0759 160.964 47.8494 158.738C45.6229 156.511 44.8129 153.863 45.301 150.404C45.3609 149.987 45.4739 149.539 45.6043 149.02C45.8277 148.129 46.0858 147.108 46.1629 145.868L44.2915 145.635Z" fill="var(--fill-0, white)"/>
</g>
<g id="Vector_5">
<path d="M277.001 423.177C273.686 425.09 270.016 425.83 266.47 425.523C265.843 425.47 265.22 425.385 264.603 425.265C259.655 424.312 255.13 421.297 252.412 416.589C249.694 411.882 249.346 406.455 250.994 401.692C251.198 401.098 251.435 400.516 251.704 399.946C253.211 396.722 255.686 393.914 259.001 392C262.316 390.086 265.985 389.346 269.531 389.654C270.159 389.706 270.783 389.793 271.399 389.913C276.347 390.866 280.871 393.882 283.589 398.589C286.307 403.297 286.656 408.721 285.007 413.483C284.803 414.076 284.566 414.66 284.298 415.23C282.791 418.455 280.316 421.263 277.001 423.177Z" fill="#C7F900"/>
<path d="M265.512 403.277C262.275 405.146 258.877 405.279 255.125 403.683C254.647 403.479 254.181 403.221 253.688 402.947C252.909 402.511 252.064 402.041 250.994 401.692C251.198 401.098 251.435 400.516 251.704 399.946C252.88 400.342 253.799 400.856 254.602 401.303C255.072 401.563 255.476 401.789 255.862 401.953C259.077 403.319 261.844 403.222 264.571 401.648C267.298 400.074 268.766 397.725 269.19 394.258C269.241 393.842 269.248 393.379 269.255 392.843C269.27 391.924 269.285 390.871 269.531 389.654C270.159 389.706 270.783 389.793 271.399 389.913C271.164 391.015 271.151 391.981 271.136 392.873C271.127 393.437 271.119 393.969 271.057 394.485C270.561 398.533 268.749 401.408 265.512 403.277Z" fill="var(--fill-0, white)"/>
<path d="M285.007 413.483C283.936 413.137 283.093 412.665 282.313 412.232C281.819 411.957 281.355 411.697 280.876 411.493C277.123 409.898 273.727 410.03 270.49 411.899C267.253 413.768 265.439 416.644 264.945 420.691C264.882 421.207 264.873 421.74 264.865 422.306C264.852 423.197 264.838 424.165 264.603 425.265C265.22 425.385 265.843 425.47 266.47 425.523C266.715 424.306 266.73 423.253 266.745 422.334C266.754 421.797 266.762 421.336 266.812 420.919C267.236 417.451 268.703 415.103 271.43 413.528C274.157 411.954 276.925 411.857 280.14 413.224C280.527 413.389 280.93 413.614 281.398 413.875C282.201 414.321 283.12 414.835 284.298 415.23L285.007 413.483Z" fill="var(--fill-0, white)"/>
</g>
<g id="Vector_6">
<path d="M72 304.589C72 310.657 68.9961 316.024 64.3952 319.284C63.8591 319.664 63.3024 320.015 62.7268 320.333C60.1404 321.77 57.1647 322.588 53.9991 322.588C50.8334 322.588 47.8577 321.77 45.2732 320.333C44.6958 320.015 44.139 319.664 43.6048 319.284C39.002 316.024 36 310.657 36 304.589C36 294.648 44.0581 286.589 53.9991 286.589C63.94 286.589 72 294.648 72 304.589Z" fill="#C7F900"/>
<path d="M64.3952 319.284C63.8591 319.664 63.3024 320.015 62.7268 320.333C60.0464 317.728 61.0132 313.24 61.7449 309.839C62.0459 308.449 62.328 307.134 62.328 306.192C62.328 301.089 59.5254 298.503 53.9991 298.503C48.4728 298.503 45.672 301.089 45.672 306.192C45.672 307.134 45.9541 308.449 46.2532 309.839C46.9868 313.24 47.9536 317.726 45.2732 320.333C44.6958 320.015 44.139 319.664 43.6048 319.284C45.7848 317.61 45.2939 314.31 44.4155 310.236C44.0938 308.745 43.791 307.336 43.791 306.192C43.791 302.616 45.1171 296.622 53.9991 296.622C62.881 296.622 64.209 302.616 64.209 306.192C64.209 307.336 63.9062 308.745 63.5845 310.236C62.7061 314.31 62.2152 317.61 64.3952 319.284Z" fill="var(--fill-0, white)"/>
</g>
<g id="Vector_7">
<path d="M157.411 322.588C154.377 317.333 154.295 311.183 156.65 306.06C156.924 305.463 157.231 304.88 157.57 304.317C159.091 301.779 161.259 299.582 164.001 297.999C166.742 296.417 169.729 295.637 172.685 295.59C173.344 295.576 174.002 295.603 174.655 295.664C180.271 296.186 185.554 299.333 188.588 304.588C193.559 313.197 190.61 324.206 182.001 329.176C173.392 334.147 162.382 331.197 157.411 322.588Z" fill="#C7F900"/>
<path d="M156.65 306.06C156.924 305.463 157.231 304.88 157.57 304.317C161.194 305.232 162.601 309.603 163.667 312.914C164.102 314.268 164.515 315.548 164.986 316.364C167.538 320.783 171.258 321.622 176.044 318.858C180.83 316.095 181.962 312.455 179.411 308.036C178.939 307.22 178.038 306.222 177.084 305.168C174.748 302.589 171.668 299.188 172.685 295.59C173.344 295.576 174.002 295.603 174.655 295.664C173.604 298.204 175.679 300.816 178.477 303.905C179.501 305.036 180.468 306.105 181.04 307.095C182.827 310.192 184.676 316.046 176.984 320.487C169.292 324.928 165.145 320.401 163.357 317.304C162.785 316.314 162.343 314.942 161.876 313.49C160.599 309.522 159.375 306.419 156.65 306.06Z" fill="var(--fill-0, white)"/>
</g>
<g id="Vector_8">
<path d="M172.001 253C177.256 256.034 180.401 261.319 180.924 266.933C180.985 267.588 181.011 268.246 180.999 268.903C180.95 271.862 180.171 274.848 178.588 277.589C177.005 280.331 174.809 282.499 172.272 284.018C171.708 284.36 171.125 284.666 170.529 284.939C165.404 287.295 159.256 287.211 154.001 284.177C145.392 279.207 142.441 268.198 147.411 259.589C152.382 250.98 163.392 248.03 172.001 253Z" fill="#C7F900"/>
<path d="M180.924 266.933C180.985 267.588 181.011 268.246 180.999 268.903C177.402 269.922 173.999 266.841 171.42 264.506C170.366 263.551 169.369 262.649 168.553 262.178C164.133 259.626 160.492 260.76 157.729 265.546C154.966 270.332 155.805 274.051 160.225 276.602C161.041 277.074 162.32 277.487 163.674 277.923C166.986 278.988 171.354 280.394 172.272 284.018C171.708 284.36 171.125 284.666 170.529 284.939C170.169 282.213 167.066 280.989 163.099 279.713C161.646 279.245 160.275 278.803 159.284 278.231C156.187 276.444 151.659 272.298 156.1 264.606C160.541 256.914 166.396 258.761 169.493 260.549C170.484 261.121 171.552 262.087 172.683 263.112C175.772 265.91 178.384 267.984 180.924 266.933Z" fill="var(--fill-0, white)"/>
</g>
<g id="Vector_9">
<path d="M365 127.589C365 133.657 361.996 139.024 357.395 142.284C356.859 142.664 356.302 143.015 355.727 143.333C353.14 144.77 350.165 145.588 346.999 145.588C343.833 145.588 340.858 144.77 338.273 143.333C337.696 143.015 337.139 142.664 336.605 142.284C332.002 139.024 329 133.657 329 127.589C329 117.648 337.058 109.589 346.999 109.589C356.94 109.589 365 117.648 365 127.589Z" fill="#C7F900"/>
<path d="M357.395 142.284C356.859 142.664 356.302 143.015 355.727 143.333C353.046 140.728 354.013 136.24 354.745 132.839C355.046 131.449 355.328 130.134 355.328 129.192C355.328 124.089 352.525 121.503 346.999 121.503C341.473 121.503 338.672 124.089 338.672 129.192C338.672 130.134 338.954 131.449 339.253 132.839C339.987 136.24 340.954 140.726 338.273 143.333C337.696 143.015 337.139 142.664 336.605 142.284C338.785 140.61 338.294 137.31 337.415 133.236C337.094 131.745 336.791 130.336 336.791 129.192C336.791 125.616 338.117 119.622 346.999 119.622C355.881 119.622 357.209 125.616 357.209 129.192C357.209 130.336 356.906 131.745 356.585 133.236C355.706 137.31 355.215 140.61 357.395 142.284Z" fill="var(--fill-0, white)"/>
</g>
<g id="Vector_10">
<path d="M302.999 40.1774C297.744 43.2114 291.595 43.2931 286.471 40.9385C285.874 40.6643 285.291 40.358 284.728 40.0184C282.19 38.4971 279.994 36.3292 278.411 33.5876C276.828 30.8461 276.049 27.8599 276.001 24.9032C275.988 24.2442 276.014 23.5861 276.076 22.9335C276.598 17.3175 279.744 12.0345 284.999 9.00047C293.608 4.02999 304.618 6.97852 309.588 15.5876C314.559 24.1968 311.608 35.2069 302.999 40.1774Z" fill="#C7F900"/>
<path d="M286.471 40.9385C285.874 40.6643 285.291 40.358 284.728 40.0184C285.644 36.3946 290.014 34.9879 293.325 33.9211C294.68 33.4867 295.959 33.0737 296.775 32.6025C301.195 30.051 302.033 26.3306 299.27 21.5447C296.507 16.7588 292.867 15.6264 288.447 18.1779C287.631 18.6491 286.634 19.5509 285.579 20.5049C283.001 22.8406 279.599 25.921 276.001 24.9032C275.988 24.2442 276.014 23.5861 276.076 22.9335C278.616 23.9844 281.228 21.9097 284.317 19.1118C285.448 18.0875 286.516 17.1208 287.507 16.549C290.604 14.7611 296.458 12.9122 300.899 20.6042C305.34 28.2962 300.813 32.4436 297.716 34.2315C296.725 34.8033 295.354 35.2455 293.901 35.7127C289.934 36.9891 286.831 38.2135 286.471 40.9385Z" fill="var(--fill-0, white)"/>
</g>
<g id="Vector_11">
<path d="M349.729 376.861C354.019 381.152 355.69 387.071 354.742 392.629C354.631 393.277 354.486 393.919 354.304 394.551C353.491 397.396 351.966 400.079 349.727 402.317C347.489 404.556 344.806 406.081 341.962 406.892C341.329 407.076 340.687 407.221 340.041 407.33C334.481 408.28 328.564 406.608 324.273 402.317C317.243 395.288 317.242 383.891 324.271 376.861C331.301 369.832 342.699 369.832 349.729 376.861Z" fill="#C7F900"/>
<path d="M354.742 392.629C354.631 393.277 354.486 393.919 354.304 394.551C350.567 394.604 348.077 390.747 346.189 387.825C345.419 386.629 344.689 385.5 344.023 384.834C340.414 381.225 336.604 381.378 332.696 385.286C328.788 389.193 328.637 393.003 332.245 396.611C332.911 397.278 334.041 398.008 335.235 398.779C338.159 400.665 342.014 403.154 341.962 406.892C341.329 407.076 340.687 407.221 340.041 407.33C340.398 404.605 337.718 402.619 334.216 400.359C332.934 399.532 331.724 398.75 330.915 397.941C328.387 395.413 325.085 390.236 331.366 383.956C337.646 377.675 342.824 380.975 345.353 383.504C346.161 384.312 346.943 385.523 347.771 386.805C350.031 390.307 352.016 392.987 354.742 392.629Z" fill="var(--fill-0, white)"/>
</g>
</g>
</svg>
