<svg preserveAspectRatio="none" width="100%" height="100%" overflow="visible" style="display: block;" viewBox="0 0 188 142" fill="none" xmlns="http://www.w3.org/2000/svg">
<path id="&#226;&#128;&#157;" d="M42.9442 0C55.3502 0 65.8477 4.2655 74.4366 12.7965C83.0254 21.3275 87.3198 33.9864 87.3198 50.7732C87.3198 66.4593 83.5025 80.7694 75.868 93.7035C68.2335 106.638 57.736 117.37 44.3756 125.901C31.0152 134.157 16.2233 139.523 0 142V111.866C27.9932 105.812 43.5804 91.7771 46.7614 69.7616C46.1252 70.0368 45.1709 70.1744 43.8985 70.1744C32.7648 70.1744 23.5398 66.7345 16.2234 59.8547C8.90694 52.9748 5.24873 44.719 5.24873 35.0872C5.24873 25.1802 8.74789 16.9244 15.7462 10.3198C22.7445 3.43992 31.8105 0 42.9442 0ZM143.147 0C155.553 0 166.051 4.2655 174.64 12.7965C183.547 21.3275 188 33.9864 188 50.7732C188 66.4593 184.183 80.7694 176.548 93.7035C168.914 106.638 158.416 117.37 145.056 125.901C131.695 134.157 116.904 139.523 100.68 142V111.866C128.673 105.812 144.102 91.7771 146.964 69.7616C146.646 70.0368 145.851 70.1744 144.579 70.1744C133.445 70.1744 124.22 66.7345 116.904 59.8547C109.587 52.9748 105.929 44.719 105.929 35.0872C105.929 25.1802 109.428 16.9244 116.426 10.3198C123.425 3.43992 132.332 0 143.147 0Z" fill="#0073D1"/>
</svg>
