<svg preserveAspectRatio="none" width="100%" height="100%" overflow="visible" style="display: block;" viewBox="0 0 206 133" fill="none" xmlns="http://www.w3.org/2000/svg">
<g id="! ! !">
<path d="M4.99368 90.4469L1.54976 0H26.6904L23.2464 90.4469H4.99368ZM14.1201 133C10.217 133 6.88783 131.564 4.1327 128.693C1.37757 125.822 0 122.433 0 118.528C0 114.509 1.37757 111.063 4.1327 108.192C6.88783 105.32 10.217 103.885 14.1201 103.885C18.0232 103.885 21.4097 105.32 24.2796 108.192C27.1495 111.063 28.5845 114.509 28.5845 118.528C28.5845 122.433 27.1495 125.822 24.2796 128.693C21.5245 131.564 18.138 133 14.1201 133Z" fill="#DC3131"/>
<path d="M93.7014 90.4469L90.2575 0H115.398L111.954 90.4469H93.7014ZM102.828 133C98.9247 133 95.5956 131.564 92.8404 128.693C90.0853 125.822 88.7077 122.433 88.7077 118.528C88.7077 114.509 90.0853 111.063 92.8404 108.192C95.5956 105.32 98.9247 103.885 102.828 103.885C106.731 103.885 110.117 105.32 112.987 108.192C115.857 111.063 117.292 114.509 117.292 118.528C117.292 122.433 115.857 125.822 112.987 128.693C110.232 131.564 106.846 133 102.828 133Z" fill="#DC3131"/>
<path d="M182.409 90.4469L178.965 0H204.106L200.662 90.4469H182.409ZM191.536 133C187.632 133 184.303 131.564 181.548 128.693C178.793 125.822 177.415 122.433 177.415 118.528C177.415 114.509 178.793 111.063 181.548 108.192C184.303 105.32 187.632 103.885 191.536 103.885C195.439 103.885 198.825 105.32 201.695 108.192C204.565 111.063 206 114.509 206 118.528C206 122.433 204.565 125.822 201.695 128.693C198.94 131.564 195.553 133 191.536 133Z" fill="#DC3131"/>
</g>
</svg>
