<svg xmlns="http://www.w3.org/2000/svg" viewBox="0 0 407 269" width="407" height="269" fill="none">
  <rect width="407" height="269" fill="#ffffff"/>
  <ellipse cx="112" cy="158" rx="96" ry="86" fill="#ffffff"/>
  <g transform="translate(23 52) scale(1.08)">
    <path d="M177.721 12.5975V13.705H0V12.5975H177.721Z" fill="#0073D1"/>
    <path d="M177.721 22.0775V23.1849H0V22.0775H177.721Z" fill="#0073D1"/>
    <path d="M177.721 31.5574V32.6649H0V31.5574H177.721Z" fill="#0073D1"/>
    <path d="M177.721 41.0374V42.1449H0V41.0374H177.721Z" fill="#0073D1"/>
    <path d="M177.721 50.5118V51.6193H0V50.5118H177.721Z" fill="#0073D1"/>
    <path d="M177.721 59.9918V61.0993H0V59.9918H177.721Z" fill="#0073D1"/>
    <path d="M177.721 69.4718V70.5792H0V69.4718H177.721Z" fill="#0073D1"/>
    <path d="M177.721 78.9517V80.0592H0V78.9517H177.721Z" fill="#0073D1"/>
    <path d="M177.721 88.4317V89.5392H0V88.4317H177.721Z" fill="#0073D1"/>
    <path d="M177.721 97.9117V99.0191H0V97.9117H177.721Z" fill="#0073D1"/>
    <path d="M177.721 107.392V108.499H0V107.392H177.721Z" fill="#0073D1"/>
    <path d="M177.721 116.872V117.979H0V116.872H177.721Z" fill="#0073D1"/>
    <path d="M177.721 126.352V127.459H0V126.352H177.721Z" fill="#0073D1"/>
    <path d="M177.721 135.832V136.939H0V135.832H177.721Z" fill="#0073D1"/>
    <path d="M177.721 145.312V146.419H0V145.312H177.721Z" fill="#0073D1"/>
    <path d="M177.721 154.792V155.899H0V154.792H177.721Z" fill="#0073D1"/>
    <path d="M177.721 164.271V165.379H0V164.271H177.721Z" fill="#0073D1"/>
    <path d="M177.721 173.751V174.859H0V173.751H177.721Z" fill="#0073D1"/>
    <path d="M149.079 0V203.797H147.973V0H149.079Z" fill="#0073D1"/>
    <path d="M139.612 0V203.797H138.506V0H139.612Z" fill="#0073D1"/>
    <path d="M130.146 0V203.797H129.04V0H130.146Z" fill="#0073D1"/>
    <path d="M120.679 0V203.797H119.574V0H120.679Z" fill="#0073D1"/>
    <path d="M111.213 0V203.797H110.107V0H111.213Z" fill="#0073D1"/>
    <path d="M101.747 0V203.797H100.641V0H101.747Z" fill="#0073D1"/>
    <path d="M92.2804 0V203.797H91.1745V0H92.2804Z" fill="#0073D1"/>
    <path d="M82.8141 0V203.797H81.7082V0H82.8141Z" fill="#0073D1"/>
    <path d="M73.3477 0V203.797H72.2418V0H73.3477Z" fill="#0073D1"/>
    <path d="M63.8813 0V203.797H62.7754V0H63.8813Z" fill="#0073D1"/>
    <path d="M54.415 0V203.797H53.3091V0H54.415Z" fill="#0073D1"/>
    <path d="M44.9486 0V203.797H43.8427V0H44.9486Z" fill="#0073D1"/>
    <path d="M35.4823 0V203.797H34.3764V0H35.4823Z" fill="#0073D1"/>
    <path d="M26.0159 0V203.797H24.91V0H26.0159Z" fill="#0073D1"/>
  </g>
  <path d="M188 132C230 126 320 118 392 128V162C320 152 230 160 188 166Z" fill="#ffffff"/>
  <ellipse cx="112" cy="158" rx="96" ry="86" fill="none" stroke="#e8e8e8" stroke-width="2"/>
</svg>
