<svg preserveAspectRatio="none" width="100%" height="100%" overflow="visible" style="display: block;" viewBox="0 0 51.4598 51.4598" fill="none" xmlns="http://www.w3.org/2000/svg">
<g id="ball">
<path d="M51.4598 25.7286C51.4598 31.2002 49.7525 36.2711 46.8379 40.4414C46.3243 41.1808 45.7732 41.8906 45.1843 42.5682C40.4683 48.0129 33.5017 51.4598 25.7313 51.4598C17.9608 51.4598 10.9943 48.0129 6.27553 42.5682C5.68669 41.8906 5.1355 41.1808 4.62195 40.4414C1.70735 36.2711 0 31.2002 0 25.7286C0 20.257 1.70735 15.186 4.62195 11.0158C5.1355 10.2764 5.68938 9.56655 6.27821 8.88898C10.9943 3.44428 17.9608 0 25.7313 0C33.5017 0 40.4656 3.44428 45.1816 8.88898C45.7705 9.56655 46.3243 10.2764 46.8379 11.0158C49.7525 15.186 51.4598 20.257 51.4598 25.7286Z" fill="#FF6969"/>
<path d="M18.6142 25.7286C18.6142 31.0711 16.3502 35.3731 11.6933 38.8765C11.0991 39.3229 10.4458 39.7154 9.75476 40.1295C8.65775 40.7828 7.47202 41.4927 6.27553 42.5682C5.68669 41.8906 5.1355 41.1808 4.62195 40.4414C5.95288 39.2691 7.24616 38.4974 8.37274 37.8225C9.03149 37.4273 9.59881 37.0885 10.0774 36.7282C14.0675 33.7249 15.9254 30.2295 15.9254 25.7286C15.9254 21.2276 14.0675 17.7323 10.0774 14.7289C9.59881 14.3686 9.03149 14.0299 8.37274 13.6373C7.24616 12.9624 5.95288 12.1908 4.62195 11.0158C5.1355 10.2764 5.68938 9.56655 6.27821 8.88898C7.4747 9.96717 8.66044 10.6743 9.75476 11.3304C10.4458 11.7444 11.0991 12.1343 11.6933 12.5806C16.3502 16.0867 18.6142 20.386 18.6142 25.7286Z" fill="#ffffff"/>
<path d="M45.1816 8.88898C43.9878 9.96717 42.8021 10.6743 41.7078 11.3304C41.0141 11.7444 40.3607 12.1343 39.7665 12.5806C35.1096 16.0867 32.8457 20.386 32.8457 25.7286C32.8457 31.0711 35.1096 35.3731 39.7665 38.8765C40.3607 39.3229 41.0141 39.7154 41.7078 40.1295C42.8021 40.7828 43.9905 41.4927 45.1843 42.5682C45.7732 41.8906 46.3243 41.1808 46.8379 40.4414C45.507 39.2691 44.2137 38.4974 43.0871 37.8225C42.4284 37.4273 41.8637 37.0885 41.3824 36.7282C37.3923 33.7249 35.5344 30.2295 35.5344 25.7286C35.5344 21.2276 37.3923 17.7323 41.3824 14.7289C41.8637 14.3686 42.431 14.0299 43.0871 13.6373C44.2137 12.9624 45.507 12.1908 46.8379 11.0158L45.1816 8.88898Z" fill="#ffffff"/>
</g>
</svg>
