<svg preserveAspectRatio="none" width="100%" height="100%" overflow="visible" style="display: block;" viewBox="0 0 453.25 334.2" fill="none" xmlns="http://www.w3.org/2000/svg">
<g id="paper" filter="url(#filter0_d_0_20)">
<path d="M407 28L421.25 38.3926L407 48.7842L421.25 59.1768L407 69.5693L421.25 79.9619L407 90.3535L421.25 100.746L407 111.139L421.25 121.53L407 131.923L421.25 142.315L407 152.708L421.25 163.1L407 173.492L421.25 183.885L407 194.277L421.25 204.669L407 215.062L421.25 225.454L407 235.846L421.25 246.238L407 256.631L421.25 267.023L407 277.415L421.25 287.808L407 298.2V298H32V28H407Z" fill="#ffffff"/>
</g>
<defs>
<filter id="filter0_d_0_20" x="0" y="0" width="453.25" height="334.2" filterUnits="userSpaceOnUse" color-interpolation-filters="sRGB">
<feFlood flood-opacity="0" result="BackgroundImageFix"/>
<feColorMatrix in="SourceAlpha" type="matrix" values="0 0 0 0 0 0 0 0 0 0 0 0 0 0 0 0 0 0 127 0" result="hardAlpha"/>
<feOffset dy="4"/>
<feGaussianBlur stdDeviation="16"/>
<feComposite in2="hardAlpha" operator="out"/>
<feColorMatrix type="matrix" values="0 0 0 0 0 0 0 0 0 0 0 0 0 0 0 0 0 0 0.25 0"/>
<feBlend mode="normal" in2="BackgroundImageFix" result="effect1_dropShadow_0_20"/>
<feBlend mode="normal" in="SourceGraphic" in2="effect1_dropShadow_0_20" result="shape"/>
</filter>
</defs>
</svg>
