<svg preserveAspectRatio="none" width="100%" height="100%" overflow="visible" style="display: block;" viewBox="0 0 116 116" fill="none" xmlns="http://www.w3.org/2000/svg">
<g id="Vector">
<path d="M116 57.997C116 70.331 112.151 81.7619 105.581 91.1624C104.424 92.8291 103.181 94.4292 101.854 95.9565C91.223 108.23 75.5191 116 58.003 116C40.487 116 24.7831 108.23 14.1462 95.9565C12.8189 94.4292 11.5764 92.8291 10.4187 91.1624C3.84869 81.7619 0 70.331 0 57.997C0 45.663 3.84869 34.2321 10.4187 24.8316C11.5764 23.1648 12.8249 21.5648 14.1523 20.0374C24.7831 7.76404 40.487 0 58.003 0C75.5191 0 91.2169 7.76404 101.848 20.0374C103.175 21.5648 104.424 23.1648 105.581 24.8316C112.151 34.2321 116 45.663 116 57.997Z" fill="#C7F900"/>
<path d="M41.9598 57.997C41.9598 70.04 36.8565 79.7375 26.359 87.6349C25.0195 88.641 23.5467 89.5259 21.989 90.4593C19.5162 91.9321 16.8433 93.5322 14.1462 95.9565C12.8189 94.4292 11.5764 92.8291 10.4187 91.1624C13.4189 88.5198 16.3342 86.7803 18.8737 85.259C20.3586 84.3681 21.6375 83.6044 22.7163 82.7922C31.7108 76.0222 35.8989 68.143 35.8989 57.997C35.8989 47.851 31.7108 39.9718 22.7163 33.2017C21.6375 32.3896 20.3586 31.6259 18.8737 30.741C16.3342 29.2197 13.4189 27.4802 10.4187 24.8316C11.5764 23.1648 12.8249 21.5648 14.1523 20.0374C16.8494 22.4678 19.5222 24.0619 21.989 25.5407C23.5467 26.4741 25.0195 27.3529 26.359 28.3591C36.8565 36.2625 41.9598 45.9539 41.9598 57.997Z" fill="var(--fill-0, white)"/>
<path d="M101.848 20.0374C99.1567 22.4678 96.4838 24.0619 94.017 25.5407C92.4533 26.4741 90.9805 27.3529 89.6411 28.3591C79.1435 36.2625 74.0402 45.9539 74.0402 57.997C74.0402 70.04 79.1435 79.7375 89.6411 87.6349C90.9805 88.641 92.4533 89.5259 94.017 90.4593C96.4838 91.9321 99.1628 93.5322 101.854 95.9565C103.181 94.4292 104.424 92.8291 105.581 91.1624C102.581 88.5198 99.6658 86.7803 97.1263 85.259C95.6414 84.3681 94.3686 83.6044 93.2837 82.7922C84.2893 76.0222 80.1012 68.143 80.1012 57.997C80.1012 47.851 84.2893 39.9718 93.2837 33.2017C94.3686 32.3896 95.6474 31.6259 97.1263 30.741C99.6658 29.2197 102.581 27.4802 105.581 24.8316L101.848 20.0374Z" fill="var(--fill-0, white)"/>
</g>
</svg>
