<svg preserveAspectRatio="none" width="100%" height="100%" overflow="visible" style="display: block;" viewBox="0 0 158.141 274.797" fill="none" xmlns="http://www.w3.org/2000/svg">
<path id="Vector (Stroke)" d="M52.1701 190.994C60.5332 194.746 69.5823 196.798 79.0706 196.798C88.5561 196.798 97.6026 194.747 105.964 190.998C103.271 195.019 100.273 199.859 97.2756 205.405C89.2921 220.176 81.2453 240.071 79.068 262.874C76.8907 240.071 68.8438 220.176 60.8604 205.405C57.8621 199.858 54.8634 195.016 52.1701 190.994ZM78.4956 274.797C78.4956 270.745 78.6962 266.767 79.068 262.874C79.4398 266.767 79.6404 270.745 79.6404 274.797H85.1309C85.1309 248.492 94.0775 225.281 103.111 208.568C107.62 200.226 112.128 193.545 115.501 188.959C117.186 186.667 118.586 184.902 119.557 183.717C120.043 183.125 120.421 182.678 120.675 182.383C120.801 182.236 120.896 182.127 120.958 182.057L121.025 181.981L121.041 181.963C121.041 181.963 121.036 181.958 120.979 181.907C143.447 164.396 158.141 133.261 158.141 98.3991C158.141 44.7938 123.4 0 79.0706 0C34.7415 0 0 44.7938 0 98.3991C3.1033e-05 133.26 14.6934 164.395 37.1616 181.906C37.1079 181.955 37.0963 181.965 37.0963 181.965L37.1104 181.981C37.1242 181.996 37.147 182.022 37.1779 182.057C37.2396 182.127 37.3348 182.236 37.4613 182.383C37.7146 182.678 38.0929 183.125 38.5786 183.717C39.55 184.902 40.9499 186.667 42.6355 188.959C46.0083 193.545 50.5164 200.226 55.0253 208.568C64.0585 225.281 73.0051 248.492 73.0051 274.797H78.4956ZM79.0706 6.64484C118.416 6.64484 151.506 46.9857 151.506 98.3991C151.506 149.812 118.416 190.153 79.0706 190.153C39.7254 190.153 6.63534 149.812 6.6353 98.3991C6.6353 46.9857 39.7254 6.64484 79.0706 6.64484Z" fill="var(--fill-0, #0073D1)"/>
</svg>
