<svg preserveAspectRatio="xMidYMid meet" width="100%" height="100%" overflow="visible" style="display: block;" viewBox="0 0 455 102" fill="none" xmlns="http://www.w3.org/2000/svg">
<g id="Vector">
<path d="M395.331 53.0341H58.661C50.3862 53.0341 42.6082 49.8267 36.7575 44.0017L1.3314 8.72958C-0.443799 6.96219 -0.443799 4.09634 1.3314 2.32894C3.10659 0.561552 5.9851 0.561552 7.76029 2.32894L43.1864 37.5993C47.3203 41.715 52.8156 43.9806 58.661 43.9806H395.331C401.177 43.9806 406.672 41.715 410.806 37.5993L447.24 1.32554C449.015 -0.441848 451.893 -0.441848 453.669 1.32554C455.444 3.09294 455.444 5.95879 453.669 7.72618L417.235 44.0017C411.384 49.8267 403.606 53.0341 395.331 53.0341Z" fill="var(--fill-0, black)"/>
<path d="M343.124 48.6403L334.036 48.392C334.039 48.2442 334.239 33.4203 323.234 22.2191C314.652 13.4825 301.516 9.05348 284.194 9.05348H170.804C153.482 9.05348 140.347 13.4825 131.764 22.2191C120.759 33.4203 120.959 48.2442 120.963 48.392L111.874 48.6403C111.851 47.8868 111.489 30.0105 125.153 16.0033C135.513 5.38491 150.872 6.43218e-08 170.806 6.43218e-08H284.196C304.13 6.43218e-08 319.488 5.38491 329.845 16.0033C343.509 30.0122 343.145 47.8868 343.124 48.6403Z" fill="var(--fill-0, black)"/>
<path d="M261.078 102H193.922C180.722 102 169.982 91.3076 169.982 78.1649V4.90258H176.043V78.1631C176.043 87.9788 184.063 95.9655 193.922 95.9655H261.078C270.937 95.9655 278.959 87.9788 278.959 78.1631V4.90258H285.02V78.1631C285.02 91.3059 274.28 101.998 261.078 101.998V102Z" fill="var(--fill-0, black)"/>
</g>
</svg>
