<svg preserveAspectRatio="xMidYMid meet" width="100%" height="100%" overflow="visible" style="display: block;" viewBox="0 0 53.9407 53.9407" fill="none" xmlns="http://www.w3.org/2000/svg">
<g id="Vector">
<path d="M53.9407 26.969C53.9407 32.7043 52.1511 38.0198 49.096 42.3911C48.5576 43.1661 47.9799 43.9102 47.3627 44.6204C42.4192 50.3276 35.1169 53.9407 26.9718 53.9407C18.8267 53.9407 11.5243 50.3276 6.57807 44.6204C5.96085 43.9102 5.38308 43.1661 4.84477 42.3911C1.78966 38.0198 0 32.7043 0 26.969C0 21.2336 1.78966 15.9181 4.84477 11.5468C5.38308 10.7718 5.96366 10.0277 6.58089 9.31752C11.5243 3.61033 18.8267 0 26.9718 0C35.1169 0 42.4164 3.61033 47.3598 9.31752C47.9771 10.0277 48.5576 10.7718 49.096 11.5468C52.1511 15.9181 53.9407 21.2336 53.9407 26.969Z" fill="#C7F900"/>
<path d="M19.5116 26.969C19.5116 32.569 17.1385 37.0784 12.2571 40.7508C11.6342 41.2186 10.9494 41.6301 10.225 42.0641C9.07514 42.749 7.83224 43.493 6.57807 44.6204C5.96085 43.9102 5.38308 43.1661 4.84477 42.3911C6.23986 41.1622 7.5955 40.3534 8.77639 39.646C9.46689 39.2317 10.0616 38.8766 10.5632 38.4989C14.7457 35.3508 16.6932 31.6869 16.6932 26.969C16.6932 22.251 14.7457 18.5871 10.5632 15.439C10.0616 15.0614 9.46689 14.7062 8.77639 14.2948C7.5955 13.5873 6.23986 12.7785 4.84477 11.5468C5.38308 10.7718 5.96366 10.0277 6.58089 9.31752C7.83506 10.4477 9.07796 11.1889 10.225 11.8766C10.9494 12.3106 11.6342 12.7193 12.2571 13.1871C17.1385 16.8623 19.5116 21.3689 19.5116 26.969Z" fill="var(--fill-0, white)"/>
<path d="M47.3598 9.31752C46.1085 10.4477 44.8656 11.1889 43.7185 11.8766C42.9914 12.3106 42.3065 12.7193 41.6836 13.1871C36.8022 16.8623 34.4292 21.3689 34.4292 26.969C34.4292 32.569 36.8022 37.0784 41.6836 40.7508C42.3065 41.2186 42.9914 41.6301 43.7185 42.0641C44.8656 42.749 46.1113 43.493 47.3627 44.6204C47.9799 43.9102 48.5576 43.1661 49.096 42.3911C47.7009 41.1622 46.3452 40.3534 45.1643 39.646C44.4738 39.2317 43.882 38.8766 43.3775 38.4989C39.195 35.3508 37.2475 31.6869 37.2475 26.969C37.2475 22.251 39.195 18.5871 43.3775 15.439C43.882 15.0614 44.4766 14.7062 45.1643 14.2948C46.3452 13.5873 47.7009 12.7785 49.096 11.5468L47.3598 9.31752Z" fill="var(--fill-0, white)"/>
</g>
</svg>
