<svg preserveAspectRatio="none" width="100%" height="100%" overflow="visible" style="display: block;" viewBox="0 0 107.949 107.949" fill="none" xmlns="http://www.w3.org/2000/svg">
<g id="Group 75">
<g id="Vector">
<path d="M42.5705 96.5433C33.5182 94.1178 25.8855 89.0451 20.2782 82.3744C19.2825 81.197 18.3525 79.9704 17.4926 78.6959C10.5754 68.4799 7.96088 55.4262 11.4055 42.5705C14.8502 29.7148 23.6413 19.7173 34.741 14.3241C36.123 13.6503 37.5417 13.053 38.9926 12.5312C47.184 9.55788 56.3305 8.98117 65.3828 11.4067C74.4352 13.8323 82.0678 18.905 87.6752 25.5756C88.6708 26.7531 89.5996 27.9841 90.4596 29.2586C97.3768 39.4746 99.9868 52.5271 96.5421 65.3828C93.0975 78.2385 84.3121 88.2328 73.2136 93.6215C71.8316 94.2953 70.4117 94.897 68.9607 95.4189C60.7693 98.3922 51.6229 98.9689 42.5705 96.5433Z" fill="#C7F900"/>
<path d="M57.1311 42.2025C48.2923 39.8342 42.1785 34.1816 38.4468 24.924C37.9718 23.7431 37.612 22.4881 37.2332 21.1613C36.6386 19.0568 35.9899 16.7804 34.741 14.3241C36.123 13.6503 37.5417 13.053 38.9926 12.5312C40.3421 15.2528 41.0454 17.7345 41.6626 19.8976C42.0244 21.1626 42.3334 22.2514 42.7173 23.2029C45.9173 31.1356 50.8765 35.7589 58.323 37.7542C65.7695 39.7495 72.376 38.2252 79.1136 32.9553C79.9218 32.3232 80.7338 31.5348 81.6753 30.6189C83.2912 29.0543 85.1412 27.2567 87.6752 25.5756C88.6708 26.7531 89.5996 27.9841 90.4596 29.2586C88.1454 30.7602 86.4498 32.4084 84.8793 33.928C83.8879 34.8877 82.9533 35.7958 81.9515 36.581C74.0864 42.7313 65.9699 44.5709 57.1311 42.2025Z" fill="var(--fill-0, white)"/>
<path d="M73.2136 93.6215C71.959 91.1685 71.3147 88.8933 70.7145 86.792C70.3369 85.4608 69.9816 84.207 69.5066 83.0261C65.7703 73.7673 59.6611 68.1159 50.8222 65.7475C41.9834 63.3792 33.8625 65.2176 26.0019 71.369C25 72.1542 24.0609 73.0612 23.0684 74.0253C21.5023 75.5461 19.8011 77.1976 17.4926 78.6959C18.3525 79.9704 19.2825 81.197 20.2782 82.3744C22.8077 80.6922 24.6576 78.8946 26.2736 77.3299C27.2195 76.4153 28.0303 75.6314 28.8397 74.9948C35.5773 69.7249 42.1838 68.2006 49.6303 70.1959C57.0768 72.1912 62.036 76.8145 65.236 84.7472C65.6187 85.7031 65.9277 86.7919 66.2863 88.0513C66.9034 90.2144 67.6068 92.6961 68.9607 95.4189L73.2136 93.6215Z" fill="var(--fill-0, white)"/>
</g>
<g id="Ellipse 35" filter="url(#filter0_i_0_6)">
<circle cx="54.0005" cy="53.9956" r="45" fill="var(--fill-0, white)" fill-opacity="0.5"/>
</g>
</g>
<defs>
<filter id="filter0_i_0_6" x="9.00049" y="8.99561" width="90" height="90" filterUnits="userSpaceOnUse" color-interpolation-filters="sRGB">
<feFlood flood-opacity="0" result="BackgroundImageFix"/>
<feBlend mode="normal" in="SourceGraphic" in2="BackgroundImageFix" result="shape"/>
<feColorMatrix in="SourceAlpha" type="matrix" values="0 0 0 0 0 0 0 0 0 0 0 0 0 0 0 0 0 0 127 0" result="hardAlpha"/>
<feOffset/>
<feGaussianBlur stdDeviation="12"/>
<feComposite in2="hardAlpha" operator="arithmetic" k2="-1" k3="1"/>
<feColorMatrix type="matrix" values="0 0 0 0 1 0 0 0 0 1 0 0 0 0 1 0 0 0 1 0"/>
<feBlend mode="normal" in2="shape" result="effect1_innerShadow_0_6"/>
</filter>
</defs>
</svg>
