<svg preserveAspectRatio="none" width="100%" height="100%" overflow="visible" style="display: block;" viewBox="0 0 705.548 623.271" fill="none" xmlns="http://www.w3.org/2000/svg">
<g id="light">
<path d="M495.53 30.1771L416.313 204.212L569.031 108.493L495.53 30.1771Z" fill="var(--fill-0, white)" fill-opacity="0.3"/>
<path d="M598.962 241.908L429.912 254.961L589.162 269.753L598.962 241.908Z" fill="var(--fill-0, white)" fill-opacity="0.3"/>
<path d="M705.548 368.953L440.947 336.757L636.131 495.128L705.548 368.953Z" fill="var(--fill-0, white)" fill-opacity="0.3"/>
<path d="M413.291 614.569L392.057 423.131L449.224 555.397L413.291 614.569Z" fill="var(--fill-0, white)" fill-opacity="0.3"/>
<path d="M156.774 555.397L279.274 418.78V623.271C279.274 619.094 197.607 576.281 156.774 555.397Z" fill="var(--fill-0, white)" fill-opacity="0.3"/>
<path d="M79.2169 427.255L217.325 381.396L96.2051 466.318L79.2169 427.255Z" fill="var(--fill-0, white)" fill-opacity="0.3"/>
<path d="M156.774 72.4841L300.061 247.129L64.9497 169.943L156.774 72.4841Z" fill="var(--fill-0, white)" fill-opacity="0.3"/>
<path d="M75.9503 269.753L201.627 304.058L74.4617 295.81L75.9503 269.753Z" fill="var(--fill-0, white)" fill-opacity="0.3"/>
<path d="M0 341.108L184.567 333.276L25.3168 422.904L0 341.108Z" fill="var(--fill-0, white)" fill-opacity="0.3"/>
<path d="M283.728 0L326.194 191.438L367.845 14.7929L283.728 0Z" fill="var(--fill-0, white)" fill-opacity="0.3"/>
</g>
</svg>
