<svg preserveAspectRatio="none" width="100%" height="100%" overflow="visible" style="display: block;" viewBox="0 0 531.456 482.456" fill="none" xmlns="http://www.w3.org/2000/svg">
<g id="Group 62">
<g id="Vector">
<path d="M461.179 358.907C455.187 357.301 450.135 353.943 446.423 349.527C445.764 348.748 445.148 347.936 444.579 347.092C440 340.33 438.27 331.689 440.55 323.179C442.83 314.67 448.649 308.052 455.997 304.482C456.911 304.036 457.851 303.64 458.811 303.295C464.233 301.327 470.288 300.945 476.28 302.551C482.272 304.156 487.325 307.514 491.036 311.93C491.695 312.709 492.31 313.524 492.879 314.368C497.458 321.13 499.186 329.77 496.906 338.28C494.626 346.79 488.81 353.405 481.463 356.972C480.549 357.418 479.609 357.817 478.648 358.162C473.226 360.13 467.172 360.512 461.179 358.907Z" fill="#C7F900"/>
<path d="M470.818 322.936C464.967 321.368 460.92 317.626 458.45 311.498C458.135 310.717 457.897 309.886 457.646 309.008C457.253 307.615 456.823 306.108 455.997 304.482C456.911 304.036 457.851 303.64 458.811 303.295C459.704 305.097 460.17 306.739 460.578 308.171C460.818 309.009 461.022 309.729 461.277 310.359C463.395 315.61 466.678 318.671 471.607 319.991C476.536 321.312 480.909 320.303 485.369 316.815C485.904 316.396 486.441 315.874 487.065 315.268C488.134 314.232 489.359 313.042 491.036 311.93C491.695 312.709 492.31 313.524 492.879 314.368C491.348 315.362 490.225 316.453 489.186 317.459C488.529 318.094 487.911 318.695 487.247 319.215C482.041 323.286 476.669 324.504 470.818 322.936Z" fill="var(--fill-0, white)"/>
<path d="M481.463 356.972C480.633 355.349 480.207 353.843 479.809 352.452C479.559 351.57 479.324 350.741 479.01 349.959C476.536 343.83 472.492 340.089 466.642 338.521C460.791 336.954 455.415 338.171 450.212 342.242C449.549 342.762 448.927 343.363 448.27 344.001C447.233 345.008 446.107 346.101 444.579 347.092C445.148 347.936 445.764 348.748 446.423 349.527C448.097 348.414 449.322 347.224 450.392 346.188C451.018 345.583 451.555 345.064 452.09 344.643C456.55 341.154 460.923 340.145 465.853 341.466C470.782 342.787 474.065 345.847 476.183 351.098C476.436 351.731 476.641 352.452 476.878 353.285C477.286 354.717 477.752 356.36 478.648 358.162L481.463 356.972Z" fill="var(--fill-0, white)"/>
</g>
<g id="Vector_2">
<path d="M414.179 415.907C408.187 414.301 403.135 410.943 399.423 406.527C398.764 405.748 398.148 404.936 397.579 404.092C393 397.33 391.27 388.689 393.55 380.179C395.83 371.67 401.649 365.052 408.997 361.482C409.911 361.036 410.851 360.64 411.811 360.295C417.233 358.327 423.288 357.945 429.28 359.551C435.272 361.156 440.325 364.514 444.036 368.93C444.695 369.709 445.31 370.524 445.879 371.368C450.458 378.13 452.186 386.77 449.906 395.28C447.626 403.79 441.81 410.405 434.463 413.972C433.549 414.418 432.609 414.817 431.648 415.162C426.226 417.13 420.172 417.512 414.179 415.907Z" fill="#C7F900"/>
<path d="M423.818 379.936C417.967 378.368 413.92 374.626 411.45 368.498C411.135 367.717 410.897 366.886 410.646 366.008C410.253 364.615 409.823 363.108 408.997 361.482C409.911 361.036 410.851 360.64 411.811 360.295C412.704 362.097 413.17 363.739 413.578 365.171C413.818 366.009 414.022 366.729 414.277 367.359C416.395 372.61 419.678 375.671 424.607 376.991C429.536 378.312 433.909 377.303 438.369 373.815C438.904 373.396 439.441 372.874 440.065 372.268C441.134 371.232 442.359 370.042 444.036 368.93C444.695 369.709 445.31 370.524 445.879 371.368C444.348 372.362 443.225 373.453 442.186 374.459C441.529 375.094 440.911 375.695 440.247 376.215C435.041 380.286 429.669 381.504 423.818 379.936Z" fill="var(--fill-0, white)"/>
<path d="M434.463 413.972C433.633 412.349 433.207 410.843 432.809 409.452C432.559 408.57 432.324 407.741 432.01 406.959C429.536 400.83 425.492 397.089 419.642 395.521C413.791 393.954 408.415 395.171 403.212 399.242C402.549 399.762 401.927 400.363 401.27 401.001C400.233 402.008 399.107 403.101 397.579 404.092C398.148 404.936 398.764 405.748 399.423 406.527C401.097 405.414 402.322 404.224 403.392 403.188C404.018 402.583 404.555 402.064 405.09 401.643C409.55 398.154 413.923 397.145 418.853 398.466C423.782 399.787 427.065 402.847 429.183 408.098C429.436 408.731 429.641 409.452 429.878 410.285C430.286 411.717 430.752 413.36 431.648 415.162L434.463 413.972Z" fill="var(--fill-0, white)"/>
</g>
<g id="Vector_3">
<path d="M343.179 455.907C337.187 454.301 332.135 450.943 328.423 446.527C327.764 445.748 327.148 444.936 326.579 444.092C322 437.33 320.27 428.689 322.55 420.179C324.83 411.67 330.649 405.052 337.997 401.482C338.911 401.036 339.851 400.64 340.811 400.295C346.233 398.327 352.288 397.945 358.28 399.551C364.272 401.156 369.325 404.514 373.036 408.93C373.695 409.709 374.31 410.524 374.879 411.368C379.458 418.13 381.186 426.77 378.906 435.28C376.626 443.79 370.81 450.405 363.463 453.972C362.549 454.418 361.609 454.817 360.648 455.162C355.226 457.13 349.172 457.512 343.179 455.907Z" fill="#C7F900"/>
<path d="M352.818 419.936C346.967 418.368 342.92 414.626 340.45 408.498C340.135 407.717 339.897 406.886 339.646 406.008C339.253 404.615 338.823 403.108 337.997 401.482C338.911 401.036 339.851 400.64 340.811 400.295C341.704 402.097 342.17 403.739 342.578 405.171C342.818 406.009 343.022 406.729 343.277 407.359C345.395 412.61 348.678 415.671 353.607 416.991C358.536 418.312 362.909 417.303 367.369 413.815C367.904 413.396 368.441 412.874 369.065 412.268C370.134 411.232 371.359 410.042 373.036 408.93C373.695 409.709 374.31 410.524 374.879 411.368C373.348 412.362 372.225 413.453 371.186 414.459C370.529 415.094 369.911 415.695 369.247 416.215C364.041 420.286 358.669 421.504 352.818 419.936Z" fill="var(--fill-0, white)"/>
<path d="M363.463 453.972C362.633 452.349 362.207 450.843 361.809 449.452C361.559 448.57 361.324 447.741 361.01 446.959C358.536 440.83 354.492 437.089 348.642 435.521C342.791 433.954 337.415 435.171 332.212 439.242C331.549 439.762 330.927 440.363 330.27 441.001C329.233 442.008 328.107 443.101 326.579 444.092C327.148 444.936 327.764 445.748 328.423 446.527C330.097 445.414 331.322 444.224 332.392 443.188C333.018 442.583 333.555 442.064 334.09 441.643C338.55 438.154 342.923 437.145 347.853 438.466C352.782 439.787 356.065 442.847 358.183 448.098C358.436 448.731 358.641 449.452 358.878 450.285C359.286 451.717 359.752 453.36 360.648 455.162L363.463 453.972Z" fill="var(--fill-0, white)"/>
</g>
<g id="Vector_4">
<path d="M258.179 474.907C252.187 473.301 247.135 469.943 243.423 465.527C242.764 464.748 242.148 463.936 241.579 463.092C237 456.33 235.27 447.689 237.55 439.179C239.83 430.67 245.649 424.052 252.997 420.482C253.911 420.036 254.851 419.64 255.811 419.295C261.233 417.327 267.288 416.945 273.28 418.551C279.272 420.156 284.325 423.514 288.036 427.93C288.695 428.709 289.31 429.524 289.879 430.368C294.458 437.13 296.186 445.77 293.906 454.28C291.626 462.79 285.81 469.405 278.463 472.972C277.549 473.418 276.609 473.817 275.648 474.162C270.226 476.13 264.172 476.512 258.179 474.907Z" fill="#C7F900"/>
<path d="M267.818 438.936C261.967 437.368 257.92 433.626 255.45 427.498C255.135 426.717 254.897 425.886 254.646 425.008C254.253 423.615 253.823 422.108 252.997 420.482C253.911 420.036 254.851 419.64 255.811 419.295C256.704 421.097 257.17 422.739 257.578 424.171C257.818 425.009 258.022 425.729 258.277 426.359C260.395 431.61 263.678 434.671 268.607 435.991C273.536 437.312 277.909 436.303 282.369 432.815C282.904 432.396 283.441 431.874 284.065 431.268C285.134 430.232 286.359 429.042 288.036 427.93C288.695 428.709 289.31 429.524 289.879 430.368C288.348 431.362 287.225 432.453 286.186 433.459C285.529 434.094 284.911 434.695 284.247 435.215C279.041 439.286 273.669 440.504 267.818 438.936Z" fill="var(--fill-0, white)"/>
<path d="M278.463 472.972C277.633 471.349 277.207 469.843 276.809 468.452C276.559 467.57 276.324 466.741 276.01 465.959C273.536 459.83 269.492 456.089 263.642 454.521C257.791 452.954 252.415 454.171 247.212 458.242C246.549 458.762 245.927 459.363 245.27 460.001C244.233 461.008 243.107 462.101 241.579 463.092C242.148 463.936 242.764 464.748 243.423 465.527C245.097 464.414 246.322 463.224 247.392 462.188C248.018 461.583 248.555 461.064 249.09 460.643C253.55 457.154 257.923 456.145 262.853 457.466C267.782 458.787 271.065 461.847 273.183 467.098C273.436 467.731 273.641 468.452 273.878 469.285C274.286 470.717 274.752 472.36 275.648 474.162L278.463 472.972Z" fill="var(--fill-0, white)"/>
</g>
<g id="Vector_5">
<path d="M181.179 471.907C175.187 470.301 170.135 466.943 166.423 462.527C165.764 461.748 165.148 460.936 164.579 460.092C160 453.33 158.27 444.689 160.55 436.179C162.83 427.67 168.649 421.052 175.997 417.482C176.911 417.036 177.851 416.64 178.811 416.295C184.233 414.327 190.288 413.945 196.28 415.551C202.272 417.156 207.325 420.514 211.036 424.93C211.695 425.709 212.31 426.524 212.879 427.368C217.458 434.13 219.186 442.77 216.906 451.28C214.626 459.79 208.81 466.405 201.463 469.972C200.549 470.418 199.609 470.817 198.648 471.162C193.226 473.13 187.172 473.512 181.179 471.907Z" fill="#C7F900"/>
<path d="M190.818 435.936C184.967 434.368 180.92 430.626 178.45 424.498C178.135 423.717 177.897 422.886 177.646 422.008C177.253 420.615 176.823 419.108 175.997 417.482C176.911 417.036 177.851 416.64 178.811 416.295C179.704 418.097 180.17 419.739 180.578 421.171C180.818 422.009 181.022 422.729 181.277 423.359C183.395 428.61 186.678 431.671 191.607 432.991C196.536 434.312 200.909 433.303 205.369 429.815C205.904 429.396 206.441 428.874 207.065 428.268C208.134 427.232 209.359 426.042 211.036 424.93C211.695 425.709 212.31 426.524 212.879 427.368C211.348 428.362 210.225 429.453 209.186 430.459C208.529 431.094 207.911 431.695 207.247 432.215C202.041 436.286 196.669 437.504 190.818 435.936Z" fill="var(--fill-0, white)"/>
<path d="M201.463 469.972C200.633 468.349 200.207 466.843 199.809 465.452C199.559 464.57 199.324 463.741 199.01 462.959C196.536 456.83 192.492 453.089 186.642 451.521C180.791 449.954 175.415 451.171 170.212 455.242C169.549 455.762 168.927 456.363 168.27 457.001C167.233 458.008 166.107 459.101 164.579 460.092C165.148 460.936 165.764 461.748 166.423 462.527C168.097 461.414 169.322 460.224 170.392 459.188C171.018 458.583 171.555 458.064 172.09 457.643C176.55 454.154 180.923 453.145 185.853 454.466C190.782 455.787 194.065 458.847 196.183 464.098C196.436 464.731 196.641 465.452 196.878 466.285C197.286 467.717 197.752 469.36 198.648 471.162L201.463 469.972Z" fill="var(--fill-0, white)"/>
</g>
<g id="Vector_6">
<path d="M105.179 440.907C99.1872 439.301 94.1348 435.944 90.4231 431.528C89.764 430.749 89.1484 429.937 88.5792 429.093C84.0003 422.331 82.2697 413.69 84.5499 405.18C86.83 396.67 92.6492 390.052 99.9967 386.482C100.911 386.036 101.851 385.641 102.811 385.295C108.233 383.327 114.288 382.946 120.28 384.551C126.272 386.157 131.325 389.515 135.036 393.93C135.695 394.71 136.31 395.524 136.879 396.368C141.458 403.131 143.186 411.771 140.906 420.28C138.626 428.79 132.81 435.406 125.463 438.973C124.549 439.419 123.609 439.817 122.648 440.163C117.226 442.131 111.172 442.513 105.179 440.907Z" fill="#C7F900"/>
<path d="M114.818 404.936C108.967 403.369 104.92 399.627 102.45 393.499C102.135 392.717 101.897 391.886 101.646 391.008C101.253 389.615 100.823 388.108 99.9967 386.482C100.911 386.036 101.851 385.641 102.811 385.295C103.704 387.097 104.17 388.74 104.578 390.172C104.818 391.009 105.022 391.73 105.277 392.36C107.395 397.611 110.678 400.671 115.607 401.992C120.536 403.313 124.909 402.304 129.369 398.815C129.904 398.397 130.441 397.875 131.065 397.269C132.134 396.233 133.359 395.043 135.036 393.93C135.695 394.71 136.31 395.524 136.879 396.368C135.348 397.362 134.225 398.453 133.186 399.459C132.529 400.094 131.911 400.695 131.247 401.215C126.041 405.286 120.669 406.504 114.818 404.936Z" fill="var(--fill-0, white)"/>
<path d="M125.463 438.973C124.633 437.349 124.207 435.843 123.809 434.452C123.559 433.571 123.324 432.741 123.01 431.959C120.536 425.831 116.492 422.09 110.642 420.522C104.791 418.954 99.4151 420.171 94.2118 424.243C93.5487 424.763 92.9271 425.363 92.27 426.001C91.2334 427.008 90.1073 428.101 88.5792 429.093C89.1484 429.937 89.764 430.749 90.4231 431.528C92.0974 430.414 93.322 429.225 94.3917 428.189C95.0179 427.583 95.5546 427.064 96.0904 426.643C100.55 423.155 104.923 422.146 109.853 423.466C114.782 424.787 118.065 427.848 120.183 433.099C120.436 433.731 120.641 434.452 120.878 435.286C121.286 436.718 121.752 438.36 122.648 440.163L125.463 438.973Z" fill="var(--fill-0, white)"/>
</g>
<g id="Vector_7">
<path d="M56.1794 388.907C50.1872 387.301 45.1348 383.944 41.4231 379.528C40.764 378.749 40.1484 377.937 39.5792 377.093C35.0003 370.331 33.2697 361.69 35.5499 353.18C37.8301 344.67 43.6492 338.052 50.9967 334.482C51.9115 334.036 52.8506 333.641 53.811 333.295C59.2333 331.327 65.2878 330.946 71.2799 332.551C77.2721 334.157 82.3245 337.515 86.0363 341.93C86.6953 342.71 87.3102 343.524 87.8794 344.368C92.4582 351.131 94.1859 359.771 91.9057 368.28C89.6256 376.79 83.8101 383.406 76.4635 386.973C75.5487 387.419 74.6088 387.817 73.6483 388.163C68.226 390.131 62.1716 390.513 56.1794 388.907Z" fill="#C7F900"/>
<path d="M65.8177 352.936C59.9669 351.369 55.9199 347.627 53.4497 341.499C53.1353 340.717 52.8971 339.886 52.6464 339.008C52.2528 337.615 51.8234 336.108 50.9967 334.482C51.9115 334.036 52.8506 333.641 53.811 333.295C54.7043 335.097 55.1699 336.74 55.5784 338.172C55.8179 339.009 56.0225 339.73 56.2766 340.36C58.3948 345.611 61.6775 348.671 66.6067 349.992C71.5359 351.313 75.909 350.304 80.369 346.815C80.904 346.397 81.4415 345.875 82.0647 345.269C83.1344 344.233 84.3589 343.043 86.0363 341.93C86.6953 342.71 87.3102 343.524 87.8794 344.368C86.3475 345.362 85.2252 346.453 84.1856 347.459C83.5293 348.094 82.9107 348.695 82.2475 349.215C77.0413 353.286 71.6686 354.504 65.8177 352.936Z" fill="var(--fill-0, white)"/>
<path d="M76.4635 386.973C75.633 385.349 75.2065 383.843 74.8092 382.452C74.5593 381.571 74.3241 380.741 74.0096 379.959C71.5365 373.831 67.4924 370.09 61.6416 368.522C55.7908 366.954 50.4151 368.171 45.2119 372.243C44.5487 372.763 43.9271 373.363 43.27 374.001C42.2334 375.008 41.1073 376.101 39.5792 377.093C40.1484 377.937 40.764 378.749 41.4231 379.528C43.0975 378.414 44.322 377.225 45.3917 376.189C46.0179 375.583 46.5546 375.064 47.0904 374.643C51.5503 371.155 55.9234 370.146 60.8526 371.466C65.7818 372.787 69.0645 375.848 71.1827 381.099C71.4361 381.731 71.6406 382.452 71.878 383.286C72.2865 384.718 72.7521 386.36 73.6483 388.163L76.4635 386.973Z" fill="var(--fill-0, white)"/>
</g>
<g id="Vector_8">
<path d="M28.1794 321.907C22.1872 320.301 17.1348 316.944 13.4231 312.528C12.764 311.749 12.1484 310.937 11.5792 310.093C7.00032 303.331 5.26968 294.69 7.54986 286.18C9.83005 277.67 15.6492 271.052 22.9967 267.482C23.9115 267.036 24.8506 266.641 25.811 266.295C31.2333 264.327 37.2878 263.946 43.2799 265.551C49.2721 267.157 54.3245 270.515 58.0363 274.93C58.6953 275.71 59.3102 276.524 59.8794 277.368C64.4582 284.131 66.1859 292.771 63.9057 301.28C61.6256 309.79 55.8101 316.406 48.4635 319.973C47.5487 320.419 46.6088 320.817 45.6483 321.163C40.226 323.131 34.1716 323.513 28.1794 321.907Z" fill="#C7F900"/>
<path d="M37.8177 285.936C31.9669 284.369 27.9199 280.627 25.4497 274.499C25.1353 273.717 24.8971 272.886 24.6464 272.008C24.2528 270.615 23.8234 269.108 22.9967 267.482C23.9115 267.036 24.8506 266.641 25.811 266.295C26.7043 268.097 27.1699 269.74 27.5784 271.172C27.8179 272.009 28.0225 272.73 28.2766 273.36C30.3948 278.611 33.6775 281.671 38.6067 282.992C43.5359 284.313 47.909 283.304 52.369 279.815C52.904 279.397 53.4415 278.875 54.0647 278.269C55.1344 277.233 56.3589 276.043 58.0363 274.93C58.6953 275.71 59.3102 276.524 59.8794 277.368C58.3475 278.362 57.2252 279.453 56.1856 280.459C55.5293 281.094 54.9107 281.695 54.2475 282.215C49.0413 286.286 43.6686 287.504 37.8177 285.936Z" fill="var(--fill-0, white)"/>
<path d="M48.4635 319.973C47.633 318.349 47.2065 316.843 46.8092 315.452C46.5593 314.571 46.3241 313.741 46.0096 312.959C43.5365 306.831 39.4924 303.09 33.6416 301.522C27.7908 299.954 22.4151 301.171 17.2119 305.243C16.5487 305.763 15.9271 306.363 15.27 307.001C14.2334 308.008 13.1073 309.101 11.5792 310.093C12.1484 310.937 12.764 311.749 13.4231 312.528C15.0975 311.414 16.322 310.225 17.3917 309.189C18.0179 308.583 18.5546 308.064 19.0904 307.643C23.5503 304.155 27.9234 303.146 32.8526 304.466C37.7818 305.787 41.0645 308.848 43.1827 314.099C43.4361 314.731 43.6406 315.452 43.878 316.286C44.2865 317.718 44.7521 319.36 45.6483 321.163L48.4635 319.973Z" fill="var(--fill-0, white)"/>
</g>
<g id="Vector_9">
<path d="M246.179 180.907C240.187 179.301 235.135 175.943 231.423 171.527C230.764 170.748 230.148 169.936 229.579 169.092C225 162.33 223.27 153.689 225.55 145.179C227.83 136.67 233.649 130.052 240.997 126.482C241.911 126.036 242.85 125.64 243.811 125.295C249.233 123.327 255.288 122.945 261.28 124.551C267.272 126.156 272.324 129.514 276.036 133.93C276.695 134.709 277.31 135.524 277.879 136.368C282.458 143.13 284.186 151.77 281.906 160.28C279.625 168.79 273.81 175.405 266.463 178.972C265.549 179.418 264.609 179.817 263.648 180.162C258.226 182.13 252.171 182.512 246.179 180.907Z" fill="#C7F900"/>
<path d="M255.818 144.936C249.967 143.368 245.92 139.626 243.45 133.498C243.135 132.717 242.897 131.886 242.646 131.008C242.253 129.615 241.823 128.108 240.997 126.482C241.911 126.036 242.85 125.64 243.811 125.295C244.704 127.097 245.17 128.739 245.578 130.171C245.818 131.009 246.022 131.729 246.276 132.359C248.395 137.61 251.677 140.67 256.607 141.991C261.536 143.312 265.909 142.303 270.369 138.815C270.904 138.396 271.441 137.874 272.065 137.268C273.134 136.232 274.359 135.042 276.036 133.93C276.695 134.709 277.31 135.524 277.879 136.368C276.347 137.362 275.225 138.453 274.185 139.459C273.529 140.094 272.911 140.695 272.247 141.215C267.041 145.286 261.668 146.504 255.818 144.936Z" fill="var(--fill-0, white)"/>
<path d="M266.463 178.972C265.633 177.349 265.206 175.843 264.809 174.452C264.559 173.57 264.324 172.741 264.009 171.959C261.536 165.83 257.492 162.089 251.641 160.521C245.791 158.954 240.415 160.171 235.212 164.242C234.549 164.762 233.927 165.363 233.27 166.001C232.233 167.007 231.107 168.101 229.579 169.092C230.148 169.936 230.764 170.748 231.423 171.527C233.097 170.414 234.322 169.224 235.392 168.188C236.018 167.583 236.554 167.064 237.09 166.643C241.55 163.154 245.923 162.145 250.852 163.466C255.782 164.787 259.064 167.847 261.183 173.098C261.436 173.731 261.64 174.452 261.878 175.285C262.286 176.717 262.752 178.36 263.648 180.162L266.463 178.972Z" fill="var(--fill-0, white)"/>
</g>
<g id="Vector_10">
<path d="M314.179 160.907C308.187 159.301 303.135 155.943 299.423 151.527C298.764 150.748 298.148 149.936 297.579 149.092C293 142.33 291.27 133.689 293.55 125.179C295.83 116.67 301.649 110.052 308.997 106.482C309.911 106.036 310.85 105.64 311.811 105.295C317.233 103.327 323.288 102.945 329.28 104.551C335.272 106.156 340.324 109.514 344.036 113.93C344.695 114.709 345.31 115.524 345.879 116.368C350.458 123.13 352.186 131.77 349.906 140.28C347.625 148.79 341.81 155.405 334.463 158.972C333.549 159.418 332.609 159.817 331.648 160.162C326.226 162.13 320.171 162.512 314.179 160.907Z" fill="#C7F900"/>
<path d="M323.818 124.936C317.967 123.368 313.92 119.626 311.45 113.498C311.135 112.717 310.897 111.886 310.646 111.008C310.253 109.615 309.823 108.108 308.997 106.482C309.911 106.036 310.85 105.64 311.811 105.295C312.704 107.097 313.17 108.739 313.578 110.171C313.818 111.009 314.022 111.729 314.276 112.359C316.395 117.61 319.677 120.67 324.607 121.991C329.536 123.312 333.909 122.303 338.369 118.815C338.904 118.396 339.441 117.874 340.065 117.268C341.134 116.232 342.359 115.042 344.036 113.93C344.695 114.709 345.31 115.524 345.879 116.368C344.347 117.362 343.225 118.453 342.185 119.459C341.529 120.094 340.911 120.695 340.247 121.215C335.041 125.286 329.668 126.504 323.818 124.936Z" fill="var(--fill-0, white)"/>
<path d="M334.463 158.972C333.633 157.349 333.206 155.843 332.809 154.452C332.559 153.57 332.324 152.741 332.009 151.959C329.536 145.83 325.492 142.089 319.641 140.521C313.791 138.954 308.415 140.171 303.212 144.242C302.549 144.762 301.927 145.363 301.27 146.001C300.233 147.007 299.107 148.101 297.579 149.092C298.148 149.936 298.764 150.748 299.423 151.527C301.097 150.414 302.322 149.224 303.392 148.188C304.018 147.583 304.554 147.064 305.09 146.643C309.55 143.154 313.923 142.145 318.852 143.466C323.782 144.787 327.064 147.847 329.183 153.098C329.436 153.731 329.64 154.452 329.878 155.285C330.286 156.717 330.752 158.36 331.648 160.162L334.463 158.972Z" fill="var(--fill-0, white)"/>
</g>
<g id="Vector_11">
<path d="M371.179 205.907C365.187 204.301 360.135 200.943 356.423 196.527C355.764 195.748 355.148 194.936 354.579 194.092C350 187.33 348.27 178.689 350.55 170.179C352.83 161.67 358.649 155.052 365.997 151.482C366.911 151.036 367.85 150.64 368.811 150.295C374.233 148.327 380.288 147.945 386.28 149.551C392.272 151.156 397.324 154.514 401.036 158.93C401.695 159.709 402.31 160.524 402.879 161.368C407.458 168.13 409.186 176.77 406.906 185.28C404.625 193.79 398.81 200.405 391.463 203.972C390.549 204.418 389.609 204.817 388.648 205.162C383.226 207.13 377.171 207.512 371.179 205.907Z" fill="#C7F900"/>
<path d="M380.818 169.936C374.967 168.368 370.92 164.626 368.45 158.498C368.135 157.717 367.897 156.886 367.646 156.008C367.253 154.615 366.823 153.108 365.997 151.482C366.911 151.036 367.85 150.64 368.811 150.295C369.704 152.097 370.17 153.739 370.578 155.171C370.818 156.009 371.022 156.729 371.276 157.359C373.395 162.61 376.677 165.67 381.607 166.991C386.536 168.312 390.909 167.303 395.369 163.815C395.904 163.396 396.441 162.874 397.065 162.268C398.134 161.232 399.359 160.042 401.036 158.93C401.695 159.709 402.31 160.524 402.879 161.368C401.347 162.362 400.225 163.453 399.185 164.459C398.529 165.094 397.911 165.695 397.247 166.215C392.041 170.286 386.668 171.504 380.818 169.936Z" fill="var(--fill-0, white)"/>
<path d="M391.463 203.972C390.633 202.349 390.206 200.843 389.809 199.452C389.559 198.57 389.324 197.741 389.009 196.959C386.536 190.83 382.492 187.089 376.641 185.521C370.791 183.954 365.415 185.171 360.212 189.242C359.549 189.762 358.927 190.363 358.27 191.001C357.233 192.007 356.107 193.101 354.579 194.092C355.148 194.936 355.764 195.748 356.423 196.527C358.097 195.414 359.322 194.224 360.392 193.188C361.018 192.583 361.554 192.064 362.09 191.643C366.55 188.154 370.923 187.145 375.852 188.466C380.782 189.787 384.064 192.847 386.183 198.098C386.436 198.731 386.64 199.452 386.878 200.285C387.286 201.717 387.752 203.36 388.648 205.162L391.463 203.972Z" fill="var(--fill-0, white)"/>
</g>
<g id="Vector_12">
<path d="M386.179 276.907C380.187 275.301 375.135 271.943 371.423 267.527C370.764 266.748 370.148 265.936 369.579 265.092C365 258.33 363.27 249.689 365.55 241.179C367.83 232.67 373.649 226.052 380.997 222.482C381.911 222.036 382.85 221.64 383.811 221.295C389.233 219.327 395.288 218.945 401.28 220.551C407.272 222.156 412.324 225.514 416.036 229.93C416.695 230.709 417.31 231.524 417.879 232.368C422.458 239.13 424.186 247.77 421.906 256.28C419.625 264.79 413.81 271.405 406.463 274.972C405.549 275.418 404.609 275.817 403.648 276.162C398.226 278.13 392.171 278.512 386.179 276.907Z" fill="#C7F900"/>
<path d="M395.818 240.936C389.967 239.368 385.92 235.626 383.45 229.498C383.135 228.717 382.897 227.886 382.646 227.008C382.253 225.615 381.823 224.108 380.997 222.482C381.911 222.036 382.85 221.64 383.811 221.295C384.704 223.097 385.17 224.739 385.578 226.171C385.818 227.009 386.022 227.729 386.276 228.359C388.395 233.61 391.677 236.67 396.607 237.991C401.536 239.312 405.909 238.303 410.369 234.815C410.904 234.396 411.441 233.874 412.065 233.268C413.134 232.232 414.359 231.042 416.036 229.93C416.695 230.709 417.31 231.524 417.879 232.368C416.347 233.362 415.225 234.453 414.185 235.459C413.529 236.094 412.911 236.695 412.247 237.215C407.041 241.286 401.668 242.504 395.818 240.936Z" fill="var(--fill-0, white)"/>
<path d="M406.463 274.972C405.633 273.349 405.206 271.843 404.809 270.452C404.559 269.57 404.324 268.741 404.009 267.959C401.536 261.83 397.492 258.089 391.641 256.521C385.791 254.954 380.415 256.171 375.212 260.242C374.549 260.762 373.927 261.363 373.27 262.001C372.233 263.007 371.107 264.101 369.579 265.092C370.148 265.936 370.764 266.748 371.423 267.527C373.097 266.414 374.322 265.224 375.392 264.188C376.018 263.583 376.554 263.064 377.09 262.643C381.55 259.154 385.923 258.145 390.852 259.466C395.782 260.787 399.064 263.847 401.183 269.098C401.436 269.731 401.64 270.452 401.878 271.285C402.286 272.717 402.752 274.36 403.648 276.162L406.463 274.972Z" fill="var(--fill-0, white)"/>
</g>
<g id="Vector_13">
<path d="M342.179 337.907C336.187 336.301 331.135 332.943 327.423 328.527C326.764 327.748 326.148 326.936 325.579 326.092C321 319.33 319.27 310.689 321.55 302.179C323.83 293.67 329.649 287.052 336.997 283.482C337.911 283.036 338.85 282.64 339.811 282.295C345.233 280.327 351.288 279.945 357.28 281.551C363.272 283.156 368.324 286.514 372.036 290.93C372.695 291.709 373.31 292.524 373.879 293.368C378.458 300.13 380.186 308.77 377.906 317.28C375.625 325.79 369.81 332.405 362.463 335.972C361.549 336.418 360.609 336.817 359.648 337.162C354.226 339.13 348.171 339.512 342.179 337.907Z" fill="#C7F900"/>
<path d="M351.818 301.936C345.967 300.368 341.92 296.626 339.45 290.498C339.135 289.717 338.897 288.886 338.646 288.008C338.253 286.615 337.823 285.108 336.997 283.482C337.911 283.036 338.85 282.64 339.811 282.295C340.704 284.097 341.17 285.739 341.578 287.171C341.818 288.009 342.022 288.729 342.276 289.359C344.395 294.61 347.677 297.671 352.607 298.991C357.536 300.312 361.909 299.303 366.369 295.815C366.904 295.396 367.441 294.874 368.065 294.268C369.134 293.232 370.359 292.042 372.036 290.93C372.695 291.709 373.31 292.524 373.879 293.368C372.347 294.362 371.225 295.453 370.185 296.459C369.529 297.094 368.911 297.695 368.247 298.215C363.041 302.286 357.668 303.504 351.818 301.936Z" fill="var(--fill-0, white)"/>
<path d="M362.463 335.972C361.633 334.349 361.206 332.843 360.809 331.452C360.559 330.57 360.324 329.741 360.009 328.959C357.536 322.83 353.492 319.089 347.641 317.521C341.791 315.954 336.415 317.171 331.212 321.242C330.549 321.762 329.927 322.363 329.27 323.001C328.233 324.008 327.107 325.101 325.579 326.092C326.148 326.936 326.764 327.748 327.423 328.527C329.097 327.414 330.322 326.224 331.392 325.188C332.018 324.583 332.554 324.064 333.09 323.643C337.55 320.154 341.923 319.145 346.852 320.466C351.782 321.787 355.064 324.847 357.183 330.098C357.436 330.731 357.64 331.452 357.878 332.285C358.286 333.717 358.752 335.36 359.648 337.162L362.463 335.972Z" fill="var(--fill-0, white)"/>
</g>
<g id="Vector_14">
<path d="M199.179 338.907C193.187 337.301 188.135 333.943 184.423 329.527C183.764 328.748 183.148 327.936 182.579 327.092C178 320.33 176.27 311.689 178.55 303.179C180.83 294.67 186.649 288.052 193.997 284.482C194.911 284.036 195.85 283.64 196.811 283.295C202.233 281.327 208.288 280.945 214.28 282.551C220.272 284.156 225.324 287.514 229.036 291.93C229.695 292.709 230.31 293.524 230.879 294.368C235.458 301.13 237.186 309.77 234.906 318.28C232.625 326.79 226.81 333.405 219.463 336.972C218.549 337.418 217.609 337.817 216.648 338.162C211.226 340.13 205.171 340.512 199.179 338.907Z" fill="#C7F900"/>
<path d="M208.818 302.936C202.967 301.368 198.92 297.626 196.45 291.498C196.135 290.717 195.897 289.886 195.646 289.008C195.253 287.615 194.823 286.108 193.997 284.482C194.911 284.036 195.85 283.64 196.811 283.295C197.704 285.097 198.17 286.739 198.578 288.171C198.818 289.009 199.022 289.729 199.276 290.359C201.395 295.61 204.677 298.671 209.607 299.991C214.536 301.312 218.909 300.303 223.369 296.815C223.904 296.396 224.441 295.874 225.065 295.268C226.134 294.232 227.359 293.042 229.036 291.93C229.695 292.709 230.31 293.524 230.879 294.368C229.347 295.362 228.225 296.453 227.185 297.459C226.529 298.094 225.911 298.695 225.247 299.215C220.041 303.286 214.668 304.504 208.818 302.936Z" fill="var(--fill-0, white)"/>
<path d="M219.463 336.972C218.633 335.349 218.206 333.843 217.809 332.452C217.559 331.57 217.324 330.741 217.009 329.959C214.536 323.83 210.492 320.089 204.641 318.521C198.791 316.954 193.415 318.171 188.212 322.242C187.549 322.762 186.927 323.363 186.27 324.001C185.233 325.008 184.107 326.101 182.579 327.092C183.148 327.936 183.764 328.748 184.423 329.527C186.097 328.414 187.322 327.224 188.392 326.188C189.018 325.583 189.554 325.064 190.09 324.643C194.55 321.154 198.923 320.145 203.852 321.466C208.782 322.787 212.064 325.847 214.183 331.098C214.436 331.731 214.64 332.452 214.878 333.285C215.286 334.717 215.752 336.36 216.648 338.162L219.463 336.972Z" fill="var(--fill-0, white)"/>
</g>
<g id="Vector_15">
<path d="M271.179 358.907C265.187 357.301 260.135 353.943 256.423 349.527C255.764 348.748 255.148 347.936 254.579 347.092C250 340.33 248.27 331.689 250.55 323.179C252.83 314.67 258.649 308.052 265.997 304.482C266.911 304.036 267.85 303.64 268.811 303.295C274.233 301.327 280.288 300.945 286.28 302.551C292.272 304.156 297.324 307.514 301.036 311.93C301.695 312.709 302.31 313.524 302.879 314.368C307.458 321.13 309.186 329.77 306.906 338.28C304.625 346.79 298.81 353.405 291.463 356.972C290.549 357.418 289.609 357.817 288.648 358.162C283.226 360.13 277.171 360.512 271.179 358.907Z" fill="#C7F900"/>
<path d="M280.818 322.936C274.967 321.368 270.92 317.626 268.45 311.498C268.135 310.717 267.897 309.886 267.646 309.008C267.253 307.615 266.823 306.108 265.997 304.482C266.911 304.036 267.85 303.64 268.811 303.295C269.704 305.097 270.17 306.739 270.578 308.171C270.818 309.009 271.022 309.729 271.276 310.359C273.395 315.61 276.677 318.671 281.607 319.991C286.536 321.312 290.909 320.303 295.369 316.815C295.904 316.396 296.441 315.874 297.065 315.268C298.134 314.232 299.359 313.042 301.036 311.93C301.695 312.709 302.31 313.524 302.879 314.368C301.347 315.362 300.225 316.453 299.185 317.459C298.529 318.094 297.911 318.695 297.247 319.215C292.041 323.286 286.668 324.504 280.818 322.936Z" fill="var(--fill-0, white)"/>
<path d="M291.463 356.972C290.633 355.349 290.206 353.843 289.809 352.452C289.559 351.57 289.324 350.741 289.009 349.959C286.536 343.83 282.492 340.089 276.641 338.521C270.791 336.954 265.415 338.171 260.212 342.242C259.549 342.762 258.927 343.363 258.27 344.001C257.233 345.008 256.107 346.101 254.579 347.092C255.148 347.936 255.764 348.748 256.423 349.527C258.097 348.414 259.322 347.224 260.392 346.188C261.018 345.583 261.554 345.064 262.09 344.643C266.55 341.154 270.923 340.145 275.852 341.466C280.782 342.787 284.064 345.847 286.183 351.098C286.436 351.731 286.64 352.452 286.878 353.285C287.286 354.717 287.752 356.36 288.648 358.162L291.463 356.972Z" fill="var(--fill-0, white)"/>
</g>
<g id="Vector_16">
<path d="M152.179 287.907C146.187 286.301 141.135 282.943 137.423 278.527C136.764 277.748 136.148 276.936 135.579 276.092C131 269.33 129.27 260.689 131.55 252.179C133.83 243.67 139.649 237.052 146.997 233.482C147.911 233.036 148.85 232.64 149.811 232.295C155.233 230.327 161.288 229.945 167.28 231.551C173.272 233.156 178.324 236.514 182.036 240.93C182.695 241.709 183.31 242.524 183.879 243.368C188.458 250.13 190.186 258.77 187.906 267.28C185.625 275.79 179.81 282.405 172.463 285.972C171.549 286.418 170.609 286.817 169.648 287.162C164.226 289.13 158.171 289.512 152.179 287.907Z" fill="#C7F900"/>
<path d="M161.818 251.936C155.967 250.368 151.92 246.626 149.45 240.498C149.135 239.717 148.897 238.886 148.646 238.008C148.253 236.615 147.823 235.108 146.997 233.482C147.911 233.036 148.85 232.64 149.811 232.295C150.704 234.097 151.17 235.739 151.578 237.171C151.818 238.009 152.022 238.729 152.276 239.359C154.395 244.61 157.677 247.67 162.607 248.991C167.536 250.312 171.909 249.303 176.369 245.815C176.904 245.396 177.441 244.874 178.065 244.268C179.134 243.232 180.359 242.042 182.036 240.93C182.695 241.709 183.31 242.524 183.879 243.368C182.347 244.362 181.225 245.453 180.185 246.459C179.529 247.094 178.911 247.695 178.247 248.215C173.041 252.286 167.668 253.504 161.818 251.936Z" fill="var(--fill-0, white)"/>
<path d="M172.463 285.972C171.633 284.349 171.206 282.843 170.809 281.452C170.559 280.57 170.324 279.741 170.009 278.959C167.536 272.83 163.492 269.089 157.641 267.521C151.791 265.954 146.415 267.171 141.212 271.242C140.549 271.762 139.927 272.363 139.27 273.001C138.233 274.007 137.107 275.101 135.579 276.092C136.148 276.936 136.764 277.748 137.423 278.527C139.097 277.414 140.322 276.224 141.392 275.188C142.018 274.583 142.554 274.064 143.09 273.643C147.55 270.154 151.923 269.145 156.852 270.466C161.782 271.787 165.064 274.847 167.183 280.098C167.436 280.731 167.64 281.452 167.878 282.285C168.286 283.717 168.752 285.36 169.648 287.162L172.463 285.972Z" fill="var(--fill-0, white)"/>
</g>
<g id="Vector_17">
<path d="M131.179 221.907C125.187 220.301 120.135 216.943 116.423 212.527C115.764 211.748 115.148 210.936 114.579 210.092C110 203.33 108.27 194.689 110.55 186.179C112.83 177.67 118.649 171.052 125.997 167.482C126.911 167.036 127.85 166.64 128.811 166.295C134.233 164.327 140.288 163.945 146.28 165.551C152.272 167.156 157.324 170.514 161.036 174.93C161.695 175.709 162.31 176.524 162.879 177.368C167.458 184.13 169.186 192.77 166.906 201.28C164.625 209.79 158.81 216.405 151.463 219.972C150.549 220.418 149.609 220.817 148.648 221.162C143.226 223.13 137.171 223.512 131.179 221.907Z" fill="#C7F900"/>
<path d="M140.818 185.936C134.967 184.368 130.92 180.626 128.45 174.498C128.135 173.717 127.897 172.886 127.646 172.008C127.253 170.615 126.823 169.108 125.997 167.482C126.911 167.036 127.85 166.64 128.811 166.295C129.704 168.097 130.17 169.739 130.578 171.171C130.818 172.009 131.022 172.729 131.276 173.359C133.395 178.61 136.677 181.67 141.607 182.991C146.536 184.312 150.909 183.303 155.369 179.815C155.904 179.396 156.441 178.874 157.065 178.268C158.134 177.232 159.359 176.042 161.036 174.93C161.695 175.709 162.31 176.524 162.879 177.368C161.347 178.362 160.225 179.453 159.185 180.459C158.529 181.094 157.911 181.695 157.247 182.215C152.041 186.286 146.668 187.504 140.818 185.936Z" fill="var(--fill-0, white)"/>
<path d="M151.463 219.972C150.633 218.349 150.206 216.843 149.809 215.452C149.559 214.57 149.324 213.741 149.009 212.959C146.536 206.83 142.492 203.089 136.641 201.521C130.791 199.954 125.415 201.171 120.212 205.242C119.549 205.762 118.927 206.363 118.27 207.001C117.233 208.007 116.107 209.101 114.579 210.092C115.148 210.936 115.764 211.748 116.423 212.527C118.097 211.414 119.322 210.224 120.392 209.188C121.018 208.583 121.554 208.064 122.09 207.643C126.55 204.154 130.923 203.145 135.852 204.466C140.782 205.787 144.064 208.847 146.183 214.098C146.436 214.731 146.64 215.452 146.878 216.285C147.286 217.717 147.752 219.36 148.648 221.162L151.463 219.972Z" fill="var(--fill-0, white)"/>
</g>
<g id="Vector_18">
<path d="M152.179 150.907C146.187 149.301 141.135 145.943 137.423 141.527C136.764 140.748 136.148 139.936 135.579 139.092C131 132.33 129.27 123.689 131.55 115.179C133.83 106.67 139.649 100.052 146.997 96.4818C147.911 96.0358 148.85 95.6404 149.811 95.295C155.233 93.3268 161.288 92.945 167.28 94.5506C173.272 96.1562 178.324 99.5141 182.036 103.93C182.695 104.709 183.31 105.524 183.879 106.368C188.458 113.13 190.186 121.77 187.906 130.28C185.625 138.79 179.81 145.405 172.463 148.972C171.549 149.418 170.609 149.817 169.648 150.162C164.226 152.13 158.171 152.512 152.179 150.907Z" fill="#C7F900"/>
<path d="M161.818 114.936C155.967 113.368 151.92 109.626 149.45 103.498C149.135 102.717 148.897 101.886 148.646 101.008C148.253 99.6146 147.823 98.1077 146.997 96.4818C147.911 96.0358 148.85 95.6404 149.811 95.295C150.704 97.0965 151.17 98.7393 151.578 100.171C151.818 101.009 152.022 101.729 152.276 102.359C154.395 107.61 157.677 110.67 162.607 111.991C167.536 113.312 171.909 112.303 176.369 108.815C176.904 108.396 177.441 107.874 178.065 107.268C179.134 106.232 180.359 105.042 182.036 103.93C182.695 104.709 183.31 105.524 183.879 106.368C182.347 107.362 181.225 108.453 180.185 109.459C179.529 110.094 178.911 110.695 178.247 111.215C173.041 115.286 167.668 116.504 161.818 114.936Z" fill="var(--fill-0, white)"/>
<path d="M172.463 148.972C171.633 147.349 171.206 145.843 170.809 144.452C170.559 143.57 170.324 142.741 170.009 141.959C167.536 135.83 163.492 132.089 157.641 130.521C151.791 128.954 146.415 130.171 141.212 134.242C140.549 134.762 139.927 135.363 139.27 136.001C138.233 137.007 137.107 138.101 135.579 139.092C136.148 139.936 136.764 140.748 137.423 141.527C139.097 140.414 140.322 139.224 141.392 138.188C142.018 137.583 142.554 137.064 143.09 136.643C147.55 133.154 151.923 132.145 156.852 133.466C161.782 134.787 165.064 137.847 167.183 143.098C167.436 143.731 167.64 144.452 167.878 145.285C168.286 146.717 168.752 148.36 169.648 150.162L172.463 148.972Z" fill="var(--fill-0, white)"/>
</g>
<g id="Vector_19">
<path d="M202.179 98.9065C196.187 97.3009 191.135 93.9431 187.423 89.5275C186.764 88.7481 186.148 87.9362 185.579 87.0925C181 80.33 179.27 71.6892 181.55 63.1794C183.83 54.6696 189.649 48.0518 196.997 44.4818C197.911 44.0358 198.85 43.6404 199.811 43.295C205.233 41.3268 211.288 40.9451 217.28 42.5507C223.272 44.1562 228.324 47.5141 232.036 51.9297C232.695 52.7091 233.31 53.524 233.879 54.3676C238.458 61.1301 240.186 69.7702 237.906 78.2799C235.625 86.7897 229.81 93.4054 222.463 96.9724C221.549 97.4185 220.609 97.8168 219.648 98.1622C214.226 100.13 208.171 100.512 202.179 98.9065Z" fill="#C7F900"/>
<path d="M211.818 62.9358C205.967 61.3681 201.92 57.6264 199.45 51.4984C199.135 50.7166 198.897 49.8859 198.646 49.0077C198.253 47.6146 197.823 46.1077 196.997 44.4818C197.911 44.0358 198.85 43.6404 199.811 43.295C200.704 45.0965 201.17 46.7393 201.578 48.1711C201.818 49.0085 202.022 49.7292 202.276 50.3591C204.395 55.6101 207.677 58.6705 212.607 59.9913C217.536 61.312 221.909 60.303 226.369 56.8146C226.904 56.3962 227.441 55.8743 228.065 55.2681C229.134 54.2324 230.359 53.0425 232.036 51.9297C232.695 52.7091 233.31 53.524 233.879 54.3676C232.347 55.3616 231.225 56.4526 230.185 57.4586C229.529 58.0938 228.911 58.6949 228.247 59.2147C223.041 63.2858 217.668 64.5035 211.818 62.9358Z" fill="var(--fill-0, white)"/>
<path d="M222.463 96.9724C221.633 95.3487 221.206 93.8426 220.809 92.4517C220.559 91.5705 220.324 90.7405 220.009 89.9588C217.536 83.83 213.492 80.0891 207.641 78.5214C201.791 76.9536 196.415 78.1706 191.212 82.2425C190.549 82.7623 189.927 83.3626 189.27 84.0008C188.233 85.0075 187.107 86.1007 185.579 87.0925C186.148 87.9362 186.764 88.7481 187.423 89.5275C189.097 88.4139 190.322 87.224 191.392 86.1883C192.018 85.5829 192.554 85.0639 193.09 84.6426C197.55 81.1541 201.923 80.1451 206.852 81.4659C211.782 82.7867 215.064 85.8471 217.183 91.0981C217.436 91.7309 217.64 92.4516 217.878 93.2853C218.286 94.7171 218.752 96.3599 219.648 98.1622L222.463 96.9724Z" fill="var(--fill-0, white)"/>
</g>
<g id="Vector_20">
<path d="M271.179 68.9065C265.187 67.3009 260.135 63.9431 256.423 59.5275C255.764 58.7481 255.148 57.9362 254.579 57.0925C250 50.33 248.27 41.6892 250.55 33.1794C252.83 24.6696 258.649 18.0518 265.997 14.4818C266.911 14.0358 267.85 13.6404 268.811 13.295C274.233 11.3268 280.288 10.9451 286.28 12.5507C292.272 14.1562 297.324 17.5141 301.036 21.9297C301.695 22.7091 302.31 23.524 302.879 24.3676C307.458 31.1301 309.186 39.7702 306.906 48.2799C304.625 56.7897 298.81 63.4054 291.463 66.9724C290.549 67.4185 289.609 67.8168 288.648 68.1622C283.226 70.1304 277.171 70.5121 271.179 68.9065Z" fill="#C7F900"/>
<path d="M280.818 32.9358C274.967 31.3681 270.92 27.6264 268.45 21.4984C268.135 20.7166 267.897 19.8859 267.646 19.0077C267.253 17.6146 266.823 16.1077 265.997 14.4818C266.911 14.0358 267.85 13.6404 268.811 13.295C269.704 15.0965 270.17 16.7393 270.578 18.1711C270.818 19.0085 271.022 19.7292 271.276 20.3591C273.395 25.6101 276.677 28.6705 281.607 29.9913C286.536 31.312 290.909 30.303 295.369 26.8146C295.904 26.3962 296.441 25.8743 297.065 25.2681C298.134 24.2324 299.359 23.0425 301.036 21.9297C301.695 22.7091 302.31 23.524 302.879 24.3676C301.347 25.3616 300.225 26.4526 299.185 27.4586C298.529 28.0938 297.911 28.6949 297.247 29.2147C292.041 33.2858 286.668 34.5035 280.818 32.9358Z" fill="var(--fill-0, white)"/>
<path d="M291.463 66.9724C290.633 65.3487 290.206 63.8426 289.809 62.4517C289.559 61.5705 289.324 60.7405 289.009 59.9588C286.536 53.83 282.492 50.0891 276.641 48.5214C270.791 46.9536 265.415 48.1706 260.212 52.2425C259.549 52.7623 258.927 53.3626 258.27 54.0008C257.233 55.0075 256.107 56.1007 254.579 57.0925C255.148 57.9362 255.764 58.7481 256.423 59.5275C258.097 58.4139 259.322 57.224 260.392 56.1883C261.018 55.5829 261.554 55.0639 262.09 54.6426C266.55 51.1541 270.923 50.1451 275.852 51.4659C280.782 52.7867 284.064 55.8471 286.183 61.0981C286.436 61.7309 286.64 62.4516 286.878 63.2853C287.286 64.7171 287.752 66.3599 288.648 68.1622L291.463 66.9724Z" fill="var(--fill-0, white)"/>
</g>
<g id="Vector_21">
<path d="M347.179 63.9065C341.187 62.3009 336.135 58.9431 332.423 54.5275C331.764 53.7481 331.148 52.9362 330.579 52.0925C326 45.33 324.27 36.6892 326.55 28.1794C328.83 19.6696 334.649 13.0518 341.997 9.48179C342.911 9.03576 343.85 8.64042 344.811 8.29498C350.233 6.32681 356.288 5.94505 362.28 7.55065C368.272 9.15625 373.324 12.5141 377.036 16.9297C377.695 17.7091 378.31 18.524 378.879 19.3676C383.458 26.1301 385.186 34.7702 382.906 43.2799C380.625 51.7897 374.81 58.4054 367.463 61.9724C366.549 62.4185 365.609 62.8168 364.648 63.1622C359.226 65.1304 353.171 65.5121 347.179 63.9065Z" fill="#C7F900"/>
<path d="M356.818 27.9358C350.967 26.3681 346.92 22.6264 344.45 16.4984C344.135 15.7166 343.897 14.8859 343.646 14.0077C343.253 12.6146 342.823 11.1077 341.997 9.48179C342.911 9.03576 343.85 8.64042 344.811 8.29498C345.704 10.0965 346.17 11.7393 346.578 13.1711C346.818 14.0085 347.022 14.7292 347.276 15.3591C349.395 20.6101 352.677 23.6705 357.607 24.9913C362.536 26.312 366.909 25.303 371.369 21.8146C371.904 21.3962 372.441 20.8743 373.065 20.2681C374.134 19.2324 375.359 18.0425 377.036 16.9297C377.695 17.7091 378.31 18.524 378.879 19.3676C377.347 20.3616 376.225 21.4526 375.185 22.4586C374.529 23.0938 373.911 23.6949 373.247 24.2147C368.041 28.2858 362.668 29.5035 356.818 27.9358Z" fill="var(--fill-0, white)"/>
<path d="M367.463 61.9724C366.633 60.3487 366.206 58.8426 365.809 57.4517C365.559 56.5705 365.324 55.7405 365.009 54.9588C362.536 48.83 358.492 45.0891 352.641 43.5214C346.791 41.9536 341.415 43.1706 336.212 47.2425C335.549 47.7623 334.927 48.3626 334.27 49.0008C333.233 50.0075 332.107 51.1007 330.579 52.0925C331.148 52.9362 331.764 53.7481 332.423 54.5275C334.097 53.4139 335.322 52.224 336.392 51.1883C337.018 50.5829 337.554 50.0639 338.09 49.6426C342.55 46.1541 346.923 45.1451 351.852 46.4659C356.782 47.7867 360.064 50.8471 362.183 56.0981C362.436 56.7309 362.64 57.4516 362.878 58.2853C363.286 59.7171 363.752 61.3599 364.648 63.1622L367.463 61.9724Z" fill="var(--fill-0, white)"/>
</g>
<g id="Vector_22">
<path d="M410.179 89.9065C404.187 88.3009 399.135 84.9431 395.423 80.5275C394.764 79.7481 394.148 78.9362 393.579 78.0925C389 71.33 387.27 62.6892 389.55 54.1794C391.83 45.6696 397.649 39.0518 404.997 35.4818C405.911 35.0358 406.85 34.6404 407.811 34.295C413.233 32.3268 419.288 31.9451 425.28 33.5507C431.272 35.1562 436.324 38.5141 440.036 42.9297C440.695 43.7091 441.31 44.524 441.879 45.3676C446.458 52.1301 448.186 60.7702 445.906 69.2799C443.625 77.7897 437.81 84.4054 430.463 87.9724C429.549 88.4185 428.609 88.8168 427.648 89.1622C422.226 91.1304 416.171 91.5121 410.179 89.9065Z" fill="#C7F900"/>
<path d="M419.818 53.9358C413.967 52.3681 409.92 48.6264 407.45 42.4984C407.135 41.7166 406.897 40.8859 406.646 40.0077C406.253 38.6146 405.823 37.1077 404.997 35.4818C405.911 35.0358 406.85 34.6404 407.811 34.295C408.704 36.0965 409.17 37.7393 409.578 39.1711C409.818 40.0085 410.022 40.7292 410.276 41.3591C412.395 46.6101 415.677 49.6705 420.607 50.9913C425.536 52.312 429.909 51.303 434.369 47.8146C434.904 47.3962 435.441 46.8743 436.065 46.2681C437.134 45.2324 438.359 44.0425 440.036 42.9297C440.695 43.7091 441.31 44.524 441.879 45.3676C440.347 46.3616 439.225 47.4526 438.185 48.4586C437.529 49.0938 436.911 49.6949 436.247 50.2147C431.041 54.2858 425.668 55.5035 419.818 53.9358Z" fill="var(--fill-0, white)"/>
<path d="M430.463 87.9724C429.633 86.3487 429.206 84.8426 428.809 83.4517C428.559 82.5705 428.324 81.7405 428.009 80.9588C425.536 74.83 421.492 71.0891 415.641 69.5214C409.791 67.9536 404.415 69.1706 399.212 73.2425C398.549 73.7623 397.927 74.3626 397.27 75.0008C396.233 76.0075 395.107 77.1007 393.579 78.0925C394.148 78.9362 394.764 79.7481 395.423 80.5275C397.097 79.4139 398.322 78.224 399.392 77.1883C400.018 76.5829 400.554 76.0639 401.09 75.6426C405.55 72.1541 409.923 71.1451 414.852 72.4659C419.782 73.7867 423.064 76.8471 425.183 82.0981C425.436 82.7309 425.64 83.4516 425.878 84.2853C426.286 85.7171 426.752 87.3599 427.648 89.1622L430.463 87.9724Z" fill="var(--fill-0, white)"/>
</g>
<g id="Vector_23">
<path d="M457.179 145.907C451.187 144.301 446.135 140.943 442.423 136.527C441.764 135.748 441.148 134.936 440.579 134.092C436 127.33 434.27 118.689 436.55 110.179C438.83 101.67 444.649 95.0518 451.997 91.4818C452.911 91.0358 453.85 90.6404 454.811 90.295C460.233 88.3268 466.288 87.945 472.28 89.5506C478.272 91.1562 483.324 94.5141 487.036 98.9297C487.695 99.7091 488.31 100.524 488.879 101.368C493.458 108.13 495.186 116.77 492.906 125.28C490.625 133.79 484.81 140.405 477.463 143.972C476.549 144.418 475.609 144.817 474.648 145.162C469.226 147.13 463.171 147.512 457.179 145.907Z" fill="#C7F900"/>
<path d="M466.818 109.936C460.967 108.368 456.92 104.626 454.45 98.4984C454.135 97.7166 453.897 96.8859 453.646 96.0077C453.253 94.6146 452.823 93.1077 451.997 91.4818C452.911 91.0358 453.85 90.6404 454.811 90.295C455.704 92.0965 456.17 93.7393 456.578 95.1711C456.818 96.0085 457.022 96.7292 457.276 97.3591C459.395 102.61 462.677 105.67 467.607 106.991C472.536 108.312 476.909 107.303 481.369 103.815C481.904 103.396 482.441 102.874 483.065 102.268C484.134 101.232 485.359 100.042 487.036 98.9297C487.695 99.7091 488.31 100.524 488.879 101.368C487.347 102.362 486.225 103.453 485.185 104.459C484.529 105.094 483.911 105.695 483.247 106.215C478.041 110.286 472.668 111.504 466.818 109.936Z" fill="var(--fill-0, white)"/>
<path d="M477.463 143.972C476.633 142.349 476.206 140.843 475.809 139.452C475.559 138.57 475.324 137.741 475.009 136.959C472.536 130.83 468.492 127.089 462.641 125.521C456.791 123.954 451.415 125.171 446.212 129.242C445.549 129.762 444.927 130.363 444.27 131.001C443.233 132.007 442.107 133.101 440.579 134.092C441.148 134.936 441.764 135.748 442.423 136.527C444.097 135.414 445.322 134.224 446.392 133.188C447.018 132.583 447.554 132.064 448.09 131.643C452.55 128.154 456.923 127.145 461.852 128.466C466.782 129.787 470.064 132.847 472.183 138.098C472.436 138.731 472.64 139.452 472.878 140.285C473.286 141.717 473.752 143.36 474.648 145.162L477.463 143.972Z" fill="var(--fill-0, white)"/>
</g>
<g id="Vector_24">
<path d="M481.179 220.907C475.187 219.301 470.135 215.943 466.423 211.527C465.764 210.748 465.148 209.936 464.579 209.092C460 202.33 458.27 193.689 460.55 185.179C462.83 176.67 468.649 170.052 475.997 166.482C476.911 166.036 477.851 165.64 478.811 165.295C484.233 163.327 490.288 162.945 496.28 164.551C502.272 166.156 507.325 169.514 511.036 173.93C511.695 174.709 512.31 175.524 512.879 176.368C517.458 183.13 519.186 191.77 516.906 200.28C514.626 208.79 508.81 215.405 501.463 218.972C500.549 219.418 499.609 219.817 498.648 220.162C493.226 222.13 487.172 222.512 481.179 220.907Z" fill="#C7F900"/>
<path d="M490.818 184.936C484.967 183.368 480.92 179.626 478.45 173.498C478.135 172.717 477.897 171.886 477.646 171.008C477.253 169.615 476.823 168.108 475.997 166.482C476.911 166.036 477.851 165.64 478.811 165.295C479.704 167.097 480.17 168.739 480.578 170.171C480.818 171.009 481.022 171.729 481.277 172.359C483.395 177.61 486.678 180.67 491.607 181.991C496.536 183.312 500.909 182.303 505.369 178.815C505.904 178.396 506.441 177.874 507.065 177.268C508.134 176.232 509.359 175.042 511.036 173.93C511.695 174.709 512.31 175.524 512.879 176.368C511.348 177.362 510.225 178.453 509.186 179.459C508.529 180.094 507.911 180.695 507.248 181.215C502.041 185.286 496.669 186.504 490.818 184.936Z" fill="var(--fill-0, white)"/>
<path d="M501.463 218.972C500.633 217.349 500.207 215.843 499.809 214.452C499.559 213.57 499.324 212.741 499.01 211.959C496.536 205.83 492.492 202.089 486.642 200.521C480.791 198.954 475.415 200.171 470.212 204.242C469.549 204.762 468.927 205.363 468.27 206.001C467.233 207.007 466.107 208.101 464.579 209.092C465.148 209.936 465.764 210.748 466.423 211.527C468.097 210.414 469.322 209.224 470.392 208.188C471.018 207.583 471.555 207.064 472.09 206.643C476.55 203.154 480.923 202.145 485.853 203.466C490.782 204.787 494.065 207.847 496.183 213.098C496.436 213.731 496.641 214.452 496.878 215.285C497.287 216.717 497.752 218.36 498.648 220.162L501.463 218.972Z" fill="var(--fill-0, white)"/>
</g>
<g id="Vector_25">
<path d="M488.179 291.907C482.187 290.301 477.135 286.943 473.423 282.527C472.764 281.748 472.148 280.936 471.579 280.092C467 273.33 465.27 264.689 467.55 256.179C469.83 247.67 475.649 241.052 482.997 237.482C483.911 237.036 484.851 236.64 485.811 236.295C491.233 234.327 497.288 233.945 503.28 235.551C509.272 237.156 514.325 240.514 518.036 244.93C518.695 245.709 519.31 246.524 519.879 247.368C524.458 254.13 526.186 262.77 523.906 271.28C521.626 279.79 515.81 286.405 508.463 289.972C507.549 290.418 506.609 290.817 505.648 291.162C500.226 293.13 494.172 293.512 488.179 291.907Z" fill="#C7F900"/>
<path d="M497.818 255.936C491.967 254.368 487.92 250.626 485.45 244.498C485.135 243.717 484.897 242.886 484.646 242.008C484.253 240.615 483.823 239.108 482.997 237.482C483.911 237.036 484.851 236.64 485.811 236.295C486.704 238.097 487.17 239.739 487.578 241.171C487.818 242.009 488.022 242.729 488.277 243.359C490.395 248.61 493.678 251.67 498.607 252.991C503.536 254.312 507.909 253.303 512.369 249.815C512.904 249.396 513.441 248.874 514.065 248.268C515.134 247.232 516.359 246.042 518.036 244.93C518.695 245.709 519.31 246.524 519.879 247.368C518.348 248.362 517.225 249.453 516.186 250.459C515.529 251.094 514.911 251.695 514.248 252.215C509.041 256.286 503.669 257.504 497.818 255.936Z" fill="var(--fill-0, white)"/>
<path d="M508.463 289.972C507.633 288.349 507.207 286.843 506.809 285.452C506.559 284.57 506.324 283.741 506.01 282.959C503.536 276.83 499.492 273.089 493.642 271.521C487.791 269.954 482.415 271.171 477.212 275.242C476.549 275.762 475.927 276.363 475.27 277.001C474.233 278.007 473.107 279.101 471.579 280.092C472.148 280.936 472.764 281.748 473.423 282.527C475.097 281.414 476.322 280.224 477.392 279.188C478.018 278.583 478.555 278.064 479.09 277.643C483.55 274.154 487.923 273.145 492.853 274.466C497.782 275.787 501.065 278.847 503.183 284.098C503.436 284.731 503.641 285.452 503.878 286.285C504.287 287.717 504.752 289.36 505.648 291.162L508.463 289.972Z" fill="var(--fill-0, white)"/>
</g>
</g>
</svg>
