<svg preserveAspectRatio="none" width="100%" height="100%" overflow="visible" style="display: block;" viewBox="0 0 33.307 33.307" fill="none" xmlns="http://www.w3.org/2000/svg">
<g id="Vector">
<path d="M33.307 16.6526C33.307 20.1941 32.2019 23.4762 30.3155 26.1754C29.9831 26.6539 29.6263 27.1134 29.2452 27.5519C26.1928 31.076 21.6837 33.307 16.6544 33.307C11.625 33.307 7.11595 31.076 4.06178 27.5519C3.68066 27.1134 3.32391 26.6539 2.99152 26.1754C1.10507 23.4762 0 20.1941 0 16.6526C0 13.1112 1.10507 9.82903 2.99152 7.12987C3.32391 6.6513 3.68241 6.19187 4.06352 5.75332C7.11595 2.22928 11.625 0 16.6544 0C21.6837 0 26.191 2.22928 29.2434 5.75332C29.6246 6.19187 29.9831 6.6513 30.3155 7.12987C32.2019 9.82903 33.307 13.1112 33.307 16.6526Z" fill="#C7F900"/>
<path d="M12.0479 16.6526C12.0479 20.1105 10.5826 22.895 7.56842 25.1625C7.18382 25.4514 6.76094 25.7055 6.31369 25.9735C5.60366 26.3964 4.8362 26.8558 4.06178 27.5519C3.68066 27.1134 3.32391 26.6539 2.99152 26.1754C3.85295 25.4166 4.69002 24.9171 5.41919 24.4803C5.84556 24.2245 6.21275 24.0052 6.52252 23.7721C9.10508 21.8282 10.3076 19.5658 10.3076 16.6526C10.3076 13.7394 9.10508 11.4771 6.52252 9.53318C6.21275 9.29999 5.84556 9.08071 5.41919 8.82664C4.69002 8.38983 3.85295 7.89037 2.99152 7.12987C3.32391 6.6513 3.68241 6.19187 4.06352 5.75332C4.83794 6.45117 5.6054 6.90886 6.31369 7.33349C6.76094 7.60149 7.18382 7.85383 7.56842 8.14271C10.5826 10.412 12.0479 13.1947 12.0479 16.6526Z" fill="var(--fill-0, white)"/>
<path d="M29.2434 5.75332C28.4708 6.45117 27.7033 6.90886 26.995 7.33349C26.546 7.60149 26.1231 7.85383 25.7385 8.14271C22.7244 10.412 21.2591 13.1947 21.2591 16.6526C21.2591 20.1105 22.7244 22.895 25.7385 25.1625C26.1231 25.4514 26.546 25.7055 26.995 25.9735C27.7033 26.3964 28.4725 26.8558 29.2452 27.5519C29.6263 27.1134 29.9831 26.6539 30.3155 26.1754C29.454 25.4166 28.617 24.9171 27.8878 24.4803C27.4614 24.2245 27.096 24.0052 26.7845 23.7721C24.2019 21.8282 22.9994 19.5658 22.9994 16.6526C22.9994 13.7394 24.2019 11.4771 26.7845 9.53318C27.096 9.29999 27.4632 9.08071 27.8878 8.82664C28.617 8.38983 29.454 7.89037 30.3155 7.12987L29.2434 5.75332Z" fill="var(--fill-0, white)"/>
</g>
</svg>
