<svg width="93" height="106" viewBox="0 0 93 106" fill="none" xmlns="http://www.w3.org/2000/svg">
<path d="M16.9837 6.01438C25.7052 -2.70706 36.5095 -8.06849 47.8023 -10.0699C49.7995 -10.4299 51.8095 -10.6828 53.8281 -10.8242C70.0238 -11.9856 86.6224 -6.37563 99.0081 6.0101C111.394 18.3958 117.004 34.9944 115.847 51.1944C115.705 53.213 115.452 55.223 115.092 57.2202C113.091 68.513 107.73 79.3173 99.0081 88.0388C90.2867 96.7602 79.4824 102.122 68.1895 104.123C66.1923 104.483 64.1781 104.732 62.1595 104.873C45.9637 106.035 29.3694 100.42 16.9837 88.0345C4.59798 75.6488 -1.01202 59.0587 0.149407 42.863C0.290838 40.8444 0.539411 38.8301 0.89941 36.833C2.90085 25.5401 8.26228 14.7358 16.9837 6.01438Z" fill="#C7F900"/>
<path d="M69.3381 58.3687C77.8538 49.853 88.3195 46.6044 101.327 48.443C102.985 48.6787 104.652 49.0944 106.414 49.5359C109.204 50.243 112.225 51.0016 115.847 51.1944C115.705 53.213 115.452 55.223 115.092 57.2202C111.102 56.9673 107.811 56.1359 104.94 55.4159C103.26 54.9959 101.815 54.6316 100.478 54.443C89.331 52.8702 80.7981 55.4802 73.6238 62.6545C66.4495 69.8288 63.8395 78.3616 65.4123 89.5088C65.6009 90.8459 65.9652 92.2902 66.3895 93.9659C67.1095 96.8374 67.9409 100.129 68.1895 104.123C66.1923 104.483 64.1781 104.732 62.1595 104.873C61.9709 101.247 61.2081 98.2302 60.5095 95.4402C60.0681 93.6788 59.6481 92.0159 59.4123 90.3573C57.5781 77.3459 60.8223 66.8845 69.3381 58.3687Z" fill="white"/>
<path d="M0.149407 42.863C3.77084 43.0473 6.78799 43.8101 9.578 44.5087C11.3437 44.9544 13.0066 45.3744 14.6651 45.6101C27.6766 47.4444 38.138 44.2001 46.6538 35.6844C55.1695 27.1687 58.4181 16.703 56.5795 3.69581C56.3438 2.03724 55.9281 0.370086 55.4823 -1.39563C54.7795 -4.18134 54.0166 -7.20707 53.8281 -10.8242C51.8095 -10.6828 49.7995 -10.4299 47.8023 -10.0699C48.0552 -6.07992 48.8866 -2.78849 49.6066 0.082942C50.0266 1.76295 50.3866 3.20295 50.5795 4.54437C52.1523 15.6915 49.5423 24.2244 42.368 31.3987C35.1937 38.573 26.6609 41.183 15.5137 39.6101C14.1723 39.4173 12.728 39.053 11.0566 38.633C8.18513 37.913 4.8937 37.0816 0.89941 36.833L0.149407 42.863Z" fill="white"/>
</svg>
