<svg preserveAspectRatio="none" width="100%" height="100%" overflow="visible" style="display: block;" viewBox="0 0 419.502 344.502" fill="none" xmlns="http://www.w3.org/2000/svg">
<g id="Group 41">
<path id="Vector 1 (Stroke)" d="M84.7001 7.56884C90.493 -0.0152473 101.243 -1.77316 109.163 3.64501L192.887 60.9184L229.907 50.3335L237.259 25.8296L237.382 25.437C240.039 17.2554 248.137 12.0765 256.712 13.1382C265.423 14.2168 272.086 21.4212 272.481 30.1899L272.836 38.0591L358.052 13.6948C367.61 10.962 377.574 16.4951 380.307 26.0532C383.039 35.6113 377.506 45.5752 367.948 48.3081L274.504 75.0249L275.084 87.8979L304.312 72.9712L304.75 72.7554C309.291 70.5887 314.541 70.4194 319.223 72.3042C324.055 74.2499 327.807 78.1936 329.511 83.1167L371.778 205.298L400.19 204.02C408.84 203.631 416.541 209.455 418.522 217.883C420.503 226.312 416.202 234.957 408.284 238.461L386.575 248.068L393.511 268.117C396.223 275.958 393.225 284.637 386.251 289.131C379.277 293.626 370.134 292.772 364.114 287.063L343.224 267.253L173.284 342.461C166.857 345.305 159.363 344.149 154.093 339.5C148.822 334.852 146.74 327.561 148.759 320.83L169.881 250.421L146.309 251.483C137.383 251.885 129.513 245.677 127.824 236.903L121.976 206.519L87.6874 224.032C78.8342 228.553 67.9913 225.042 63.4696 216.189C58.948 207.336 62.4593 196.493 71.3124 191.971L114.892 169.712L105.945 123.22L23.4481 146.808C16.0669 148.919 8.15945 146.115 3.75574 139.827C-0.647967 133.538 -0.578493 125.149 3.92859 118.934L84.4286 7.93407L84.7001 7.56884ZM207.98 248.707L194.478 293.714L306.163 244.288L207.98 248.707ZM155.356 189.47L160.234 214.82L180.839 213.892L194.102 169.682L155.356 189.47ZM218.939 212.177L282.144 209.333L248.114 177.063C244.734 173.858 242.728 169.466 242.518 164.813L242.173 157.153L236.012 155.27L218.939 212.177ZM317.724 159.158C317.442 160.735 316.945 162.297 316.222 163.802C312.697 171.131 304.762 175.101 296.927 173.737L332.093 207.084L334.269 206.987L317.724 159.158ZM148.272 152.665L177.924 137.521L143.323 126.949L148.272 152.665ZM284.436 123.545L310.163 141.145C310.808 141.586 311.415 142.064 311.985 142.572L302.255 114.445L284.436 123.545ZM182.591 101.305L192.662 104.382L186.521 100.181L182.591 101.305ZM63.6805 97.8618L147.92 73.7749L103.29 43.2446L63.6805 97.8618Z" fill="var(--fill-0, white)" stroke="var(--stroke-0, black)" stroke-linecap="round" stroke-linejoin="round"/>
<g id="_&#229;&#155;&#190;&#229;&#177;&#130;_1" clip-path="url(#clip0_509_7)">
<path id="Vector" d="M104.51 218.672C104.507 218.69 104.502 218.709 104.5 218.726C104.497 218.709 104.495 218.693 104.492 218.675L104.51 218.672Z" fill="var(--fill-0, white)"/>
<path id="Vector_2" d="M123.389 203.311C123.212 213.408 113.451 219.291 113.096 224.471C112.74 229.652 112.119 230.441 107.682 227.193C105.982 225.947 105.023 222.673 104.5 218.726C104.502 218.709 104.507 218.69 104.51 218.672L104.492 218.675C104.495 218.693 104.497 218.709 104.5 218.726C103.019 226.487 96.769 232.353 96.6436 232.469H96.6422C95.0303 236.161 91.4142 237.611 89.4617 237.646C89.1844 237.651 88.8851 237.637 88.568 237.607C88.5665 237.607 84.3503 241.463 78.4204 241.511V241.475C72.5229 241.4 68.3347 237.57 68.3347 237.57C68.0191 237.601 67.7182 237.616 67.441 237.61C65.4884 237.575 61.8739 236.126 60.262 232.436C60.262 232.436 53.8985 226.531 52.4031 218.691C52.4061 218.674 52.4075 218.656 52.4105 218.639H52.3928C52.3958 218.655 52.4002 218.674 52.4031 218.691C51.8796 222.639 50.9225 225.912 49.2207 227.157C44.7832 230.406 44.1623 229.615 43.8069 224.436C43.453 219.256 33.6902 213.373 33.5133 203.276C33.3363 193.177 37.9507 194.143 42.3882 190.631C46.8242 187.119 50.7293 177.022 61.2899 181.149C70.6957 175.969 76.8262 176.583 78.5088 176.583V176.618C80.3419 176.596 86.4105 176.116 95.6128 181.185C106.173 177.059 110.078 187.156 114.516 190.668C118.953 194.18 123.568 193.214 123.389 203.311Z" fill="var(--fill-0, white)"/>
<path id="Vector_3" d="M52.3928 218.637H52.4105C52.4075 218.656 52.4061 218.674 52.4031 218.691C52.4002 218.674 52.3958 218.655 52.3928 218.637Z" fill="var(--fill-0, white)"/>
<path id="Vector_4" d="M64.8838 211.61C66.4362 211.61 67.6946 210.266 67.6946 208.607C67.6946 206.949 66.4362 205.605 64.8838 205.605C63.3314 205.605 62.0729 206.949 62.0729 208.607C62.0729 210.266 63.3314 211.61 64.8838 211.61Z" fill="var(--fill-0, black)"/>
<path id="Vector_5" d="M92.1221 211.61C93.6745 211.61 94.9329 210.266 94.9329 208.607C94.9329 206.949 93.6745 205.605 92.1221 205.605C90.5697 205.605 89.3113 206.949 89.3113 208.607C89.3113 210.266 90.5697 211.61 92.1221 211.61Z" fill="var(--fill-0, black)"/>
<path id="Vector_6" d="M85.2145 222.086C85.2145 224.898 82.2414 228.515 78.5752 228.515C74.909 228.515 71.936 224.898 71.936 222.086C71.936 219.275 74.909 216.994 78.5752 216.994C82.2414 216.994 85.2145 219.273 85.2145 222.086Z" fill="var(--fill-0, black)"/>
<path id="Vector_7" d="M60.1705 232.299C60.1705 232.299 53.9339 226.516 52.4577 218.649" stroke="var(--stroke-0, black)" stroke-miterlimit="10"/>
<path id="Vector_8" d="M57.8832 186.311C57.8832 186.311 52.7467 193.191 52.9237 200.04C53.1007 206.889 53.723 223.922 49.2855 227.17C44.8481 230.418 44.2272 229.628 43.8718 224.449C43.5164 219.269 33.7566 213.386 33.5782 203.289C33.3997 193.192 38.0156 194.158 42.4531 190.646C46.8906 187.134 50.7942 177.036 61.3548 181.163C70.7621 175.982 76.8925 176.596 78.5752 176.596" stroke="var(--stroke-0, black)" stroke-miterlimit="10"/>
<path id="Vector_9" d="M68.401 237.583C68.401 237.583 72.632 241.489 78.6224 241.489" stroke="var(--stroke-0, black)" stroke-miterlimit="10"/>
<path id="Vector_10" d="M96.8088 232.224C96.8088 232.224 103.059 226.516 104.535 218.649" stroke="var(--stroke-0, black)" stroke-miterlimit="10"/>
<path id="Vector_11" d="M99.1168 186.311C99.1168 186.311 104.253 193.191 104.076 200.04C103.899 206.889 103.277 223.922 107.714 227.17C112.152 230.418 112.773 229.628 113.128 224.449C113.484 219.269 123.245 213.386 123.422 203.289C123.599 193.192 118.984 194.158 114.547 190.646C110.109 187.134 106.206 177.037 95.6452 181.163C86.2379 175.982 80.1075 176.596 78.4263 176.596" stroke="var(--stroke-0, black)" stroke-miterlimit="10"/>
<path id="Vector_12" d="M88.7302 237.583C88.7302 237.583 84.4992 241.489 78.5089 241.489" stroke="var(--stroke-0, black)" stroke-miterlimit="10"/>
<path id="Vector_13" d="M83.9285 236.334V238.879C83.9285 241.392 81.5527 243.427 78.6209 243.427C75.6892 243.427 73.3148 241.392 73.3148 238.879V236.267L73.862 236.04L75.2113 235.38L76.5799 234.524L77.8187 233.247L78.4263 231.639L78.4838 230.914H78.5988L78.6563 231.639L79.2639 233.247L80.5042 234.524L81.8712 235.38L83.2221 236.04L83.9285 236.334Z" fill="var(--fill-0, #FF8D8D)"/>
<g id="Group">
<path id="Vector_14" d="M78.4189 227.997C78.4189 227.997 79.0265 231.773 77.4146 233.688C75.8027 235.602 70.3727 237.677 67.4159 237.623C64.4591 237.569 57.6856 234.273 59.8358 224.859" stroke="var(--stroke-0, black)" stroke-miterlimit="10"/>
<path id="Vector_15" d="M78.531 227.997C78.531 227.997 77.9234 231.773 79.5353 233.688C81.1471 235.602 86.5771 237.677 89.5339 237.623C92.4908 237.57 99.2642 234.273 97.1141 224.859" stroke="var(--stroke-0, black)" stroke-miterlimit="10"/>
</g>
<path id="Vector_16" d="M83.9285 236.348C83.9285 236.348 83.9285 236.127 83.9285 238.208C83.9285 240.289 83.5023 241.168 82.3417 242.139C81.1811 243.109 79.7108 243.43 78.6224 243.43C77.5341 243.43 76.0623 243.109 74.9031 242.139C73.7425 241.168 73.3163 240.29 73.3163 238.208C73.3163 236.126 73.3163 236.348 73.3163 236.348" stroke="var(--stroke-0, black)" stroke-miterlimit="10"/>
</g>
</g>
<defs>
<clipPath id="clip0_509_7">
<rect width="90" height="67" fill="white" transform="translate(33.5 176.502)"/>
</clipPath>
</defs>
</svg>
