<svg width="90" height="67" viewBox="0 0 90 67" fill="none" xmlns="http://www.w3.org/2000/svg">
<g id="_图层_1">
<path id="Vector" d="M71.01 42.17C71.007 42.188 71.002 42.207 71 42.224C70.997 42.207 70.995 42.191 70.992 42.173L71.01 42.17Z" fill="white"/>
<path id="Vector_2" d="M89.889 26.809C89.712 36.906 79.951 42.789 79.596 47.969C79.24 53.15 78.619 53.939 74.182 50.691C72.482 49.445 71.523 46.171 71 42.224C71.002 42.207 71.007 42.188 71.01 42.17L70.992 42.173C70.995 42.191 70.997 42.207 71 42.224C69.519 49.985 63.269 55.851 63.1436 55.967H63.1422C61.5303 59.659 57.9142 61.109 55.9617 61.144C55.6844 61.149 55.3851 61.135 55.068 61.105C55.0665 61.105 50.8503 64.961 44.9204 65.009V64.973C39.0229 64.898 34.8347 61.068 34.8347 61.068C34.5191 61.099 34.2182 61.114 33.941 61.108C31.9884 61.073 28.3739 59.624 26.762 55.934C26.762 55.934 20.3985 50.029 18.9031 42.189C18.9061 42.172 18.9075 42.154 18.9105 42.137H18.8928C18.8958 42.153 18.9002 42.172 18.9031 42.189C18.3796 46.137 17.4225 49.41 15.7207 50.655C11.2832 53.904 10.6623 53.113 10.3069 47.934C9.953 42.754 0.1902 36.871 0.0133 26.774C-0.1637 16.675 4.4507 17.641 8.8882 14.129C13.3242 10.617 17.2293 0.52 27.7899 4.647C37.1957 -0.533 43.3262 0.081 45.0088 0.081V0.116C46.8419 0.094 52.9105 -0.386 62.1128 4.683C72.673 0.557 76.578 10.654 81.016 14.166C85.453 17.678 90.068 16.712 89.889 26.809Z" fill="white"/>
<path id="Vector_3" d="M18.8928 42.135H18.9105C18.9075 42.154 18.9061 42.172 18.9031 42.189C18.9002 42.172 18.8958 42.153 18.8928 42.135Z" fill="white"/>
<path id="Vector_4" d="M31.3838 35.108C32.9362 35.108 34.1946 33.764 34.1946 32.105C34.1946 30.447 32.9362 29.103 31.3838 29.103C29.8314 29.103 28.5729 30.447 28.5729 32.105C28.5729 33.764 29.8314 35.108 31.3838 35.108Z" fill="black"/>
<path id="Vector_5" d="M58.6221 35.108C60.1745 35.108 61.4329 33.764 61.4329 32.105C61.4329 30.447 60.1745 29.103 58.6221 29.103C57.0697 29.103 55.8113 30.447 55.8113 32.105C55.8113 33.764 57.0697 35.108 58.6221 35.108Z" fill="black"/>
<path id="Vector_6" d="M51.7145 45.584C51.7145 48.396 48.7414 52.013 45.0752 52.013C41.409 52.013 38.436 48.396 38.436 45.584C38.436 42.773 41.409 40.492 45.0752 40.492C48.7414 40.492 51.7145 42.771 51.7145 45.584Z" fill="black"/>
<path id="Vector_7" d="M26.6705 55.797C26.6705 55.797 20.4339 50.014 18.9577 42.147" stroke="black" stroke-miterlimit="10"/>
<path id="Vector_8" d="M24.3832 9.80899C24.3832 9.80899 19.2467 16.6889 19.4237 23.538C19.6007 30.387 20.223 47.42 15.7855 50.668C11.3481 53.916 10.7272 53.126 10.3718 47.947C10.0164 42.767 0.2566 36.884 0.0782 26.787C-0.1003 16.69 4.5156 17.656 8.9531 14.144C13.3906 10.632 17.2942 0.533997 27.8548 4.66099C37.2621 -0.520004 43.3925 0.0939941 45.0752 0.0939941" stroke="black" stroke-miterlimit="10"/>
<path id="Vector_9" d="M34.901 61.081C34.901 61.081 39.132 64.987 45.1224 64.987" stroke="black" stroke-miterlimit="10"/>
<path id="Vector_10" d="M63.3088 55.722C63.3088 55.722 69.559 50.014 71.035 42.147" stroke="black" stroke-miterlimit="10"/>
<path id="Vector_11" d="M65.6168 9.80899C65.6168 9.80899 70.753 16.6889 70.576 23.538C70.399 30.387 69.777 47.42 74.214 50.668C78.652 53.916 79.273 53.126 79.628 47.947C79.984 42.767 89.745 36.884 89.922 26.787C90.099 16.69 85.484 17.656 81.047 14.144C76.609 10.632 72.706 0.534996 62.1452 4.66099C52.7379 -0.520004 46.6075 0.0939941 44.9263 0.0939941" stroke="black" stroke-miterlimit="10"/>
<path id="Vector_12" d="M55.2302 61.081C55.2302 61.081 50.9992 64.987 45.0089 64.987" stroke="black" stroke-miterlimit="10"/>
<path id="Vector_13" d="M50.4285 59.832V62.377C50.4285 64.89 48.0527 66.925 45.1209 66.925C42.1892 66.925 39.8148 64.89 39.8148 62.377V59.765L40.362 59.538L41.7113 58.878L43.0799 58.022L44.3187 56.745L44.9263 55.137L44.9838 54.412H45.0988L45.1563 55.137L45.7639 56.745L47.0042 58.022L48.3712 58.878L49.7221 59.538L50.4285 59.832Z" fill="#FF8D8D"/>
<g id="Group">
<path id="Vector_14" d="M44.9189 51.495C44.9189 51.495 45.5265 55.271 43.9146 57.186C42.3027 59.1001 36.8727 61.175 33.9159 61.121C30.9591 61.067 24.1856 57.771 26.3358 48.357" stroke="black" stroke-miterlimit="10"/>
<path id="Vector_15" d="M45.031 51.495C45.031 51.495 44.4234 55.271 46.0353 57.186C47.6471 59.1001 53.0771 61.175 56.0339 61.121C58.9908 61.068 65.7642 57.771 63.6141 48.357" stroke="black" stroke-miterlimit="10"/>
</g>
<path id="Vector_16" d="M50.4285 59.846C50.4285 59.846 50.4285 59.625 50.4285 61.706C50.4285 63.787 50.0023 64.666 48.8417 65.637C47.6811 66.607 46.2108 66.928 45.1224 66.928C44.0341 66.928 42.5623 66.607 41.4031 65.637C40.2425 64.666 39.8163 63.788 39.8163 61.706C39.8163 59.624 39.8163 59.846 39.8163 59.846" stroke="black" stroke-miterlimit="10"/>
</g>
</svg>
