<svg width="305" height="36" viewBox="0 0 305 36" fill="none" xmlns="http://www.w3.org/2000/svg" aria-hidden="true">
  <path d="M36 18.0009C36 24.069 32.9961 29.4354 28.3952 32.6951C27.8591 33.0751 27.3024 33.4268 26.7268 33.7447C24.1404 35.1818 21.1647 36 17.9991 36C14.8334 36 11.8577 35.1818 9.27321 33.7447C8.69575 33.4268 8.13898 33.0751 7.60479 32.6951C3.00204 29.4354 0 24.069 0 18.0009C0 8.05998 8.0581 0 17.9991 0C27.94 0 36 8.05998 36 18.0009Z" fill="#BEEE00"/>
  <path d="M28.3952 32.6951C27.8591 33.0751 27.3024 33.4268 26.7268 33.7447C24.0464 31.1396 25.0132 26.6515 25.7449 23.2507C26.0459 21.8607 26.328 20.5459 26.328 19.6035C26.328 14.5004 23.5254 11.9141 17.9991 11.9141C12.4728 11.9141 9.67198 14.5004 9.67198 19.6035C9.67198 20.5459 9.95412 21.8607 10.2532 23.2507C10.9868 26.6515 11.9536 31.1377 9.27321 33.7447C8.69575 33.4268 8.13898 33.0751 7.60479 32.6951C9.78484 31.0211 9.2939 27.7218 8.41549 23.6476C8.09384 22.156 7.791 20.7472 7.791 19.6035C7.791 16.0278 9.11709 10.0331 17.9991 10.0331C26.881 10.0331 28.209 16.0278 28.209 19.6035C28.209 20.7472 27.9062 22.156 27.5845 23.6476C26.7061 27.7218 26.2152 31.0211 28.3952 32.6951Z" fill="#ffffff"/>
  <path d="M133 33C114.52 19.2562 109.492 5.12554 118.041 2.47498C126.588 -0.175579 133 9.13152 133 9.13152C133 9.13152 139.411 -0.175579 147.959 2.47498C156.508 5.12554 151.479 19.2562 133 33Z" fill="#FA4B4B"/>
  <path d="M185.5 33C168.479 19.2562 163.848 5.12554 171.722 2.47498C179.595 -0.175579 185.5 9.13152 185.5 9.13152C185.5 9.13152 191.405 -0.175579 199.278 2.47498C207.152 5.12554 202.52 19.2562 185.5 33Z" fill="#FA4B4B"/>
  <path d="M236.5 33C219.479 19.2562 214.848 5.12554 222.722 2.47498C230.595 -0.175579 236.5 9.13152 236.5 9.13152C236.5 9.13152 242.405 -0.175579 250.278 2.47498C258.152 5.12554 253.52 19.2562 236.5 33Z" fill="#FA4B4B"/>
  <path d="M287.5 33C270.479 19.2562 265.848 5.12554 273.722 2.47498C281.595 -0.175579 287.5 9.13152 287.5 9.13152C287.5 9.13152 293.405 -0.175579 301.278 2.47498C309.152 5.12554 304.52 19.2562 287.5 33Z" fill="#FA4B4B"/>
  <rect x="61" y="9" width="28" height="6" fill="#ffffff"/>
  <rect x="61" y="21" width="28" height="6" fill="#ffffff"/>
</svg>
